<?xml version="1.0" encoding="iso-8859-1"?>
<!DOCTYPE svg PUBLIC "-//W3C//DTD SVG 1.1//EN" "http://www.w3.org/Graphics/SVG/1.1/DTD/svg11.dtd">
<svg version="1.1" xmlns="http://www.w3.org/2000/svg" xmlns:xlink="http://www.w3.org/1999/xlink" height="18" width="18" xml:space="preserve">
	
	<!-- Copyright 2011–2015 KittMedia Productions -->
	<!-- Licensed under GNU Lesser General Public License, version 2.1 (LGPL-2.1) -->
	
	<radialGradient id="SVGID_1_" cx="7.3327" cy="7.756" r="9.105" gradientUnits="userSpaceOnUse">
		<stop offset="0" style="stop-color:#FFFF98"/>
		<stop offset="1" style="stop-color:#FFD314"/>
	</radialGradient>
	
	<path style="fill:url(#SVGID_1_);" d="M9.5,17.5c-4.411,0-8-3.589-8-8s3.589-8,8-8s8,3.589,8,8S13.911,17.5,9.5,17.5z"/>
	<path style="fill:#CDA70C;" d="M9.5,2C13.636,2,17,5.364,17,9.5S13.636,17,9.5,17S2,13.636,2,9.5S5.364,2,9.5,2 M9.5,1C4.806,1,1,4.806,1,9.5C1,14.194,4.806,18,9.5,18S18,14.194,18,9.5C18,4.806,14.194,1,9.5,1L9.5,1z"/>
	<path style="fill:#FFFFFF;" d="M9.5,9.397C7.075,9.397,5.103,7.425,5.103,5S7.075,0.603,9.5,0.603S13.897,2.575,13.897,5S11.925,9.397,9.5,9.397z"/>
	<path style="fill:#655B20;" d="M9.5,1.103c2.149,0,3.897,1.748,3.897,3.897S11.649,8.897,9.5,8.897S5.603,7.149,5.603,5S7.351,1.103,9.5,1.103 M9.5,0.103C6.795,0.103,4.603,2.295,4.603,5S6.795,9.897,9.5,9.897S14.397,7.705,14.397,5S12.205,0.103,9.5,0.103L9.5,0.103z"/>
	<path style="fill:#FFFFFF;" d="M3.996,8.397C2.123,8.397,0.599,6.874,0.599,5s1.524-3.397,3.397-3.397c1.874,0,3.397,1.524,3.397,3.397S5.869,8.397,3.996,8.397z"/>
	<path style="fill:#655B20;" d="M3.996,2.103c1.598,0,2.897,1.3,2.897,2.897s-1.3,2.897-2.897,2.897S1.098,6.598,1.098,5S2.398,2.103,3.996,2.103 M3.996,1.103C1.843,1.103,0.098,2.848,0.098,5s1.745,3.897,3.897,3.897S7.893,7.152,7.893,5S6.148,1.103,3.996,1.103L3.996,1.103z"/>
	<path style="fill:#655B20;" d="M9.75,6.75L9.75,6.75c0.552,0,1-0.448,1-1l0,0c0-0.552-0.448-1-1-1l0,0c-0.552,0-1,0.448-1,1l0,0C8.75,6.302,9.198,6.75,9.75,6.75z"/>
	<path style="fill:#655B20;" d="M4,7L4,7c0.552,0,1-0.448,1-1l0,0c0-0.552-0.448-1-1-1l0,0C3.448,5,3,5.448,3,6l0,0C3,6.552,3.448,7,4,7z"/>
	<rect x="5.499" y="2.695" transform="matrix(0.7071 -0.7071 0.7071 0.7071 -0.8741 6.0699)" style="fill:#FFFFFF;" width="2.781" height="2.79"/>
	<rect x="5.765" y="5.077" transform="matrix(0.7562 -0.6543 0.6543 0.7562 -2.2799 6.1286)" style="fill:#FFFFFF;" width="2.641" height="2.094"/>
	<polygon style="fill:#4C4926;" points="13.376,12 5.624,12 5.624,13.376 7.757,15.31 11.404,15.314 13.376,13.3 "/>
	<rect x="7.893" y="13.871" style="fill:#F84116;" width="3.983" height="1.478"/>
	<rect x="10.143" y="13.871" style="fill:#F84116;" width="2.512" height="0.864"/>
	<path style="fill:none;stroke:#655919;stroke-miterlimit:10;" d="M5.5,12c0,1.988,1.789,3.597,4,3.597"/>
	<path style="fill:none;stroke:#655919;stroke-miterlimit:10;" d="M13.5,12c0,1.988-1.789,3.596-4,3.596"/>
	<rect x="5" y="11" style="fill:#655919;" width="9" height="1"/>
</svg>