<?xml version="1.0" encoding="utf-8"?>
<!DOCTYPE svg PUBLIC "-//W3C//DTD SVG 1.1//EN" "http://www.w3.org/Graphics/SVG/1.1/DTD/svg11.dtd">
<svg version="1.1" xmlns="http://www.w3.org/2000/svg" xmlns:xlink="http://www.w3.org/1999/xlink" height="18" width="18" xml:space="preserve">
	
	<!-- Copyright 2011–2015 KittMedia Productions -->
	<!-- Licensed under GNU Lesser General Public License, version 2.1 (LGPL-2.1) -->
	
	<style type="text/css">
		.st0{fill:url(#SVGID_1_);}
		.st1{fill:#CDA70C;}
		.st2{fill:#FFFFFF;}
		.st3{fill:#655B20;}
		.st4{fill:#4C4926;}
		.st5{fill:#F84116;}
		.st6{fill:none;stroke:#655919;stroke-miterlimit:10;}
		.st7{fill:#655919;}
	</style>
	
	<radialGradient id="SVGID_1_" cx="7.3327" cy="7.756" r="9.105" gradientUnits="userSpaceOnUse">
		<stop offset="0" style="stop-color:#FFFF98"/>
		<stop offset="1" style="stop-color:#FFD314"/>
	</radialGradient>
	
	<path class="st0" d="M9.5,17.5c-4.4,0-8-3.6-8-8s3.6-8,8-8s8,3.6,8,8S13.9,17.5,9.5,17.5z"/>
	<path class="st1" d="M9.5,2C13.6,2,17,5.4,17,9.5S13.6,17,9.5,17S2,13.6,2,9.5S5.4,2,9.5,2 M9.5,1C4.8,1,1,4.8,1,9.5C1,14.2,4.8,18,9.5,18S18,14.2,18,9.5C18,4.8,14.2,1,9.5,1L9.5,1z"/>
	<path class="st2" d="M9.5,9.4c-2.4,0-4.4-2-4.4-4.4s2-4.4,4.4-4.4s4.4,2,4.4,4.4S11.9,9.4,9.5,9.4z"/>
	<path class="st3" d="M9.5,1.1c2.1,0,3.9,1.7,3.9,3.9s-1.7,3.9-3.9,3.9S5.6,7.1,5.6,5S7.4,1.1,9.5,1.1 M9.5,0.1C6.8,0.1,4.6,2.3,4.6,5s2.2,4.9,4.9,4.9s4.9-2.2,4.9-4.9S12.2,0.1,9.5,0.1L9.5,0.1z"/>
	<path class="st2" d="M4,8.4C2.1,8.4,0.6,6.9,0.6,5S2.1,1.6,4,1.6c1.9,0,3.4,1.5,3.4,3.4S5.9,8.4,4,8.4z"/>
	<path class="st3" d="M4,2.1c1.6,0,2.9,1.3,2.9,2.9S5.6,7.9,4,7.9S1.1,6.6,1.1,5S2.4,2.1,4,2.1 M4,1.1C1.8,1.1,0.1,2.8,0.1,5S1.8,8.9,4,8.9S7.9,7.2,7.9,5S6.1,1.1,4,1.1L4,1.1z"/>
	<path class="st3" d="M4,7L4,7c0.6,0,1-0.4,1-1l0,0c0-0.6-0.4-1-1-1l0,0C3.4,5,3,5.4,3,6l0,0C3,6.6,3.4,7,4,7z"/>
	<rect x="5.5" y="2.7" transform="matrix(0.7071 -0.7071 0.7071 0.7071 -0.8741 6.0699)" class="st2" width="2.8" height="2.8"/>
	<rect x="5.8" y="5.1" transform="matrix(0.7562 -0.6543 0.6543 0.7562 -2.2799 6.1286)" class="st2" width="2.6" height="2.1"/>
	<polygon class="st4" points="13.4,12 5.6,12 5.6,13.4 7.8,15.3 11.4,15.3 13.4,13.3 "/>
	<rect x="7.9" y="13.9" class="st5" width="4" height="1.5"/>
	<rect x="10.1" y="13.9" class="st5" width="2.5" height="0.9"/>
	<path class="st6" d="M5.5,12c0,2,1.8,3.6,4,3.6"/>
	<path class="st6" d="M13.5,12c0,2-1.8,3.6-4,3.6"/>
	<rect x="5" y="11" class="st7" width="9" height="1"/>
	<path class="st3" d="M9,7L9,7c0.6,0,1-0.4,1-1l0,0c0-0.6-0.4-1-1-1l0,0C8.4,5,8,5.4,8,6l0,0C8,6.6,8.4,7,9,7z"/>
</svg>