<?xml version="1.0" encoding="utf-8"?>
<!DOCTYPE svg PUBLIC "-//W3C//DTD SVG 1.1//EN" "http://www.w3.org/Graphics/SVG/1.1/DTD/svg11.dtd">
<svg version="1.1" xmlns="http://www.w3.org/2000/svg" xmlns:xlink="http://www.w3.org/1999/xlink" height="17" width="17" xml:space="preserve">
	
	<!-- Copyright 2011–2015 KittMedia Productions -->
	<!-- Licensed under GNU Lesser General Public License, version 2.1 (LGPL-2.1) -->
	
	<style type="text/css">
		.st0{fill:url(#SVGID_1_);}
		.st1{fill:#CDA70C;}
		.st2{fill:#FFFFFF;}
		.st3{fill:#655B20;}
	</style>
	
	<radialGradient id="SVGID_1_" cx="6.3327" cy="6.756" r="9.105" gradientUnits="userSpaceOnUse">
		<stop offset="0" style="stop-color:#FFFF98"/>
		<stop offset="1" style="stop-color:#FFD314"/>
	</radialGradient>
	
	<path class="st0" d="M8.5,16.5c-4.4,0-8-3.6-8-8s3.6-8,8-8s8,3.6,8,8S12.9,16.5,8.5,16.5z"/>
	<path class="st1" d="M8.5,1C12.6,1,16,4.4,16,8.5S12.6,16,8.5,16S1,12.6,1,8.5S4.4,1,8.5,1 M8.5,0C3.8,0,0,3.8,0,8.5C0,13.2,3.8,17,8.5,17S17,13.2,17,8.5C17,3.8,13.2,0,8.5,0L8.5,0z"/>
	<rect x="3.7" y="6" class="st2" width="1.5" height="2.2"/>
	<rect x="5.1" y="6.5" class="st3" width="1" height="2.3"/>
	<rect x="6" y="7.4" class="st3" width="0.6" height="0.9"/>
	<path class="st3" d="M6,14c0-1.1,1.1-2,2.5-2v1C7.7,13,7,13.4,7,14H6z"/>
	<path class="st3" d="M11,14c0-1.1-1.1-2-2.5-2v1c0.8,0,1.5,0.4,1.5,1H11z"/>
	<rect x="2.4" y="5.9" transform="matrix(0.7071 0.7071 -0.7071 0.7071 6.1709 -2.0963)" class="st3" width="6.4" height="1"/>
	<rect x="3" y="8" class="st3" width="4.5" height="1"/>
	<rect x="3" y="6" class="st3" width="1" height="3"/>
	<rect x="11.8" y="6" class="st2" width="1.5" height="2.2"/>
	<rect x="11" y="6.5" class="st3" width="1" height="2.3"/>
	<rect x="10.4" y="7.4" class="st3" width="0.6" height="0.9"/>
	<rect x="8.2" y="5.9" transform="matrix(-0.7071 0.7071 -0.7071 -0.7071 23.96 2.877)" class="st3" width="6.4" height="1"/>
	<rect x="9.5" y="8" class="st3" width="4.5" height="1"/>
	<rect x="13" y="6" class="st3" width="1" height="3"/>
	<rect x="5.4" y="3.8" transform="matrix(0.7071 0.7071 -0.7071 0.7071 5.1967 -4.0104)" class="st3" width="4" height="1"/>
	<rect x="7.6" y="3.8" transform="matrix(-0.7071 0.7071 -0.7071 -0.7071 19.3352 0.5266)" class="st3" width="4" height="1"/>
</svg>