<?xml version="1.0" encoding="utf-8"?>
<!DOCTYPE svg PUBLIC "-//W3C//DTD SVG 1.1//EN" "http://www.w3.org/Graphics/SVG/1.1/DTD/svg11.dtd">
<svg version="1.1" xmlns="http://www.w3.org/2000/svg" xmlns:xlink="http://www.w3.org/1999/xlink" height="18" width="17" xml:space="preserve">
	
	<!-- Copyright 2011–2015 KittMedia Productions -->
	<!-- Licensed under GNU Lesser General Public License, version 2.1 (LGPL-2.1) -->
	
	<style type="text/css">
		.st0{fill:url(#SVGID_1_);}
		.st1{fill:#CDA70C;}
		.st2{fill:#FFFFFF;}
		.st3{fill:#655B20;}
		.st4{fill:#FFFFFF;stroke:#655B20;stroke-width:1.5;stroke-miterlimit:10;}
		.st5{fill:#FF2600;}
	</style>
	
	<radialGradient id="SVGID_1_" cx="6.3327" cy="6.756" r="9.105" gradientUnits="userSpaceOnUse">
		<stop offset="0" style="stop-color:#FFFF98"/>
		<stop offset="1" style="stop-color:#FFD314"/>
	</radialGradient>
	
	<path class="st0" d="M8.5,16.5c-4.4,0-8-3.6-8-8s3.6-8,8-8s8,3.6,8,8S12.9,16.5,8.5,16.5z"/>
	<path class="st1" d="M8.5,1C12.6,1,16,4.4,16,8.5S12.6,16,8.5,16S1,12.6,1,8.5S4.4,1,8.5,1 M8.5,0C3.8,0,0,3.8,0,8.5C0,13.2,3.8,17,8.5,17S17,13.2,17,8.5C17,3.8,13.2,0,8.5,0L8.5,0z"/>
	<path class="st2" d="M4.5,8.5C2.6,8.5,1,7.2,1,5.5s1.6-3,3.5-3S8,3.8,8,5.5S6.4,8.5,4.5,8.5z"/>
	<path class="st3" d="M4.5,3c1.7,0,3,1.1,3,2.5S6.2,8,4.5,8s-3-1.1-3-2.5S2.8,3,4.5,3 M4.5,2c-2.2,0-4,1.6-4,3.5S2.3,9,4.5,9s4-1.6,4-3.5S6.7,2,4.5,2L4.5,2z"/>
	<circle class="st2" cx="10.5" cy="5" r="2.5"/>
	<path class="st3" d="M10.5,3c1.1,0,2,0.9,2,2s-0.9,2-2,2s-2-0.9-2-2S9.4,3,10.5,3 M10.5,2c-1.7,0-3,1.3-3,3c0,1.7,1.3,3,3,3s3-1.3,3-3C13.5,3.3,12.2,2,10.5,2L10.5,2z"/>
	<circle class="st4" cx="6" cy="4.5" r="0.8"/>
	<circle class="st4" cx="10.9" cy="4.1" r="0.6"/>
	<path class="st3" d="M8.5,14.5C5.3,14.5,4,14.1,4,13c0-1.4,2.1-2.5,4.5-2.5S13,11.7,13,13C13,14.1,11.7,14.5,8.5,14.5z"/>
	<path class="st3" d="M8.5,11c2.3,0,4,1.1,4,2c0,0.6-1.3,1-4,1s-4-0.3-4-1C4.5,12.1,6.2,11,8.5,11 M8.5,10c-2.8,0-5,1.4-5,3c0,1.7,2.2,2,5,2s5-0.3,5-2C13.5,11.4,11.3,10,8.5,10L8.5,10z"/>
	<rect x="8.8" y="11.8" transform="matrix(-0.707 0.7072 -0.7072 -0.707 28.4945 16.4931)" class="st5" width="4" height="4.7"/>
	<path class="st3" d="M10.6,11.8l2.6,2.6l-2.1,2.1l-2.6-2.6L10.6,11.8 M10.6,10.3L10.6,10.3L7,13.9l4.1,4.1l3.5-3.5L10.6,10.3L10.6,10.3z"/>
	<rect x="8.8" y="13" transform="matrix(0.7961 0.6052 -0.6052 0.7961 10.1701 -3.1784)" class="st3" width="2" height="1"/>
</svg>