<?xml version="1.0" encoding="iso-8859-1"?>
<!DOCTYPE svg PUBLIC "-//W3C//DTD SVG 1.1//EN" "http://www.w3.org/Graphics/SVG/1.1/DTD/svg11.dtd">
<svg version="1.1" xmlns="http://www.w3.org/2000/svg" xmlns:xlink="http://www.w3.org/1999/xlink" height="17" width="17" xml:space="preserve">
	
	<!-- Copyright 2011–2015 KittMedia Productions -->
	<!-- Licensed under GNU Lesser General Public License, version 2.1 (LGPL-2.1) -->
	
	<radialGradient id="SVGID_1_" cx="6.3327" cy="6.756" r="9.105" gradientUnits="userSpaceOnUse">
		<stop offset="0" style="stop-color:#FFFF98"/>
		<stop offset="1" style="stop-color:#FFD314"/>
	</radialGradient>
	
	<path style="fill:url(#SVGID_1_);" d="M8.5,16.5c-4.411,0-8-3.589-8-8s3.589-8,8-8s8,3.589,8,8S12.911,16.5,8.5,16.5z"/>
	<path style="fill:#CDA70C;" d="M8.5,1C12.636,1,16,4.364,16,8.5S12.636,16,8.5,16S1,12.636,1,8.5S4.364,1,8.5,1 M8.5,0C3.806,0,0,3.806,0,8.5C0,13.194,3.806,17,8.5,17S17,13.194,17,8.5C17,3.806,13.194,0,8.5,0L8.5,0z"/>
	<path style="fill:#FFFFFF;" d="M4.5,8.505C2.57,8.505,1,7.157,1,5.5s1.57-3.005,3.5-3.005S8,3.843,8,5.5S6.43,8.505,4.5,8.505z"/>
	<path style="fill:#655B20;" d="M4.5,2.995c1.654,0,3,1.124,3,2.505s-1.346,2.505-3,2.505s-3-1.124-3-2.505S2.846,2.995,4.5,2.995M4.5,1.995c-2.209,0-4,1.569-4,3.505s1.791,3.505,4,3.505s4-1.569,4-3.505S6.709,1.995,4.5,1.995L4.5,1.995z"/>
	<circle style="fill:#FFFFFF;" cx="10.5" cy="4.994" r="2.499"/>
	<path style="fill:#655B20;" d="M10.5,2.995c1.104,0,2.002,0.897,2.002,1.999S11.604,6.994,10.5,6.994S8.498,6.097,8.498,4.994S9.396,2.995,10.5,2.995 M10.5,1.995c-1.658,0-3.002,1.343-3.002,2.999c0,1.656,1.344,2.999,3.002,2.999s3.002-1.343,3.002-2.999C13.502,3.338,12.158,1.995,10.5,1.995L10.5,1.995z"/>
	<circle style="fill:#FFFFFF;stroke:#655B20;stroke-width:1.5;stroke-miterlimit:10;" cx="6" cy="4.5" r="0.75"/>
	<circle style="fill:#FFFFFF;stroke:#655B20;stroke-width:1.5;stroke-miterlimit:10;" cx="10.875" cy="4.125" r="0.625"/>
	<path style="fill:#655B20;" d="M8.5,14.5c-3.145,0-4.486-0.448-4.486-1.5c0-1.394,2.055-2.57,4.486-2.57s4.486,1.177,4.486,2.57C12.986,14.052,11.645,14.5,8.5,14.5z"/>
	<path style="fill:#655B20;" d="M8.5,10.929c2.281,0,3.986,1.093,3.986,2.071c0,0.664-1.341,1-3.986,1s-3.986-0.336-3.986-1C4.514,12.023,6.219,10.929,8.5,10.929 M8.5,9.929c-2.754,0-4.986,1.375-4.986,3.071s2.232,2,4.986,2s4.986-0.304,4.986-2S11.254,9.929,8.5,9.929L8.5,9.929z"/>
	<rect x="8.741" y="11.56" transform="matrix(-0.7072 0.707 -0.707 -0.7072 28.2768 16.4094)" style="fill:#FF2600;" width="4" height="4.999"/>
	<path style="fill:#655B20;" d="M10.387,11.585l2.828,2.829l-2.121,2.121l-2.828-2.828L10.387,11.585 M10.387,10.17L10.387,10.17l-3.536,3.536l4.243,4.243l3.536-3.535L10.387,10.17L10.387,10.17z"/>
	<line style="fill:none;stroke:#655B20;stroke-miterlimit:10;" x1="8.703" y1="12.766" x2="10.741" y2="14.06"/>
</svg>