<?xml version="1.0" encoding="utf-8"?>
<!DOCTYPE svg PUBLIC "-//W3C//DTD SVG 1.1//EN" "http://www.w3.org/Graphics/SVG/1.1/DTD/svg11.dtd">
<svg version="1.1" xmlns="http://www.w3.org/2000/svg" xmlns:xlink="http://www.w3.org/1999/xlink" height="18" width="21" xml:space="preserve">
	
	<!-- Copyright 2011–2015 KittMedia Productions -->
	<!-- Licensed under GNU Lesser General Public License, version 2.1 (LGPL-2.1) -->
	
	<style type="text/css">
		.st0{fill:url(#SVGID_1_);}
		.st1{fill:#CDA70E;}
		.st2{fill:url(#SVGID_2_);}
		.st3{fill:url(#SVGID_3_);}
		.st4{fill:#665C20;}
		.st5{fill:#665A19;}
		.st6{fill:none;stroke:#665C20;stroke-miterlimit:10;}
	</style>
	
	<radialGradient id="SVGID_1_" cx="16.1772" cy="3.2545" r="4.0146" gradientTransform="matrix(0.9922 0 0 0.9922 0 7.751938e-03)" gradientUnits="userSpaceOnUse">
		<stop offset="0" style="stop-color:#F9F19A"/>
		<stop offset="1" style="stop-color:#FFD418"/>
	</radialGradient>
	
	<path class="st0" d="M17,7.5c-1.9,0-3.5-1.6-3.5-3.5s1.6-3.5,3.5-3.5s3.5,1.6,3.5,3.5S18.9,7.5,17,7.5z"/>
	<path class="st1" d="M17,1c1.7,0,3,1.3,3,3s-1.3,3-3,3s-3-1.3-3-3S15.3,1,17,1 M17,0c-2.2,0-4,1.8-4,4c0,2.2,1.8,4,4,4s4-1.8,4-4C21,1.8,19.2,0,17,0L17,0z"/>
	
	<radialGradient id="SVGID_2_" cx="-5.9947" cy="3.2545" r="4.0146" gradientTransform="matrix(-0.9922 0 0 0.9922 -1 7.752303e-03)" gradientUnits="userSpaceOnUse">
		<stop offset="0" style="stop-color:#F9F19A"/>
		<stop offset="1" style="stop-color:#FFD418"/>
	</radialGradient>
	
	<path class="st2" d="M4,7.5C2.1,7.5,0.5,5.9,0.5,4S2.1,0.5,4,0.5S7.5,2.1,7.5,4S5.9,7.5,4,7.5z"/>
	<path class="st1" d="M4,1c1.7,0,3,1.3,3,3S5.7,7,4,7S1,5.7,1,4S2.3,1,4,1 M4,0C1.8,0,0,1.8,0,4c0,2.2,1.8,4,4,4s4-1.8,4-4C8,1.8,6.2,0,4,0L4,0z"/>
	
	<radialGradient id="SVGID_3_" cx="8.3327" cy="7.756" r="9.105" gradientUnits="userSpaceOnUse">
		<stop offset="0" style="stop-color:#F9F19A"/>
		<stop offset="1" style="stop-color:#FFD418"/>
	</radialGradient>
	
	<path class="st3" d="M10.5,17.5c-4.4,0-8-3.6-8-8s3.6-8,8-8s8,3.6,8,8S14.9,17.5,10.5,17.5z"/>
	<path class="st1" d="M10.5,2C14.6,2,18,5.4,18,9.5S14.6,17,10.5,17S3,13.6,3,9.5S6.4,2,10.5,2 M10.5,1C5.8,1,2,4.8,2,9.5c0,4.7,3.8,8.5,8.5,8.5S19,14.2,19,9.5C19,4.8,15.2,1,10.5,1L10.5,1z"/>
	<rect x="6" y="8.5" class="st4" width="3" height="2"/>
	<rect x="7" y="7.5" class="st4" width="2" height="3"/>
	<rect x="12" y="8.5" class="st4" width="3" height="2"/>
	<rect x="12" y="7.5" class="st4" width="2" height="3"/>
	<rect x="9" y="10.5" class="st4" width="3" height="2"/>
	<rect x="10" y="12.5" class="st5" width="1" height="3"/>
	<path class="st6" d="M8,13.5c0,0.8,0.9,1.5,2,1.5"/>
	<path class="st6" d="M13,13.5c0,0.8-0.9,1.5-2,1.5"/>
</svg>