<?xml version="1.0" encoding="utf-8"?>
<!DOCTYPE svg PUBLIC "-//W3C//DTD SVG 1.1//EN" "http://www.w3.org/Graphics/SVG/1.1/DTD/svg11.dtd">
<svg version="1.1" xmlns="http://www.w3.org/2000/svg" xmlns:xlink="http://www.w3.org/1999/xlink" height="17" width="17" xml:space="preserve">
	
	<!-- Copyright 2011–2015 KittMedia Productions -->
	<!-- Licensed under GNU Lesser General Public License, version 2.1 (LGPL-2.1) -->
	
	<style type="text/css">
		.st0{fill:url(#SVGID_1_);}
		.st1{fill:#010202;}
		.st2{fill:url(#SVGID_2_);}
		.st3{fill:url(#SVGID_3_);}
		.st4{fill:url(#SVGID_4_);}
	</style>
	
	<radialGradient id="SVGID_1_" cx="3.9232" cy="8.8229" r="7.1875" gradientUnits="userSpaceOnUse">
		<stop offset="0.1" style="stop-color:#F1F2FA"/>
		<stop offset="0.25" style="stop-color:#D6DCEF"/>
		<stop offset="1" style="stop-color:#000000"/>
	</radialGradient>
	
	<path class="st0" d="M6,16.5c-3,0-5.5-2.5-5.5-5.5C0.5,8,3,5.5,6,5.5c3,0,5.5,2.5,5.5,5.5C11.5,14,9,16.5,6,16.5z"/>
	<path class="st1" d="M6,6c2.8,0,5,2.2,5,5s-2.2,5-5,5s-5-2.2-5-5S3.2,6,6,6 M6,5c-3.3,0-6,2.7-6,6s2.7,6,6,6s6-2.7,6-6S9.3,5,6,5L6,5z"/>
	
	<linearGradient id="SVGID_2_" gradientUnits="userSpaceOnUse" x1="10.0529" y1="6.7454" x2="10.8622" y2="7.5547" gradientTransform="matrix(1 0 0 1 0.7375 -1.8044)">
		<stop offset="9.984057e-02" style="stop-color:#F1F2FA"/>
		<stop offset="0.25" style="stop-color:#D6DCEF"/>
		<stop offset="1" style="stop-color:#000000"/>
	</linearGradient>
	
	<polygon class="st2" points="8.9,6.3 12.1,3.1 13.9,4.8 10.7,8 	"/>
	<path class="st1" d="M12.1,3.4l1.4,1.4l-2.8,2.8L9.3,6.3L12.1,3.4 M12.1,2.7l-0.4,0.4L8.9,5.9L8.6,6.3l0.4,0.4L10.3,8l0.4,0.4L11,8l2.8-2.8l0.4-0.4l-0.4-0.4l-1.4-1.4L12.1,2.7L12.1,2.7z"/>
	
	<linearGradient id="SVGID_3_" gradientUnits="userSpaceOnUse" x1="5.5148" y1="-11.1376" x2="6.2015" y2="-10.4509" gradientTransform="matrix(0.7071 0.7071 -0.7071 0.7071 1.7397 6.6749)">
		<stop offset="9.984057e-02" style="stop-color:#F1F2FA"/>
		<stop offset="0.25" style="stop-color:#D6DCEF"/>
		<stop offset="1" style="stop-color:#000000"/>
	</linearGradient>
	
	<polygon class="st3" points="13.2,4.5 12.5,3.8 13.9,2.4 14.6,3.1 "/>
	
	<radialGradient id="SVGID_4_" cx="6.5263" cy="-2.9708" r="1" gradientTransform="matrix(1.0607 1.0607 -1.0607 1.0607 5.1213 -2.0282)" gradientUnits="userSpaceOnUse">
		<stop offset="0.5571" style="stop-color:#F1F2FA"/>
		<stop offset="0.75" style="stop-color:#F8F2A6"/>
		<stop offset="1" style="stop-color:#EC625D"/>
	</radialGradient>
	
	<circle class="st4" cx="15.2" cy="1.7" r="1.5"/>
</svg>