<?xml version="1.0" encoding="utf-8"?>
<!DOCTYPE svg PUBLIC "-//W3C//DTD SVG 1.1//EN" "http://www.w3.org/Graphics/SVG/1.1/DTD/svg11.dtd">
<svg version="1.1" xmlns="http://www.w3.org/2000/svg" xmlns:xlink="http://www.w3.org/1999/xlink" height="24" width="17" xml:space="preserve">
	
	<!-- Copyright 2011–2015 KittMedia Productions -->
	<!-- Licensed under GNU Lesser General Public License, version 2.1 (LGPL-2.1) -->
	
	<style type="text/css">
		.st0{fill:url(#SVGID_1_);}
		.st1{fill:#CDA70C;}
		.st2{fill:#666666;}
		.st3{fill:#655919;}
		.st4{fill:#655B20;}
	</style>
	
	<radialGradient id="SVGID_1_" cx="6.3327" cy="13.7607" r="9.105" gradientUnits="userSpaceOnUse">
		<stop offset="0" style="stop-color:#FFFF98"/>
		<stop offset="1" style="stop-color:#FFD314"/>
	</radialGradient>
	
	<path class="st0" d="M8.5,23.5c-4.4,0-8-3.6-8-8s3.6-8,8-8s8,3.6,8,8S12.9,23.5,8.5,23.5z"/>
	<path class="st1" d="M8.5,8c4.1,0,7.5,3.4,7.5,7.5S12.6,23,8.5,23S1,19.6,1,15.5S4.4,8,8.5,8 M8.5,7C3.8,7,0,10.8,0,15.5C0,20.2,3.8,24,8.5,24s8.5-3.8,8.5-8.5C17,10.8,13.2,7,8.5,7L8.5,7z"/>
	<path class="st2" d="M3.9,0.9l-1,1c-0.2,0.2-0.5,0.2-0.7,0l0,0C2,1.7,2,1.4,2.1,1.2l1-1C3.3,0,3.7,0,3.9,0.2l0,0C4.1,0.4,4.1,0.7,3.9,0.9z"/>
	<path class="st2" d="M4.2,1.9l-1-1C3,0.7,3,0.4,3.1,0.2l0,0C3.3,0,3.7,0,3.9,0.2l1,1c0.2,0.2,0.2,0.5,0,0.7l0,0C4.7,2.1,4.4,2.1,4.2,1.9z"/>
	<path class="st2" d="M3.2,3.2l1-1C4.4,2,4.7,2,4.9,2.2l0,0c0.2,0.2,0.2,0.5,0,0.7l-1,1c-0.2,0.2-0.5,0.2-0.7,0l0,0C3,3.7,3,3.4,3.2,3.2z"/>
	<path class="st2" d="M3.1,5.2L3.1,5.2C3.3,5,3.7,5,3.9,5.2v0c0.2,0.2,0.2,0.5,0,0.7l0,0c-0.2,0.2-0.5,0.2-0.7,0l0,0C3,5.7,3,5.4,3.1,5.2z"/>
	<path class="st2" d="M4,2.5v-1C4,1.2,4.2,1,4.5,1l0,0C4.8,1,5,1.2,5,1.5v1C5,2.8,4.8,3,4.5,3l0,0C4.2,3,4,2.8,4,2.5z"/>
	<path class="st2" d="M8.9,0.9l-1,1c-0.2,0.2-0.5,0.2-0.7,0l0,0C7,1.7,7,1.4,7.2,1.2l1-1C8.4,0,8.7,0,8.9,0.2l0,0C9.1,0.4,9.1,0.7,8.9,0.9z"/>
	<path class="st2" d="M9.2,1.9l-1-1C8,0.7,8,0.4,8.2,0.2l0,0C8.3,0,8.7,0,8.9,0.2l1,1c0.2,0.2,0.2,0.5,0,0.7l0,0C9.7,2.1,9.4,2.1,9.2,1.9z"/>
	<path class="st2" d="M8.2,3.2l1-1C9.4,2,9.7,2,9.9,2.2l0,0c0.2,0.2,0.2,0.5,0,0.7l-1,1c-0.2,0.2-0.5,0.2-0.7,0l0,0C8,3.7,8,3.4,8.2,3.2z"/>
	<path class="st2" d="M8.2,5.2L8.2,5.2C8.3,5,8.7,5,8.9,5.2v0c0.2,0.2,0.2,0.5,0,0.7l0,0c-0.2,0.2-0.5,0.2-0.7,0l0,0C8,5.7,8,5.4,8.2,5.2z"/>
	<path class="st2" d="M9,2.5v-1C9,1.2,9.2,1,9.5,1l0,0C9.8,1,10,1.2,10,1.5v1C10,2.8,9.8,3,9.5,3l0,0C9.2,3,9,2.8,9,2.5z"/>
	<path class="st2" d="M13.9,0.9l-1,1c-0.2,0.2-0.5,0.2-0.7,0l0,0c-0.2-0.2-0.2-0.5,0-0.7l1-1c0.2-0.2,0.5-0.2,0.7,0l0,0C14.1,0.4,14.1,0.7,13.9,0.9z"/>
	<path class="st2" d="M14.2,1.9l-1-1c-0.2-0.2-0.2-0.5,0-0.7l0,0c0.2-0.2,0.5-0.2,0.7,0l1,1c0.2,0.2,0.2,0.5,0,0.7l0,0C14.7,2.1,14.4,2.1,14.2,1.9z"/>
	<path class="st2" d="M13.2,3.2l1-1c0.2-0.2,0.5-0.2,0.7,0l0,0c0.2,0.2,0.2,0.5,0,0.7l-1,1c-0.2,0.2-0.5,0.2-0.7,0l0,0C13,3.7,13,3.4,13.2,3.2z"/>
	<path class="st2" d="M13.2,5.2L13.2,5.2c0.2-0.2,0.5-0.2,0.7,0v0c0.2,0.2,0.2,0.5,0,0.7l0,0c-0.2,0.2-0.5,0.2-0.7,0l0,0C13,5.7,13,5.4,13.2,5.2z"/>
	<path class="st2" d="M14,2.5v-1C14,1.2,14.2,1,14.5,1l0,0C14.8,1,15,1.2,15,1.5v1C15,2.8,14.8,3,14.5,3l0,0C14.2,3,14,2.8,14,2.5z"/>
	<rect x="4.8" y="11" class="st3" width="2.5" height="1"/>
	<rect x="6" y="13" class="st3" width="2" height="2"/>
	<rect x="9" y="13" class="st3" width="2" height="2"/>
	<path class="st3" d="M13.5,13c0-1.4-1.1-2.5-2.5-2.5v1c0.8,0,1.5,0.7,1.5,1.5H13.5z"/>
	<path class="st4" d="M6,20c0-1.1,1.1-2,2.5-2v1C7.7,19,7,19.5,7,20H6z"/>
	<path class="st4" d="M11,20c0-1.1-1.1-2-2.5-2v1c0.8,0,1.5,0.4,1.5,1H11z"/>
</svg>