<?xml version="1.0" encoding="iso-8859-1"?>
<!DOCTYPE svg PUBLIC "-//W3C//DTD SVG 1.1//EN" "http://www.w3.org/Graphics/SVG/1.1/DTD/svg11.dtd">
<svg version="1.1" xmlns="http://www.w3.org/2000/svg" xmlns:xlink="http://www.w3.org/1999/xlink" height="24" width="17" xml:space="preserve">
	
	<!-- Copyright 2011–2015 KittMedia Productions -->
	<!-- Licensed under GNU Lesser General Public License, version 2.1 (LGPL-2.1) -->
	
	<radialGradient id="SVGID_1_" cx="6.3327" cy="13.7607" r="9.105" gradientUnits="userSpaceOnUse">
		<stop offset="0" style="stop-color:#FFFF98"/>
		<stop offset="1" style="stop-color:#FFD314"/>
	</radialGradient>
	
	<path style="fill:url(#SVGID_1_);" d="M8.5,23.505c-4.411,0-8-3.589-8-8s3.589-8,8-8s8,3.589,8,8S12.911,23.505,8.5,23.505z"/>
	<path style="fill:#CDA70C;" d="M8.5,8.005c4.136,0,7.5,3.364,7.5,7.5s-3.364,7.5-7.5,7.5S1,19.64,1,15.505S4.364,8.005,8.5,8.005M8.5,7.005c-4.694,0-8.5,3.806-8.5,8.5c0,4.694,3.806,8.5,8.5,8.5s8.5-3.806,8.5-8.5C17,10.81,13.194,7.005,8.5,7.005L8.5,7.005z"/>
	<path style="fill:#666666;" d="M3.86,0.864L2.853,1.87c-0.195,0.195-0.512,0.195-0.707,0l0,0c-0.195-0.195-0.195-0.512,0-0.707l1.007-1.007c0.195-0.195,0.512-0.195,0.707,0l0,0C4.056,0.352,4.056,0.668,3.86,0.864z"/>
	<path style="fill:#666666;" d="M4.156,1.87L3.15,0.864c-0.195-0.195-0.195-0.512,0-0.707l0,0c0.195-0.195,0.512-0.195,0.707,0l1.007,1.007c0.195,0.195,0.195,0.512,0,0.707l0,0C4.668,2.066,4.352,2.066,4.156,1.87z"/>
	<path style="fill:#666666;" d="M3.155,3.17l1.007-1.007c0.195-0.195,0.512-0.195,0.707,0l0,0c0.195,0.195,0.195,0.512,0,0.707L3.862,3.877c-0.195,0.195-0.512,0.195-0.707,0l0,0C2.96,3.682,2.96,3.365,3.155,3.17z"/>
	<path style="fill:#666666;" d="M3.15,5.165L3.15,5.165c0.195-0.195,0.512-0.195,0.707,0v0c0.195,0.195,0.195,0.512,0,0.707l0,0c-0.195,0.195-0.512,0.195-0.707,0l0,0C2.954,5.677,2.954,5.361,3.15,5.165z"/>
	<path style="fill:#666666;" d="M4.007,2.481V1.513c0-0.276,0.224-0.5,0.5-0.5l0,0c0.276,0,0.5,0.224,0.5,0.5v0.968c0,0.276-0.224,0.5-0.5,0.5l0,0C4.231,2.981,4.007,2.757,4.007,2.481z"/>
	<path style="fill:#666666;" d="M8.865,0.864L7.858,1.87c-0.195,0.195-0.512,0.195-0.707,0l0,0c-0.195-0.195-0.195-0.512,0-0.707l1.007-1.007c0.195-0.195,0.512-0.195,0.707,0l0,0C9.06,0.352,9.06,0.668,8.865,0.864z"/>
	<path style="fill:#666666;" d="M9.161,1.87L8.154,0.864c-0.195-0.195-0.195-0.512,0-0.707l0,0c0.195-0.195,0.512-0.195,0.707,0l1.007,1.007c0.195,0.195,0.195,0.512,0,0.707l0,0C9.673,2.066,9.356,2.066,9.161,1.87z"/>
	<path style="fill:#666666;" d="M8.159,3.17l1.007-1.007c0.195-0.195,0.512-0.195,0.707,0l0,0c0.195,0.195,0.195,0.512,0,0.707L8.867,3.877c-0.195,0.195-0.512,0.195-0.707,0l0,0C7.964,3.682,7.964,3.365,8.159,3.17z"/>
	<path style="fill:#666666;" d="M8.154,5.165L8.154,5.165c0.195-0.195,0.512-0.195,0.707,0v0c0.195,0.195,0.195,0.512,0,0.707l0,0c-0.195,0.195-0.512,0.195-0.707,0l0,0C7.959,5.677,7.959,5.361,8.154,5.165z"/>
	<path style="fill:#666666;" d="M9.011,2.481V1.513c0-0.276,0.224-0.5,0.5-0.5l0,0c0.276,0,0.5,0.224,0.5,0.5v0.968c0,0.276-0.224,0.5-0.5,0.5l0,0C9.235,2.981,9.011,2.757,9.011,2.481z"/>
	<path style="fill:#666666;" d="M13.865,0.864L12.858,1.87c-0.195,0.195-0.512,0.195-0.707,0l0,0c-0.195-0.195-0.195-0.512,0-0.707l1.007-1.007c0.195-0.195,0.512-0.195,0.707,0l0,0C14.06,0.352,14.06,0.668,13.865,0.864z"/>
	<path style="fill:#666666;" d="M14.161,1.87l-1.007-1.007c-0.195-0.195-0.195-0.512,0-0.707l0,0c0.195-0.195,0.512-0.195,0.707,0l1.007,1.007c0.195,0.195,0.195,0.512,0,0.707l0,0C14.673,2.066,14.356,2.066,14.161,1.87z"/>
	<path style="fill:#666666;" d="M13.159,3.17l1.007-1.007c0.195-0.195,0.512-0.195,0.707,0l0,0c0.195,0.195,0.195,0.512,0,0.707l-1.007,1.007c-0.195,0.195-0.512,0.195-0.707,0l0,0C12.964,3.682,12.964,3.365,13.159,3.17z"/>
	<path style="fill:#666666;" d="M13.154,5.165L13.154,5.165c0.195-0.195,0.512-0.195,0.707,0v0c0.195,0.195,0.195,0.512,0,0.707l0,0c-0.195,0.195-0.512,0.195-0.707,0l0,0C12.959,5.677,12.959,5.361,13.154,5.165z"/>
	<path style="fill:#666666;" d="M14.011,2.481V1.513c0-0.276,0.224-0.5,0.5-0.5l0,0c0.276,0,0.5,0.224,0.5,0.5v0.968c0,0.276-0.224,0.5-0.5,0.5l0,0C14.235,2.981,14.011,2.757,14.011,2.481z"/>
	<path style="fill:none;stroke:#655919;stroke-miterlimit:10;" d="M12.5,12.005c0-0.829-1.118-1.5-2.5-1.5"/>
	<rect x="4.75" y="11.005" style="fill:#655919;" width="2.5" height="1"/>
	<rect x="5.25" y="13.005" style="fill:#655919;" width="2" height="2"/>
	<rect x="9" y="13.005" style="fill:#655919;" width="2" height="2"/>
	<path style="fill:none;stroke:#655B20;stroke-miterlimit:10;" d="M6.5,20.5c0-0.827,0.895-1.496,2-1.496"/>
	<path style="fill:none;stroke:#655B20;stroke-miterlimit:10;" d="M10.5,20.5c0-0.827-0.895-1.496-2-1.496"/>
</svg>