<?xml version="1.0" encoding="utf-8"?>
<!DOCTYPE svg PUBLIC "-//W3C//DTD SVG 1.1//EN" "http://www.w3.org/Graphics/SVG/1.1/DTD/svg11.dtd">
<svg version="1.1" xmlns="http://www.w3.org/2000/svg" xmlns:xlink="http://www.w3.org/1999/xlink" height="17" width="17" xml:space="preserve">
	
	<!-- Copyright 2011–2015 KittMedia Productions -->
	<!-- Licensed under GNU Lesser General Public License, version 2.1 (LGPL-2.1) -->
	
	<style type="text/css">
		.st0{fill:url(#SVGID_1_);}
		.st1{fill:#CDA70C;}
		.st2{fill:#655919;}
		.st3{fill:#4C4926;}
		.st4{fill:#FFFFFF;}
	</style>
	
	<radialGradient id="SVGID_1_" cx="6.3327" cy="6.756" r="9.105" gradientUnits="userSpaceOnUse">
		<stop offset="0" style="stop-color:#FFFF98"/>
		<stop offset="1" style="stop-color:#FFD314"/>
	</radialGradient>
	
	<path class="st0" d="M8.5,16.5c-4.4,0-8-3.6-8-8s3.6-8,8-8s8,3.6,8,8S12.9,16.5,8.5,16.5z"/>
	<path class="st1" d="M8.5,1C12.6,1,16,4.4,16,8.5S12.6,16,8.5,16S1,12.6,1,8.5S4.4,1,8.5,1 M8.5,0C3.8,0,0,3.8,0,8.5C0,13.2,3.8,17,8.5,17S17,13.2,17,8.5C17,3.8,13.2,0,8.5,0L8.5,0z"/>
	<path class="st2" d="M8,12.8c2.8,0,5-1.2,5-2.8h1c0,2.1-2.7,3.8-6,3.8V12.8z"/>
	<polygon class="st3" points="4,5 4,9 7.5,9 8,8 8,5 "/>
	<polygon class="st3" points="13,5 13,9 10.5,9 9,8 9,5 "/>
	<rect x="2" y="6" class="st3" width="13" height="1"/>
	<circle class="st4" cx="10.8" cy="6.5" r="0.8"/>
	<circle class="st4" cx="6.2" cy="6.5" r="0.8"/>
</svg>