<?xml version="1.0" encoding="utf-8"?>
<!DOCTYPE svg PUBLIC "-//W3C//DTD SVG 1.1//EN" "http://www.w3.org/Graphics/SVG/1.1/DTD/svg11.dtd">
<svg version="1.1" xmlns="http://www.w3.org/2000/svg" xmlns:xlink="http://www.w3.org/1999/xlink" height="17" width="17" xml:space="preserve">
	
	<!-- Copyright 2011–2015 KittMedia Productions -->
	<!-- Licensed under GNU Lesser General Public License, version 2.1 (LGPL-2.1) -->
	
	<style type="text/css">
		.st0{fill:url(#SVGID_1_);}
		.st1{fill:#CDA70C;}
		.st2{fill:url(#SVGID_2_);}
		.st3{fill:#655919;}
		.st4{fill:url(#SVGID_3_);}
	</style>
	
	<radialGradient id="SVGID_1_" cx="6.3327" cy="6.756" r="9.105" gradientUnits="userSpaceOnUse">
		<stop offset="0" style="stop-color:#FFFF98"/>
		<stop offset="1" style="stop-color:#FFD314"/>
	</radialGradient>
	
	<path class="st0" d="M8.5,16.5c-4.4,0-8-3.6-8-8s3.6-8,8-8s8,3.6,8,8S12.9,16.5,8.5,16.5z"/>
	<path class="st1" d="M8.5,1C12.6,1,16,4.4,16,8.5S12.6,16,8.5,16S1,12.6,1,8.5S4.4,1,8.5,1 M8.5,0C3.8,0,0,3.8,0,8.5C0,13.2,3.8,17,8.5,17S17,13.2,17,8.5C17,3.8,13.2,0,8.5,0L8.5,0z"/>
	
	<linearGradient id="SVGID_2_" gradientUnits="userSpaceOnUse" x1="6.1325" y1="9.4176" x2="6.1325" y2="2.5367">
		<stop offset="0.2" style="stop-color:#48D2F6"/>
		<stop offset="0.6" style="stop-color:#FFFFFF"/>
	</linearGradient>
	
	<polygon class="st2" points="6.9,2.5 3.7,5.7 3.7,8.2 4.9,9.4 7.4,9.4 8.6,8.3 8.6,2.5 "/>
	<rect x="4.6" y="8.9" class="st3" width="3" height="1"/>
	<rect x="3.2" y="8.4" transform="matrix(0.7071 0.7071 -0.7071 0.7071 7.5241 -0.3879)" class="st3" width="2" height="1"/>
	<rect x="6.9" y="8.4" transform="matrix(-0.7071 0.7071 -0.7071 -0.7071 19.8384 9.5596)" class="st3" width="2" height="1"/>
	<rect x="3.2" y="5.5" class="st3" width="1" height="3"/>
	<rect x="2.8" y="3.6" transform="matrix(0.7071 -0.7071 0.7071 0.7071 -1.3645 4.9483)" class="st3" width="5" height="1"/>
	<rect x="8" y="2.5" class="st3" width="1" height="6"/>
	<rect x="6.7" y="2" class="st3" width="2.3" height="1"/>
	
	<linearGradient id="SVGID_3_" gradientUnits="userSpaceOnUse" x1="-16.2067" y1="9.4176" x2="-16.2067" y2="2.5367" gradientTransform="matrix(-1 0 0 1 -5.3392 0)">
		<stop offset="0.2" style="stop-color:#48D2F6"/>
		<stop offset="0.6" style="stop-color:#FFFFFF"/>
	</linearGradient>
	
	<polygon class="st4" points="10.1,2.5 13.3,5.7 13.3,8.2 12.1,9.4 9.6,9.4 8.4,8.3 8.4,2.5 "/>
	<rect x="9.4" y="8.9" class="st3" width="3" height="1"/>
	<rect x="11.8" y="8.4" transform="matrix(-0.7071 0.7071 -0.7071 -0.7071 28.0844 6.1438)" class="st3" width="2" height="1"/>
	<rect x="8.1" y="8.4" transform="matrix(0.7071 0.7071 -0.7071 0.7071 8.939 -3.8035)" class="st3" width="2" height="1"/>
	<rect x="12.8" y="5.5" class="st3" width="1" height="3"/>
	<rect x="9.2" y="3.6" transform="matrix(-0.7071 -0.7071 0.7071 -0.7071 17.0744 15.3151)" class="st3" width="5" height="1"/>
	<rect x="8" y="2.5" class="st3" width="1" height="6"/>
	<rect x="8" y="2" class="st3" width="2.3" height="1"/>
	<rect x="6.2" y="5.2" class="st3" width="4.5" height="2.5"/>
	<path class="st3" d="M8.5,14C7.1,14,6,13.1,6,12H5.5C5.2,12,5,12.2,5,12.5H4C4,11.7,4.7,11,5.5,11S7,11.4,7,12s0.7,1,1.5,1s1.5-0.4,1.5-1s0.7-1,1.5-1s1.5,0.7,1.5,1.5h-1c0-0.3-0.2-0.5-0.5-0.5H11C11,13.1,9.9,14,8.5,14z"/>
</svg>