<?xml version="1.0" encoding="utf-8"?>
<!DOCTYPE svg PUBLIC "-//W3C//DTD SVG 1.1//EN" "http://www.w3.org/Graphics/SVG/1.1/DTD/svg11.dtd">
<svg version="1.1" xmlns="http://www.w3.org/2000/svg" xmlns:xlink="http://www.w3.org/1999/xlink" height="17" width="17" xml:space="preserve">
	
	<!-- Copyright 2011–2015 KittMedia Productions -->
	<!-- Licensed under GNU Lesser General Public License, version 2.1 (LGPL-2.1) -->
	
	<style type="text/css">
		.st0{fill:url(#SVGID_1_);}
		.st1{fill:#CDA70C;}
		.st2{fill:#48D2F6;}
		.st3{fill:none;stroke:#655919;stroke-width:0.5;stroke-miterlimit:10;}
		.st4{fill:#FFFFFF;}
		.st5{fill:#655919;}
		.st6{fill:#655B20;}
		.st7{fill:none;stroke:#655919;stroke-miterlimit:10;}
	</style>
	
	<radialGradient id="SVGID_1_" cx="6.3327" cy="6.756" r="9.105" gradientUnits="userSpaceOnUse">
		<stop offset="0" style="stop-color:#FFFF98"/>
		<stop offset="1" style="stop-color:#FFD314"/>
	</radialGradient>
	
	<path class="st0" d="M8.5,16.5c-4.4,0-8-3.6-8-8s3.6-8,8-8s8,3.6,8,8S12.9,16.5,8.5,16.5z"/>
	<path class="st1" d="M8.5,1C12.6,1,16,4.4,16,8.5S12.6,16,8.5,16S1,12.6,1,8.5S4.4,1,8.5,1 M8.5,0C3.8,0,0,3.8,0,8.5C0,13.2,3.8,17,8.5,17S17,13.2,17,8.5C17,3.8,13.2,0,8.5,0L8.5,0z"/>
	<rect x="10.9" y="6" class="st2" width="1.5" height="2.5"/>
	<rect x="10.3" y="4.4" transform="matrix(0.7071 -0.7071 0.7071 0.7071 -0.7833 9.4375)" class="st2" width="1.5" height="2.5"/>
	<path class="st3" d="M13.5,4.5c0-1.1-1.3-2-3-2"/>
	<path class="st3" d="M3.5,4.5c0-1.1,1.3-2,3-2"/>
	<rect x="4.6" y="6" class="st2" width="1.5" height="2.5"/>
	<rect x="5.2" y="4.4" transform="matrix(-0.7071 -0.7071 0.7071 -0.7071 6.2374 13.9121)" class="st2" width="1.5" height="2.5"/>
	<polygon class="st4" points="8.5,8 14.1,8 14.1,11 12.5,13.4 8.5,14.5 4.7,13.5 2.9,10.5 2.9,8 "/>
	<path class="st5" d="M8,15c-3.3,0-6-2.7-6-6h1c0,2.8,2.2,5,5,5V15z"/>
	<path class="st5" d="M9,15c3.3,0,6-2.7,6-6h-1c0,2.8-2.2,5-5,5V15z"/>
	<rect x="6" y="8" class="st6" width="1" height="6"/>
	<rect x="10" y="8" class="st6" width="1" height="6"/>
	<rect x="2" y="8" class="st5" width="13" height="1"/>
	<path class="st7" d="M2,9"/>
	<rect x="8" y="14" class="st5" width="1" height="1"/>
	<path class="st6" d="M4,6c0-1.1,0.9-2,2-2v1C5.4,5,5,5.4,5,6H4z"/>
	<path class="st6" d="M8,6c0-1.1-0.9-2-2-2v1c0.6,0,1,0.4,1,1H8z"/>
	<path class="st6" d="M9,6c0-1.1,0.9-2,2-2v1c-0.6,0-1,0.4-1,1H9z"/>
	<path class="st6" d="M13,6c0-1.1-0.9-2-2-2v1c0.6,0,1,0.4,1,1H13z"/>
</svg>