<?xml version="1.0" encoding="utf-8"?>
<!DOCTYPE svg PUBLIC "-//W3C//DTD SVG 1.1//EN" "http://www.w3.org/Graphics/SVG/1.1/DTD/svg11.dtd">
<svg version="1.1" xmlns="http://www.w3.org/2000/svg" xmlns:xlink="http://www.w3.org/1999/xlink" height="17" width="17" xml:space="preserve">
	
	<!-- Copyright 2011–2015 KittMedia Productions -->
	<!-- Licensed under GNU Lesser General Public License, version 2.1 (LGPL-2.1) -->
	
	<style type="text/css">
		.st0{fill:url(#SVGID_1_);}
		.st1{fill:#9F2E0C;}
		.st2{fill:#FFFFFF;}
		.st3{fill:#531707;}
	</style>
	
	<radialGradient id="SVGID_1_" cx="8.5" cy="8.5" r="8" gradientUnits="userSpaceOnUse">
		<stop offset="0" style="stop-color:#F84116"/>
		<stop offset="1" style="stop-color:#BE360E"/>
	</radialGradient>
	
	<path class="st0" d="M8.5,16.5c-4.4,0-8-3.6-8-8s3.6-8,8-8s8,3.6,8,8S12.9,16.5,8.5,16.5z"/>
	<path class="st1" d="M8.5,1C12.6,1,16,4.4,16,8.5S12.6,16,8.5,16S1,12.6,1,8.5S4.4,1,8.5,1 M8.5,0C3.8,0,0,3.8,0,8.5C0,13.2,3.8,17,8.5,17S17,13.2,17,8.5C17,3.8,13.2,0,8.5,0L8.5,0z"/>
	<polygon class="st2" points="3.5,3.4 3.5,6.8 4.5,7.9 5.5,7.9 5.5,5.3 6.5,5.3 6.5,3.4 "/>
	<polygon class="st2" points="8.6,1.2 6.4,3.4 6.4,6.8 8.4,6.8 8.4,7.9 11.5,7.9 11.5,6.4 12.6,5.3 12.6,2.5 12,2.5 10.7,1.2 "/>
	<rect x="3" y="2.9" class="st3" width="1" height="4"/>
	<rect x="6" y="2.9" class="st3" width="1" height="4"/>
	<rect x="3" y="2.9" class="st3" width="4" height="1"/>
	<rect x="5" y="5" class="st3" width="1" height="3"/>
	<rect x="3.1" y="6.8" transform="matrix(0.7071 0.7071 -0.7071 0.7071 6.3164 -0.7476)" class="st3" width="2" height="1"/>
	<rect x="4.4" y="7.3" class="st3" width="1.6" height="1"/>
	<rect x="6" y="6.3" class="st3" width="3" height="1"/>
	<rect x="8" y="5.3" class="st3" width="1" height="3"/>
	<rect x="7" y="7.3" class="st3" width="5" height="1"/>
	<rect x="11" y="6.3" class="st3" width="1" height="2"/>
	<rect x="8.5" y="0.7" class="st3" width="2.5" height="1"/>
	<rect x="5.4" y="2" transform="matrix(0.7071 -0.7071 0.7071 0.7071 0.4218 5.9838)" class="st3" width="4" height="1"/>
	<rect x="10.3" y="1.3" transform="matrix(0.7071 0.7071 -0.7071 0.7071 4.5791 -7.5035)" class="st3" width="2" height="1"/>
	<rect x="11.1" y="5.5" transform="matrix(-0.7071 0.7071 -0.7071 -0.7071 24.8032 1.6461)" class="st3" width="2" height="1"/>
	<rect x="12.1" y="2.6" class="st3" width="1" height="3"/>
	<rect x="11.7" y="1.8" class="st3" width="1.4" height="1"/>
	<polygon class="st2" points="4.5,11.3 4.5,13.3 8.1,13.3 9.1,14.5 10.5,14.5 12.1,12.6 12.1,10.4 11.2,9.5 8.7,9.5 6.9,11.3 "/>
	<rect x="4" y="10.8" class="st3" width="1" height="3"/>
	<rect x="4" y="10.8" class="st3" width="3" height="1"/>
	<rect x="4" y="12.8" class="st3" width="4.2" height="1"/>
	<rect x="6.2" y="9.9" transform="matrix(0.7071 -0.7071 0.7071 0.7071 -5.1082 8.5021)" class="st3" width="3" height="1"/>
	<rect x="8.4" y="9" class="st3" width="3" height="1"/>
	<rect x="7.6" y="13.4" transform="matrix(0.7071 0.7071 -0.7071 0.7071 12.342 -2.012)" class="st3" width="2" height="1"/>
	<rect x="9.7" y="13" transform="matrix(-0.7071 0.7071 -0.7071 -0.7071 28.6258 15.2199)" class="st3" width="3" height="1"/>
	<rect x="9" y="14" class="st3" width="1.5" height="1"/>
	<rect x="11.6" y="10.2" class="st3" width="1" height="2.7"/>
	<rect x="10.8" y="9.4" transform="matrix(0.7071 0.7071 -0.7071 0.7071 10.4339 -5.3214)" class="st3" width="1.6" height="1"/>
</svg>