<?xml version="1.0" encoding="utf-8"?>
<!DOCTYPE svg PUBLIC "-//W3C//DTD SVG 1.1//EN" "http://www.w3.org/Graphics/SVG/1.1/DTD/svg11.dtd">
<svg version="1.1" xmlns="http://www.w3.org/2000/svg" xmlns:xlink="http://www.w3.org/1999/xlink" height="17" width="17" xml:space="preserve">
	
	<!-- Copyright 2011–2015 KittMedia Productions -->
	<!-- Licensed under GNU Lesser General Public License, version 2.1 (LGPL-2.1) -->
	
	<style type="text/css">
		.st0{fill:url(#SVGID_1_);}
		.st1{fill:#CDA70C;}
		.st2{fill:#FFFFFF;stroke:#655B20;stroke-miterlimit:10;}
		.st3{fill:#424242;}
		.st4{fill:#655B20;}
	</style>
	
	<radialGradient id="SVGID_1_" cx="6.3327" cy="6.756" r="9.105" gradientUnits="userSpaceOnUse">
		<stop offset="0" style="stop-color:#FFFF98"/>
		<stop offset="1" style="stop-color:#FFD314"/>
	</radialGradient>
	
	<path class="st0" d="M8.5,16.5c-4.4,0-8-3.6-8-8s3.6-8,8-8s8,3.6,8,8S12.9,16.5,8.5,16.5z"/>
	<path class="st1" d="M8.5,1C12.6,1,16,4.4,16,8.5S12.6,16,8.5,16S1,12.6,1,8.5S4.4,1,8.5,1 M8.5,0C3.8,0,0,3.8,0,8.5C0,13.2,3.8,17,8.5,17S17,13.2,17,8.5C17,3.8,13.2,0,8.5,0L8.5,0z"/>
	<circle class="st2" cx="5" cy="7" r="2.5"/>
	<circle class="st2" cx="10" cy="7" r="2.5"/>
	<circle class="st2" cx="5.5" cy="6" r="0.5"/>
	<circle class="st2" cx="10.5" cy="6" r="0.5"/>
	<polygon class="st3" points="5.5,15.5 5.5,13.5 4.5,13.5 4.5,11.5 11.5,11.5 11.5,10.5 13.5,10.5 13.5,14.5 11.5,14.5 11.5,13.5 9.5,13.5 9.5,14.5 8.5,14.5 8.5,15.5 	"/>
	<path class="st4" d="M13,11v0.5v1V14h-1v-1H9v1H8v1H6v-1v-0.5V13H5v-1h7v-1H13 M14,10h-1h-1h-1v1H5H4v1v1v1h1v1v1h1h2h1v-1h1v-1h1v1h1h1h1v-1v-1.5v-1V11V10L14,10z"/>
</svg>