<?xml version="1.0" encoding="iso-8859-1"?>
<!DOCTYPE svg PUBLIC "-//W3C//DTD SVG 1.1//EN" "http://www.w3.org/Graphics/SVG/1.1/DTD/svg11.dtd">
<svg version="1.1" xmlns="http://www.w3.org/2000/svg" xmlns:xlink="http://www.w3.org/1999/xlink" height="18" width="17" xml:space="preserve">
	
	<!-- Copyright 2011–2015 KittMedia Productions -->
	<!-- Licensed under GNU Lesser General Public License, version 2.1 (LGPL-2.1) -->
	
	<radialGradient id="SVGID_1_" cx="6.3327" cy="6.756" r="9.105" gradientUnits="userSpaceOnUse">
		<stop offset="0" style="stop-color:#FFFF98"/>
		<stop offset="1" style="stop-color:#FFD314"/>
	</radialGradient>
	
	<path style="fill:url(#SVGID_1_);" d="M8.5,16.5c-4.411,0-8-3.589-8-8s3.589-8,8-8s8,3.589,8,8S12.911,16.5,8.5,16.5z"/>
	<path style="fill:#CDA70C;" d="M8.5,1C12.636,1,16,4.364,16,8.5S12.636,16,8.5,16S1,12.636,1,8.5S4.364,1,8.5,1 M8.5,0C3.806,0,0,3.806,0,8.5C0,13.194,3.806,17,8.5,17S17,13.194,17,8.5C17,3.806,13.194,0,8.5,0L8.5,0z"/>
	<rect x="9" y="5" style="fill:#655B20;" width="3" height="1"/>
	<rect x="4.5" y="5" style="fill:#655B20;" width="3" height="1"/>
	<path style="fill:none;stroke:#655919;stroke-miterlimit:10;" d="M5.5,13c0-1.106,0.895-2,2-2"/>
	<path style="fill:none;stroke:#655919;stroke-miterlimit:10;" d="M11.5,13c0-1.106-0.894-2-2-2"/>
	<rect x="7.5" y="10.5" style="fill:#655B20;" width="2" height="1"/>
	<path style="fill:#FFFFFF;stroke:#4C4926;stroke-miterlimit:10;" d="M11.14,7.294C9.707,5.861,7.385,5.861,5.953,7.292L5.159,8.086C4.837,7.558,4.282,7.187,3.619,7.187c-1.013,0-1.834,0.821-1.833,1.833l0.001,3.394c-0.001,0.043-0.001,0.085,0,0.128l0,0.146c0,0.047,0.023,0.086,0.027,0.131c0.013,0.09,0.031,0.179,0.054,0.268c0.043,0.188,0.107,0.36,0.203,0.522c0.112,0.214,0.247,0.419,0.427,0.599l1.729,1.729c0.955,0.955,2.503,0.956,3.458,0.001l3.457-3.457C12.573,11.049,12.573,8.727,11.14,7.294z"/>
	<line style="fill:#4C4926;stroke:#4C4926;stroke-width:0.75;stroke-linecap:round;stroke-miterlimit:10;" x1="9.646" y1="6.388" x2="6.25" y2="9.784"/>
	<line style="fill:#4C4926;stroke:#4C4926;stroke-width:0.75;stroke-linecap:round;stroke-miterlimit:10;" x1="11.21" y1="7.365" x2="7.675" y2="10.9"/>
	<line style="fill:#4C4926;stroke:#4C4926;stroke-width:0.75;stroke-linecap:round;stroke-miterlimit:10;" x1="12.127" y1="8.989" x2="8.592" y2="12.524"/>
	<path style="fill:none;stroke:#655919;stroke-miterlimit:10;" d="M8.5,10.5"/>
	<path style="fill:none;stroke:#655919;stroke-miterlimit:10;" d="M13,13.5"/>
</svg>