<?xml version="1.0" encoding="utf-8"?>
<!DOCTYPE svg PUBLIC "-//W3C//DTD SVG 1.1//EN" "http://www.w3.org/Graphics/SVG/1.1/DTD/svg11.dtd">
<svg version="1.1" xmlns="http://www.w3.org/2000/svg" xmlns:xlink="http://www.w3.org/1999/xlink" height="18" width="17" xml:space="preserve">
	
	<!-- Copyright 2011–2015 KittMedia Productions -->
	<!-- Licensed under GNU Lesser General Public License, version 2.1 (LGPL-2.1) -->
	
	<style type="text/css">
		.st0{fill:url(#SVGID_1_);}
		.st1{fill:#CDA70C;}
		.st2{fill:#655B20;}
		.st3{fill:none;stroke:#655919;stroke-miterlimit:10;}
		.st4{fill:#655919;}
		.st5{fill:#FFFFFF;stroke:#4C4926;stroke-miterlimit:10;}
		.st6{fill:#4C4926;}
	</style>
	
	<radialGradient id="SVGID_1_" cx="6.3327" cy="6.756" r="9.105" gradientUnits="userSpaceOnUse">
		<stop offset="0" style="stop-color:#FFFF98"/>
		<stop offset="1" style="stop-color:#FFD314"/>
	</radialGradient>
	
	<path class="st0" d="M8.5,16.5c-4.4,0-8-3.6-8-8s3.6-8,8-8s8,3.6,8,8S12.9,16.5,8.5,16.5z"/>
	<path class="st1" d="M8.5,1C12.6,1,16,4.4,16,8.5S12.6,16,8.5,16S1,12.6,1,8.5S4.4,1,8.5,1 M8.5,0C3.8,0,0,3.8,0,8.5C0,13.2,3.8,17,8.5,17S17,13.2,17,8.5C17,3.8,13.2,0,8.5,0L8.5,0z"/>
	<rect x="9" y="5" class="st2" width="3" height="1"/>
	<path class="st3" d="M13,13.5"/>
	<path class="st4" d="M8.5,10c2.2,0,4,1.3,4,3h-1c0-1.1-1.3-2-3-2V10z"/>
	<path class="st5" d="M9.9,4.6c-1.4-1.4-3.8-1.4-5.2,0L3.9,5.4C3.6,4.8,3,4.5,2.3,4.5c-1,0-1.8,0.8-1.8,1.8c0,0,0,3.5,0,3.5c0,0,0,0.4,0.1,0.5c0,0.2,0.1,0.4,0.2,0.5c0.1,0.2,0.2,0.4,0.4,0.6l1.7,1.7c1,1,2.5,1,3.5,0l3.5-3.5C11.3,8.3,11.3,6,9.9,4.6z"/>
	<rect x="6.1" y="3.3" transform="matrix(0.7071 0.7071 -0.7071 0.7071 5.89 -2.9407)" class="st6" width="0.8" height="4.8"/>
	<rect x="7.6" y="3.9" transform="matrix(0.7071 0.7071 -0.7071 0.7071 7.0176 -3.7185)" class="st6" width="0.8" height="5.5"/>
	<rect x="8.5" y="5.5" transform="matrix(0.7071 0.7071 -0.7071 0.7071 8.4015 -3.8775)" class="st6" width="0.8" height="5.5"/>
</svg>