<?xml version="1.0" encoding="iso-8859-1"?>
<!DOCTYPE svg PUBLIC "-//W3C//DTD SVG 1.1//EN" "http://www.w3.org/Graphics/SVG/1.1/DTD/svg11.dtd">
<svg version="1.1" xmlns="http://www.w3.org/2000/svg" xmlns:xlink="http://www.w3.org/1999/xlink" height="26" width="32" xml:space="preserve">
	
	<!-- Copyright 2011–2015 KittMedia Productions -->
	<!-- Licensed under GNU Lesser General Public License, version 2.1 (LGPL-2.1) -->
	
	<rect x="9" y="8.446" transform="matrix(0.7071 0.7071 -0.7071 0.7071 15.6087 -6.7899)" style="fill:#FFFFFF;stroke:#655B20;stroke-miterlimit:10;" width="14" height="14"/>
	<circle style="fill:#F8232D;" cx="14" cy="18.5" r="0.5"/>
	<circle style="fill:#F8232D;" cx="19.995" cy="18" r="0.5"/>
	<circle style="fill:#F8232D;" cx="17" cy="19" r="0.5"/>
	<circle style="fill:#F8232D;" cx="17" cy="21" r="0.5"/>
	<circle style="fill:#F8232D;" cx="21.995" cy="17" r="0.5"/>
	<circle style="fill:#F8232D;" cx="24" cy="16" r="0.5"/>
	<circle style="fill:#F8232D;" cx="19.99" cy="20" r="0.5"/>
	<circle style="fill:#F8232D;" cx="17" cy="23" r="0.5"/>
	<circle style="fill:#F8232D;" cx="15" cy="22" r="0.5"/>
	<circle style="fill:#F8232D;" cx="12.507" cy="19.497" r="0.5"/>
	
	<radialGradient id="SVGID_1_" cx="13.8327" cy="7.756" r="9.105" gradientUnits="userSpaceOnUse">
		<stop offset="0" style="stop-color:#FFFF98"/>
		<stop offset="1" style="stop-color:#FFD314"/>
	</radialGradient>
	
	<path style="fill:url(#SVGID_1_);" d="M16,17.5c-4.411,0-8-3.589-8-8s3.589-8,8-8s8,3.589,8,8S20.411,17.5,16,17.5z"/>
	<path style="fill:#CDA70C;" d="M16,2c4.136,0,7.5,3.364,7.5,7.5S20.136,17,16,17s-7.5-3.364-7.5-7.5S11.864,2,16,2 M16,1c-4.694,0-8.5,3.806-8.5,8.5c0,4.694,3.806,8.5,8.5,8.5s8.5-3.806,8.5-8.5C24.5,4.806,20.694,1,16,1L16,1z"/>
	<rect x="27.5" y="9" style="fill:#CECDCD;stroke:#8A8A8A;stroke-miterlimit:10;" width="2" height="13"/>
	<path style="fill:#CECDCD;stroke:#8A8A8A;stroke-miterlimit:10;" d="M30,9h-3c-0.828,0-1.5-0.671-1.5-1.5V2h6v5.5C31.5,8.328,30.828,9,30,9z"/>
	<circle style="fill:#F8232D;" cx="10.505" cy="17.5" r="0.5"/>
	<circle style="fill:#F8232D;" cx="9.005" cy="15" r="0.5"/>
	<rect x="26.5" y="12" style="fill:#FFD314;stroke:#655B20;stroke-miterlimit:10;" width="4" height="4"/>
	<rect x="3.5" y="1.5" style="fill:#CECDCD;" width="3" height="9"/>
	<path style="fill:#8A8A8A;" d="M6,2v8H4V2H6 M7,1H6H4H3v1v8v1h1h2h1v-1V2V1L7,1z"/>
	<rect x="2.729" y="0.5" style="fill:#CECDCD;stroke:#8A8A8A;stroke-miterlimit:10;" width="2" height="21"/>
	<rect x="4" y="2" style="fill:#B0B0B0;" width="2" height="8"/>
	<rect x="2" y="12" style="fill:#FFD314;stroke:#655B20;stroke-miterlimit:10;" width="4" height="4"/>
	<rect x="27" y="1.5" style="fill:#8A8A8A;" width="1" height="4"/>
	<rect x="29" y="1.5" style="fill:#8A8A8A;" width="1" height="4"/>
	<rect x="26" y="0.5" style="fill:#8A8A8A;" width="1" height="1"/>
	<rect x="28" y="0.5" style="fill:#8A8A8A;" width="1" height="1"/>
	<rect x="30" y="0.5" style="fill:#8A8A8A;" width="1" height="1"/>
	<rect x="26" y="1.5" style="fill:#CECDCD;" width="1" height="1"/>
	<rect x="28" y="1.5" style="fill:#CECDCD;" width="1" height="1"/>
	<rect x="30" y="1.5" style="fill:#CECDCD;" width="1" height="1"/>
	<path style="fill:#B0B0B0;" d="M29.998,8.5h-2.997C26.448,8.5,26,8.052,26,7.499V6.5h5v0.998C31,8.051,30.551,8.5,29.998,8.5z"/>
	<path style="fill:#FFFFFF;" d="M13.84,9.43c-0.112,0-0.225-0.012-0.334-0.035C13,9.288,12.571,8.943,12.297,8.424c-0.29-0.549-0.371-1.221-0.229-1.892C12.329,5.298,14.009,4.5,14.532,4.5c0.333,0.104,1.733,1.517,1.448,2.862C15.727,8.561,14.827,9.43,13.84,9.43z"/>
	<path style="fill:#655B20;" d="M14.43,5.017c0.382,0.294,1.249,1.359,1.062,2.241C15.29,8.211,14.579,8.93,13.839,8.93c-0.077,0-0.154-0.008-0.23-0.024c-0.795-0.169-1.277-1.208-1.052-2.27C12.745,5.747,13.964,5.128,14.43,5.017 M14.532,4c-0.696,0-2.63,0.902-2.954,2.429c-0.344,1.622,0.473,3.169,1.823,3.455c0.146,0.031,0.292,0.046,0.437,0.046c1.198,0,2.324-1.018,2.631-2.465c0.344-1.622-1.276-3.339-1.823-3.455C14.614,4.003,14.575,4,14.532,4L14.532,4z"/>
	<path style="fill:#FFFFFF;" d="M18.178,9.43c-0.986,0-1.887-0.87-2.141-2.068c-0.285-1.345,1.116-2.758,1.446-2.864c0.525,0.002,2.205,0.801,2.467,2.035c0.143,0.67,0.061,1.342-0.229,1.892c-0.273,0.519-0.703,0.864-1.208,0.971C18.401,9.418,18.289,9.43,18.178,9.43z"/>
	<path style="fill:#655B20;" d="M17.587,5.017c0.466,0.11,1.685,0.73,1.873,1.619c0.225,1.062-0.257,2.101-1.052,2.27c-0.076,0.016-0.153,0.024-0.23,0.024c-0.74,0-1.45-0.719-1.652-1.672C16.339,6.377,17.205,5.311,17.587,5.017 M17.485,4c-0.043,0-0.081,0.003-0.114,0.01c-0.548,0.116-2.167,1.833-1.823,3.455c0.307,1.447,1.432,2.465,2.631,2.465c0.145,0,0.291-0.015,0.437-0.046c1.351-0.286,2.167-1.833,1.823-3.455C20.115,4.902,18.181,4,17.485,4L17.485,4z"/>
	<rect x="14.5" y="6" style="fill:#FFFFFF;" width="3" height="2"/>
	<rect x="16.133" y="7.326" transform="matrix(0.7071 -0.7071 0.7071 0.7071 -0.5884 14.2304)" style="fill:#655B20;" width="1.5" height="1"/>
	<rect x="14.366" y="7.326" transform="matrix(-0.7071 -0.7071 0.7071 -0.7071 20.2706 24.0474)" style="fill:#655B20;" width="1.5" height="1"/>
	<path style="fill:none;stroke:#655919;stroke-miterlimit:10;" d="M12,11.5c0,1.382,1.789,2.5,4,2.5"/>
	<path style="fill:none;stroke:#655919;stroke-miterlimit:10;" d="M20,11.5c0,1.382-1.789,2.5-4,2.5"/>
</svg>