<?xml version="1.0" encoding="utf-8"?>
<!DOCTYPE svg PUBLIC "-//W3C//DTD SVG 1.1//EN" "http://www.w3.org/Graphics/SVG/1.1/DTD/svg11.dtd">
<svg version="1.1" xmlns="http://www.w3.org/2000/svg" xmlns:xlink="http://www.w3.org/1999/xlink" height="26" width="32" xml:space="preserve">
	
	<!-- Copyright 2011–2015 KittMedia Productions -->
	<!-- Licensed under GNU Lesser General Public License, version 2.1 (LGPL-2.1) -->
	
	<style type="text/css">
		.st0{fill:#FFFFFF;stroke:#655B20;stroke-miterlimit:10;}
		.st1{fill:#F8232D;}
		.st2{fill:url(#SVGID_1_);}
		.st3{fill:#CDA70C;}
		.st4{fill:#CECDCD;stroke:#8A8A8A;stroke-miterlimit:10;}
		.st5{fill:#FFD314;stroke:#655B20;stroke-miterlimit:10;}
		.st6{fill:#CECDCD;}
		.st7{fill:#8A8A8A;}
		.st8{fill:#B0B0B0;}
		.st9{fill:#FFFFFF;}
		.st10{fill:#655B20;}
		.st11{fill:#655919;}
	</style>
	
	<rect x="9" y="8.4" transform="matrix(0.7071 0.7071 -0.7071 0.7071 15.6087 -6.7899)" class="st0" width="14" height="14"/>
	<circle class="st1" cx="14" cy="18.5" r="0.5"/>
	<circle class="st1" cx="20" cy="18" r="0.5"/>
	<circle class="st1" cx="17" cy="19" r="0.5"/>
	<circle class="st1" cx="17" cy="21" r="0.5"/>
	<circle class="st1" cx="22" cy="17" r="0.5"/>
	<circle class="st1" cx="24" cy="16" r="0.5"/>
	<circle class="st1" cx="20" cy="20" r="0.5"/>
	<circle class="st1" cx="17" cy="23" r="0.5"/>
	<circle class="st1" cx="15" cy="22" r="0.5"/>
	<circle class="st1" cx="12.5" cy="19.5" r="0.5"/>

	<radialGradient id="SVGID_1_" cx="13.8327" cy="7.756" r="9.105" gradientUnits="userSpaceOnUse">
		<stop offset="0" style="stop-color:#FFFF98"/>
		<stop offset="1" style="stop-color:#FFD314"/>
	</radialGradient>
	
	<path class="st2" d="M16,17.5c-4.4,0-8-3.6-8-8s3.6-8,8-8s8,3.6,8,8S20.4,17.5,16,17.5z"/>
	<path class="st3" d="M16,2c4.1,0,7.5,3.4,7.5,7.5S20.1,17,16,17s-7.5-3.4-7.5-7.5S11.9,2,16,2 M16,1c-4.7,0-8.5,3.8-8.5,8.5c0,4.7,3.8,8.5,8.5,8.5s8.5-3.8,8.5-8.5C24.5,4.8,20.7,1,16,1L16,1z"/>
	<rect x="27.5" y="9" class="st4" width="2" height="13"/>
	<path class="st4" d="M30,9h-3c-0.8,0-1.5-0.7-1.5-1.5V2h6v5.5C31.5,8.3,30.8,9,30,9z"/>
	<circle class="st1" cx="10.5" cy="17.5" r="0.5"/>
	<circle class="st1" cx="9" cy="15" r="0.5"/>
	<rect x="26.5" y="12" class="st5" width="4" height="4"/>
	<rect x="3.5" y="1.5" class="st6" width="3" height="9"/>
	<path class="st7" d="M6,2v8H4V2H6 M7,1H6H4H3v1v8v1h1h2h1v-1V2V1L7,1z"/>
	<rect x="2.7" y="0.5" class="st4" width="2" height="21"/>
	<rect x="4" y="2" class="st8" width="2" height="8"/>
	<rect x="2" y="12" class="st5" width="4" height="4"/>
	<rect x="27" y="1.5" class="st7" width="1" height="4"/>
	<rect x="29" y="1.5" class="st7" width="1" height="4"/>
	<rect x="26" y="0.5" class="st7" width="1" height="1"/>
	<rect x="28" y="0.5" class="st7" width="1" height="1"/>
	<rect x="30" y="0.5" class="st7" width="1" height="1"/>
	<rect x="26" y="1.5" class="st6" width="1" height="1"/>
	<rect x="28" y="1.5" class="st6" width="1" height="1"/>
	<rect x="30" y="1.5" class="st6" width="1" height="1"/>
	<path class="st8" d="M30,8.5h-3c-0.6,0-1-0.4-1-1v-1h5v1C31,8.1,30.6,8.5,30,8.5z"/>
	<path class="st9" d="M13.8,9.4c-0.1,0-0.2,0-0.3,0c-0.5-0.1-0.9-0.5-1.2-1c-0.3-0.5-0.4-1.2-0.2-1.9c0.3-1.2,1.9-2,2.5-2C14.9,4.6,16.3,6,16,7.4C15.7,8.6,14.8,9.4,13.8,9.4z"/>
	<path class="st10" d="M14.4,5c0.4,0.3,1.2,1.4,1.1,2.2c-0.2,1-0.9,1.7-1.7,1.7c-0.1,0-0.2,0-0.2,0c-0.8-0.2-1.3-1.2-1.1-2.3C12.7,5.7,14,5.1,14.4,5 M14.5,4c-0.7,0-2.6,0.9-3,2.4c-0.3,1.6,0.5,3.2,1.8,3.5c0.1,0,0.3,0,0.4,0c1.2,0,2.3-1,2.6-2.5c0.3-1.6-1.3-3.3-1.8-3.5C14.6,4,14.6,4,14.5,4L14.5,4z"/>
	<path class="st9" d="M18.2,9.4c-1,0-1.9-0.9-2.1-2.1c-0.3-1.3,1.1-2.8,1.4-2.9c0.5,0,2.2,0.8,2.5,2c0.1,0.7,0.1,1.3-0.2,1.9c-0.3,0.5-0.7,0.9-1.2,1C18.4,9.4,18.3,9.4,18.2,9.4z"/>
	<path class="st10" d="M17.6,5c0.5,0.1,1.7,0.7,1.9,1.6c0.2,1.1-0.3,2.1-1.1,2.3c-0.1,0-0.2,0-0.2,0c-0.7,0-1.5-0.7-1.7-1.7C16.3,6.4,17.2,5.3,17.6,5 M17.5,4c0,0-0.1,0-0.1,0c-0.5,0.1-2.2,1.8-1.8,3.5c0.3,1.4,1.4,2.5,2.6,2.5c0.1,0,0.3,0,0.4,0c1.4-0.3,2.2-1.8,1.8-3.5C20.1,4.9,18.2,4,17.5,4L17.5,4z"/>
	<rect x="14.5" y="6" class="st9" width="3" height="2"/>
	<rect x="16.1" y="7.3" transform="matrix(0.7071 -0.7071 0.7071 0.7071 -0.5884 14.2304)" class="st10" width="1.5" height="1"/>
	<rect x="14.4" y="7.3" transform="matrix(-0.7071 -0.7071 0.7071 -0.7071 20.2706 24.0474)" class="st10" width="1.5" height="1"/>
	<path class="st11" d="M15.5,14c-2.2,0-4-1.3-4-3h1c0,1.1,1.3,2,3,2V14z"/>
	<path class="st11" d="M16.5,14c2.2,0,4-1.3,4-3h-1c0,1.1-1.3,2-3,2V14z"/>
	<rect x="15.5" y="13" class="st11" width="1" height="1"/>
</svg>