<?xml version="1.0" encoding="iso-8859-1"?>
<!DOCTYPE svg PUBLIC "-//W3C//DTD SVG 1.1//EN" "http://www.w3.org/Graphics/SVG/1.1/DTD/svg11.dtd">
<svg version="1.1" xmlns="http://www.w3.org/2000/svg" xmlns:xlink="http://www.w3.org/1999/xlink" height="17" width="17" xml:space="preserve">
	
	<!-- Copyright 2011–2015 KittMedia Productions -->
	<!-- Licensed under GNU Lesser General Public License, version 2.1 (LGPL-2.1) -->
	
	<linearGradient id="SVGID_1_" gradientUnits="userSpaceOnUse" x1="8.5" y1="0.5" x2="8.5" y2="14.75">
		<stop offset="0" style="stop-color:#FFA09D"/>
		<stop offset="1" style="stop-color:#BE3D4B"/>
	</linearGradient>
	
	<path style="fill:url(#SVGID_1_);" d="M8.484,14.75c-0.123,0-0.246-0.045-0.342-0.136l-6.127-5.75C1.967,8.819,1.929,8.766,1.903,8.708C0.946,7.533,0.5,6.431,0.5,5.25C0.5,2.675,2.561,0.5,5,0.5c1.372,0,2.654,0.636,3.5,1.699C9.346,1.136,10.628,0.5,12,0.5c2.481,0,4.5,2.019,4.5,4.5c0,1.354-0.619,2.717-1.615,3.555l-6.047,6.048C8.74,14.701,8.612,14.75,8.484,14.75z"/>
	<path style="fill:#BE3D4B;" d="M12,1c2.209,0,4,1.791,4,4c0,1.228-0.566,2.439-1.437,3.173L8.484,14.5L2.357,9h0.022C1.541,8,1,6.702,1,5.5c0-2.209,1.791-4.375,4-4.375c1.518,0,2.822,0.793,3.5,2.038C9.178,1.918,10.482,1,12,1 M12,0c-1.327,0-2.578,0.534-3.5,1.45C7.578,0.534,6.327,0,5,0C2.29,0,0,2.404,0,5.25c0,1.272,0.487,2.497,1.486,3.738c0.048,0.088,0.111,0.169,0.187,0.241l6.127,5.75c0.193,0.181,0.439,0.271,0.684,0.271c0.256,0,0.512-0.098,0.707-0.293l6.05-6.049C16.327,7.975,17,6.482,17,5C17,2.243,14.757,0,12,0L12,0z"/>
</svg>