<?xml version="1.0" encoding="utf-8"?>
<!DOCTYPE svg PUBLIC "-//W3C//DTD SVG 1.1//EN" "http://www.w3.org/Graphics/SVG/1.1/DTD/svg11.dtd">
<svg version="1.1" xmlns="http://www.w3.org/2000/svg" xmlns:xlink="http://www.w3.org/1999/xlink" height="17" width="17" xml:space="preserve">
	
	<!-- Copyright 2011–2015 KittMedia Productions -->
	<!-- Licensed under GNU Lesser General Public License, version 2.1 (LGPL-2.1) -->
	
	<style type="text/css">
		.st0{fill:url(#SVGID_1_);}
		.st1{fill:#BE3D4B;}
	</style>
	
	<linearGradient id="SVGID_1_" gradientUnits="userSpaceOnUse" x1="8.5" y1="0.5" x2="8.5" y2="14.75">
		<stop offset="0" style="stop-color:#FFA09D"/>
		<stop offset="1" style="stop-color:#BE3D4B"/>
	</linearGradient>
	
	<path class="st0" d="M8.5,14.8c-0.1,0-0.2,0-0.3-0.1L2,8.9C1,7.6,0.5,6.5,0.5,5.2c0-2.6,2.1-4.8,4.5-4.8c1.4,0,2.7,0.6,3.5,1.7c0.8-1.1,2.1-1.7,3.5-1.7c2.5,0,4.5,2,4.5,4.5c0,1.4-0.6,2.7-1.6,3.6l-6,6C8.7,14.7,8.6,14.8,8.5,14.8z"/>
	<path class="st1" d="M12,1c2.2,0,4,1.8,4,4c0,1.2-0.6,2.4-1.4,3.2l-6.1,6.1L2.4,8.5C1.5,7.5,1,6.5,1,5.2C1,3,2.8,1,5,1c1.5,0,2.8,0.9,3.5,2.1C9.2,1.9,10.5,1,12,1 M12,0c-1.3,0-2.6,0.5-3.5,1.5C7.6,0.5,6.3,0,5,0C2.3,0,0,2.4,0,5.2c0,1.3,0.5,2.6,1.6,3.9c0,0,0.1,0.1,0.1,0.1L7.8,15c0.2,0.2,0.4,0.3,0.7,0.3c0.3,0,0.5-0.1,0.7-0.3l6.1-6C16.3,8,17,6.5,17,5C17,2.2,14.8,0,12,0L12,0z"/>
</svg>