<?xml version="1.0" encoding="utf-8"?>
<!DOCTYPE svg PUBLIC "-//W3C//DTD SVG 1.1//EN" "http://www.w3.org/Graphics/SVG/1.1/DTD/svg11.dtd">
<svg version="1.1" xmlns="http://www.w3.org/2000/svg" xmlns:xlink="http://www.w3.org/1999/xlink" height="17" width="17" xml:space="preserve">
	
	<!-- Copyright 2011–2015 KittMedia Productions -->
	<!-- Licensed under GNU Lesser General Public License, version 2.1 (LGPL-2.1) -->
	
	<style type="text/css">
		.st0{fill:url(#SVGID_1_);}
		.st1{fill:#CDA70C;}
		.st2{fill:#655B20;}
		.st3{fill:#655919;}
		.st4{fill:none;stroke:#655919;stroke-miterlimit:10;}
	</style>
	
	<radialGradient id="SVGID_1_" cx="6.3327" cy="6.756" r="9.105" gradientUnits="userSpaceOnUse">
		<stop offset="0" style="stop-color:#FFFF98"/>
		<stop offset="1" style="stop-color:#FFD314"/>
	</radialGradient>
	
	<circle class="st0" cx="8.5" cy="8.5" r="8"/>
	<path class="st1" d="M8.5,1C12.6,1,16,4.4,16,8.5S12.6,16,8.5,16S1,12.6,1,8.5S4.4,1,8.5,1 M8.5,0C3.8,0,0,3.8,0,8.5C0,13.2,3.8,17,8.5,17S17,13.2,17,8.5C17,3.8,13.2,0,8.5,0L8.5,0z"/>
	<rect x="5.2" y="6" class="st2" width="2" height="2"/>
	<rect x="9.8" y="6" class="st2" width="2" height="2"/>
	<path class="st3" d="M9,13c2.8,0,5-2.2,5-5h-1c0,2.2-1.8,4-4,4V13z"/>
	<rect x="7" y="12" class="st3" width="2" height="1"/>
	<rect x="6" y="4" transform="matrix(-1 -1.224647e-16 1.224647e-16 -1 13 9)" class="st3" width="1" height="1"/>
	<path class="st4" d="M3.6,6c0-0.8,1.1-1.5,2.5-1.5"/>
	<rect x="10" y="4" class="st3" width="1" height="1"/>
	<path class="st4" d="M13.4,6c0-0.8-1.1-1.5-2.5-1.5"/>
</svg>