<?xml version="1.0" encoding="iso-8859-1"?>
<!DOCTYPE svg PUBLIC "-//W3C//DTD SVG 1.1//EN" "http://www.w3.org/Graphics/SVG/1.1/DTD/svg11.dtd">
<svg version="1.1" xmlns="http://www.w3.org/2000/svg" xmlns:xlink="http://www.w3.org/1999/xlink" height="22" width="17" xml:space="preserve">
	
	<!-- Copyright 2011–2015 KittMedia Productions -->
	<!-- Licensed under GNU Lesser General Public License, version 2.1 (LGPL-2.1) -->
	
	<radialGradient id="SVGID_1_" cx="6.3327" cy="11.7589" r="9.105" gradientUnits="userSpaceOnUse">
		<stop offset="0" style="stop-color:#FFFF98"/>
		<stop offset="1" style="stop-color:#FFD314"/>
	</radialGradient>
	
	<path style="fill:url(#SVGID_1_);" d="M8.5,21.503c-4.411,0-8-3.589-8-8s3.589-8,8-8s8,3.589,8,8S12.911,21.503,8.5,21.503z"/>
	<path style="fill:#CDA70C;" d="M8.5,6.003c4.136,0,7.5,3.364,7.5,7.5s-3.364,7.5-7.5,7.5S1,17.638,1,13.503S4.364,6.003,8.5,6.003M8.5,5.003c-4.694,0-8.5,3.806-8.5,8.5c0,4.694,3.806,8.5,8.5,8.5s8.5-3.806,8.5-8.5C17,8.809,13.194,5.003,8.5,5.003L8.5,5.003z"/>
	<ellipse style="fill:#FFFFFF;stroke:#655B20;stroke-miterlimit:10;" cx="6.5" cy="10.753" rx="2" ry="3.25"/>
	<circle style="fill:#655B20;" cx="6.5" cy="12.003" r="1"/>
	<ellipse style="fill:#FFFFFF;stroke:#655B20;stroke-miterlimit:10;" cx="10.5" cy="10.753" rx="2" ry="3.25"/>
	<circle style="fill:#655B20;" cx="10.5" cy="12.003" r="1"/>
	<polygon style="fill:#FFC000;" points="0.258,6.831 0.966,2.872 3.625,5.131 4.24,1.696 6.915,3.969 7.533,0.513 10.599,3.117 11.506,5.642 1.165,9.356"/>
	<path style="fill:#4C4926;" d="M7.703,0.985l1.061,0.901l1.622,1.378l0.8,2.227l-9.87,3.545l-0.8-2.227L0.89,4.714l0.245-1.37l1.061,0.901L3.132,5.04l0.663,0.563l0.153-0.856l0.216-1.208l0.245-1.37L5.47,3.069l0.952,0.808L7.085,4.44l0.153-0.856l0.22-1.229L7.703,0.985 M7.364,0.041L6.966,2.267l-0.22,1.229L5.794,2.688L4.07,1.224L3.672,3.45L3.456,4.659L2.52,3.864L0.797,2.4L0.398,4.626L0,6.852l1.014,2.823l10.811-3.883l-1.014-2.823L9.088,1.505L7.364,0.041L7.364,0.041z"/>
	<path style="fill:#4C4926;" d="M2.682,7.699L2.682,7.699c-0.259,0.093-0.547-0.043-0.64-0.302l0,0c-0.093-0.259,0.043-0.547,0.302-0.64l0,0C2.602,6.665,2.89,6.801,2.983,7.06v0C3.076,7.319,2.941,7.606,2.682,7.699z"/>
	<path style="fill:#4C4926;" d="M4.329,7.108L4.329,7.108C4.07,7.201,3.782,7.065,3.689,6.806l0,0C3.596,6.547,3.732,6.26,3.991,6.167v0c0.259-0.093,0.547,0.043,0.64,0.302l0,0C4.723,6.727,4.588,7.015,4.329,7.108z"/>
	<path style="fill:#4C4926;" d="M5.982,6.514L5.982,6.514c-0.259,0.093-0.547-0.043-0.64-0.302l0,0c-0.093-0.259,0.043-0.547,0.302-0.64l0,0C5.902,5.48,6.19,5.616,6.283,5.875v0C6.376,6.133,6.24,6.421,5.982,6.514z"/>
	<path style="fill:#4C4926;" d="M7.623,5.925L7.623,5.925c-0.259,0.093-0.547-0.043-0.64-0.302v0C6.89,5.364,7.026,5.077,7.285,4.984l0,0c0.259-0.093,0.547,0.043,0.64,0.302l0,0C8.017,5.544,7.881,5.832,7.623,5.925z"/>
	<path style="fill:#4C4926;" d="M9.27,5.333L9.27,5.333C9.011,5.426,8.723,5.29,8.63,5.032v0c-0.093-0.259,0.043-0.547,0.302-0.64v0c0.259-0.093,0.547,0.043,0.64,0.302v0C9.664,4.952,9.528,5.24,9.27,5.333z"/>
	<path style="fill:none;stroke:#655919;stroke-miterlimit:10;" d="M4.5,15.503c0,1.382,1.789,2.5,4,2.5"/>
	<path style="fill:none;stroke:#655919;stroke-miterlimit:10;" d="M12.5,15.503c0,1.382-1.789,2.5-4,2.5"/>
</svg>