<?xml version="1.0" encoding="utf-8"?>
<!DOCTYPE svg PUBLIC "-//W3C//DTD SVG 1.1//EN" "http://www.w3.org/Graphics/SVG/1.1/DTD/svg11.dtd">
<svg version="1.1" xmlns="http://www.w3.org/2000/svg" xmlns:xlink="http://www.w3.org/1999/xlink" height="22" width="17" xml:space="preserve">
	
	<!-- Copyright 2011–2015 KittMedia Productions -->
	<!-- Licensed under GNU Lesser General Public License, version 2.1 (LGPL-2.1) -->
	
	<style type="text/css">
		.st0{fill:url(#SVGID_1_);}
		.st1{fill:#CDA70C;}
		.st2{fill:#FFFFFF;stroke:#655B20;stroke-miterlimit:10;}
		.st3{fill:#655B20;}
		.st4{fill:#FFC000;}
		.st5{fill:#4C4926;}
		.st6{fill:#655919;}
	</style>
	
	<radialGradient id="SVGID_1_" cx="6.3327" cy="11.7589" r="9.105" gradientUnits="userSpaceOnUse">
		<stop offset="0" style="stop-color:#FFFF98"/>
		<stop offset="1" style="stop-color:#FFD314"/>
	</radialGradient>
	
	<path class="st0" d="M8.5,21.5c-4.4,0-8-3.6-8-8s3.6-8,8-8s8,3.6,8,8S12.9,21.5,8.5,21.5z"/>
	<path class="st1" d="M8.5,6c4.1,0,7.5,3.4,7.5,7.5S12.6,21,8.5,21S1,17.6,1,13.5S4.4,6,8.5,6 M8.5,5C3.8,5,0,8.8,0,13.5C0,18.2,3.8,22,8.5,22s8.5-3.8,8.5-8.5C17,8.8,13.2,5,8.5,5L8.5,5z"/>
	<ellipse class="st2" cx="6.5" cy="10.8" rx="2" ry="3.2"/>
	<circle class="st3" cx="6.5" cy="12" r="1"/>
	<ellipse class="st2" cx="10.5" cy="10.8" rx="2" ry="3.2"/>
	<circle class="st3" cx="10.5" cy="12" r="1"/>
	<polygon class="st4" points="0.3,6.8 1,2.9 3.6,5.1 4.2,1.7 6.9,4 7.5,0.5 10.6,3.1 11.5,5.6 1.2,9.4 		"/>
	<path class="st5" d="M7.7,1l1.1,0.9l1.6,1.4l0.8,2.2L1.3,9L0.5,6.8l0.4-2.1l0.2-1.4l1.1,0.9L3.1,5l0.7,0.6l0.2-0.9l0.2-1.2l0.2-1.4l1.1,0.9l1,0.8l0.7,0.6l0.2-0.9l0.2-1.2L7.7,1 M7.4,0L7,2.3L6.7,3.5l-1-0.8L4.1,1.2L3.7,3.5L3.5,4.7L2.5,3.9L0.8,2.4L0.4,4.6L0,6.9l1,2.8l10.8-3.9l-1-2.8L9.1,1.5L7.4,0L7.4,0z"/>
	<path class="st5" d="M2.7,7.7L2.7,7.7C2.4,7.8,2.1,7.7,2,7.4l0,0c-0.1-0.3,0-0.5,0.3-0.6l0,0c0.3-0.1,0.5,0,0.6,0.3v0C3.1,7.3,2.9,7.6,2.7,7.7z"/>
	<path class="st5" d="M4.3,7.1L4.3,7.1c-0.3,0.1-0.5,0-0.6-0.3l0,0C3.6,6.5,3.7,6.3,4,6.2v0c0.3-0.1,0.5,0,0.6,0.3l0,0C4.7,6.7,4.6,7,4.3,7.1z"/>
	<path class="st5" d="M6,6.5L6,6.5c-0.3,0.1-0.5,0-0.6-0.3l0,0C5.2,6,5.4,5.7,5.6,5.6l0,0c0.3-0.1,0.5,0,0.6,0.3v0C6.4,6.1,6.2,6.4,6,6.5z"/>
	<path class="st5" d="M7.6,5.9L7.6,5.9C7.4,6,7.1,5.9,7,5.6v0C6.9,5.4,7,5.1,7.3,5l0,0c0.3-0.1,0.5,0,0.6,0.3l0,0C8,5.5,7.9,5.8,7.6,5.9z"/>
	<path class="st5" d="M9.3,5.3L9.3,5.3C9,5.4,8.7,5.3,8.6,5v0c-0.1-0.3,0-0.5,0.3-0.6v0c0.3-0.1,0.5,0,0.6,0.3v0C9.7,5,9.5,5.2,9.3,5.3z"/>
	<path class="st6" d="M8,19c-2.2,0-4-1.3-4-3h1c0,1.1,1.3,2,3,2V19z"/>
	<path class="st6" d="M9,19c2.2,0,4-1.3,4-3h-1c0,1.1-1.3,2-3,2V19z"/>
	<rect x="8" y="18" class="st6" width="1" height="1"/>
</svg>