<?xml version="1.0" encoding="iso-8859-1"?>
<!DOCTYPE svg PUBLIC "-//W3C//DTD SVG 1.1//EN" "http://www.w3.org/Graphics/SVG/1.1/DTD/svg11.dtd">
<svg version="1.1" xmlns="http://www.w3.org/2000/svg" xmlns:xlink="http://www.w3.org/1999/xlink" height="17" width="17" xml:space="preserve">
	
	<!-- Copyright 2011–2015 KittMedia Productions -->
	<!-- Licensed under GNU Lesser General Public License, version 2.1 (LGPL-2.1) -->
	
	<radialGradient id="SVGID_1_" cx="6.3327" cy="6.756" r="9.105" gradientUnits="userSpaceOnUse">
		<stop offset="0" style="stop-color:#FFFF98"/>
		<stop offset="1" style="stop-color:#FFD314"/>
	</radialGradient>
	
	<path style="fill:url(#SVGID_1_);" d="M8.5,16.5c-4.411,0-8-3.589-8-8s3.589-8,8-8s8,3.589,8,8S12.911,16.5,8.5,16.5z"/>
	<path style="fill:#CDA70C;" d="M8.5,1C12.636,1,16,4.364,16,8.5S12.636,16,8.5,16S1,12.636,1,8.5S4.364,1,8.5,1 M8.5,0C3.806,0,0,3.806,0,8.5C0,13.194,3.806,17,8.5,17S17,13.194,17,8.5C17,3.806,13.194,0,8.5,0L8.5,0z"/>
	<polygon style="fill:#655919;" points="6.414,4 8.118,5.696 7.411,6.4 5.707,4.704 "/>
	<rect x="4.741" y="4.693" transform="matrix(0.7071 -0.7071 0.7071 0.7071 -1.9357 5.7129)" style="fill:#655919;" width="2.375" height="1"/>
	<rect x="9.71" y="4.7" transform="matrix(-0.7071 -0.7071 0.7071 -0.7071 14.9428 16.5899)" style="fill:#655919;" width="2.395" height="1"/>
	<rect x="8.719" y="4.702" transform="matrix(0.7071 -0.7071 0.7071 0.7071 -0.7731 8.5376)" style="fill:#655919;" width="2.4" height="1"/>
	<rect x="7.154" y="12.111" style="fill:#BE3D4B;" width="2.5" height="1"/>
	<rect x="5.802" y="11.551" transform="matrix(0.7071 0.7071 -0.7071 0.7071 10.5131 -1.28)" style="fill:#BE3D4B;" width="2" height="1"/>
	<rect x="9.007" y="11.551" transform="matrix(-0.7071 0.7071 -0.7071 -0.7071 25.6036 13.4959)" style="fill:#BE3D4B;" width="2" height="1"/>
	<rect x="5.741" y="10.697" style="fill:#BE3D4B;" width="1" height="1"/>
	<rect x="10.067" y="10.697" style="fill:#BE3D4B;" width="1" height="1"/>
	<rect x="6.733" y="9.702" transform="matrix(-0.7071 -0.7071 0.7071 -0.7071 6.3283 23.0255)" style="fill:#BE3D4B;" width="2.4" height="1"/>
	<rect x="5.743" y="9.702" transform="matrix(-0.7071 0.7071 -0.7071 -0.7071 19.0665 12.5065)" style="fill:#BE3D4B;" width="2.4" height="1"/>
	<rect x="8.665" y="9.702" transform="matrix(-0.7071 -0.7071 0.7071 -0.7071 9.627 24.3919)" style="fill:#BE3D4B;" width="2.4" height="1"/>
	<rect x="7.675" y="9.702" transform="matrix(-0.7071 0.7071 -0.7071 -0.7071 22.3651 11.1401)" style="fill:#BE3D4B;" width="2.4" height="1"/>
	<polygon style="fill:#BE3D4B;" points="6.241,11.197 6.241,10.917 7.442,9.688 8.404,10.752 9.401,9.688 10.567,10.964 10.567,11.404 9.519,12.611 7.378,12.611 "/>
</svg>