<?xml version="1.0" encoding="utf-8"?>
<!DOCTYPE svg PUBLIC "-//W3C//DTD SVG 1.1//EN" "http://www.w3.org/Graphics/SVG/1.1/DTD/svg11.dtd">
<svg version="1.1" xmlns="http://www.w3.org/2000/svg" xmlns:xlink="http://www.w3.org/1999/xlink" height="17" width="17" xml:space="preserve">
	
	<!-- Copyright 2011–2015 KittMedia Productions -->
	<!-- Licensed under GNU Lesser General Public License, version 2.1 (LGPL-2.1) -->
	
	<style type="text/css">
		.st0{fill:url(#SVGID_1_);}
		.st1{fill:#CDA70C;}
		.st2{fill:#655919;}
		.st3{fill:#BE3D4B;}
	</style>
	
	<radialGradient id="SVGID_1_" cx="6.3327" cy="6.756" r="9.105" gradientUnits="userSpaceOnUse">
		<stop offset="0" style="stop-color:#FFFF98"/>
		<stop offset="1" style="stop-color:#FFD314"/>
	</radialGradient>
	
	<path class="st0" d="M8.5,16.5c-4.4,0-8-3.6-8-8s3.6-8,8-8s8,3.6,8,8S12.9,16.5,8.5,16.5z"/>
	<path class="st1" d="M8.5,1C12.6,1,16,4.4,16,8.5S12.6,16,8.5,16S1,12.6,1,8.5S4.4,1,8.5,1 M8.5,0C3.8,0,0,3.8,0,8.5C0,13.2,3.8,17,8.5,17S17,13.2,17,8.5C17,3.8,13.2,0,8.5,0L8.5,0z"/>
	<polygon class="st2" points="6.4,4 8.1,5.7 7.4,6.4 5.7,4.7 "/>
	<rect x="4.7" y="4.7" transform="matrix(0.7071 -0.7071 0.7071 0.7071 -1.9357 5.7129)" class="st2" width="2.4" height="1"/>
	<rect x="9.7" y="4.7" transform="matrix(-0.7071 -0.7071 0.7071 -0.7071 14.9428 16.5899)" class="st2" width="2.4" height="1"/>
	<rect x="8.7" y="4.7" transform="matrix(0.7071 -0.7071 0.7071 0.7071 -0.7731 8.5376)" class="st2" width="2.4" height="1"/>
	<rect x="7.2" y="12.1" class="st3" width="2.5" height="1"/>
	<rect x="5.8" y="11.6" transform="matrix(0.7071 0.7071 -0.7071 0.7071 10.5131 -1.28)" class="st3" width="2" height="1"/>
	<rect x="9" y="11.6" transform="matrix(-0.7071 0.7071 -0.7071 -0.7071 25.6036 13.4959)" class="st3" width="2" height="1"/>
	<rect x="5.7" y="10.7" class="st3" width="1" height="1"/>
	<rect x="10.1" y="10.7" class="st3" width="1" height="1"/>
	<rect x="6.7" y="9.7" transform="matrix(-0.7071 -0.7071 0.7071 -0.7071 6.3283 23.0255)" class="st3" width="2.4" height="1"/>
	<rect x="5.7" y="9.7" transform="matrix(-0.7071 0.7071 -0.7071 -0.7071 19.0665 12.5065)" class="st3" width="2.4" height="1"/>
	<rect x="8.7" y="9.7" transform="matrix(-0.7071 -0.7071 0.7071 -0.7071 9.627 24.3919)" class="st3" width="2.4" height="1"/>
	<rect x="7.7" y="9.7" transform="matrix(-0.7071 0.7071 -0.7071 -0.7071 22.3651 11.1401)" class="st3" width="2.4" height="1"/>
	<polygon class="st3" points="6.2,11.2 6.2,10.9 7.4,9.7 8.4,10.8 9.4,9.7 10.6,11 10.6,11.4 9.5,12.6 7.4,12.6 "/>
</svg>