<?xml version="1.0" encoding="iso-8859-1"?>
<!DOCTYPE svg PUBLIC "-//W3C//DTD SVG 1.1//EN" "http://www.w3.org/Graphics/SVG/1.1/DTD/svg11.dtd">
<svg version="1.1" xmlns="http://www.w3.org/2000/svg" xmlns:xlink="http://www.w3.org/1999/xlink" height="17" width="27" xml:space="preserve">
	
	<!-- Copyright 2011–2015 KittMedia Productions -->
	<!-- Licensed under GNU Lesser General Public License, version 2.1 (LGPL-2.1) -->
	
	<radialGradient id="SVGID_1_" cx="6.5294" cy="6.6765" r="10.5352" gradientUnits="userSpaceOnUse">
		<stop offset="0" style="stop-color:#FFA09D"/>
		<stop offset="1" style="stop-color:#BE3D4B"/>
	</radialGradient>
	
	<path style="fill:url(#SVGID_1_);" d="M8.5,16.5c-4.411,0-8-3.589-8-8s3.589-8,8-8s8,3.589,8,8S12.911,16.5,8.5,16.5z"/>
	<path style="fill:#BE3D4B;" d="M8.5,1C12.636,1,16,4.364,16,8.5S12.636,16,8.5,16S1,12.636,1,8.5S4.364,1,8.5,1 M8.5,0C3.806,0,0,3.806,0,8.5C0,13.194,3.806,17,8.5,17S17,13.194,17,8.5C17,3.806,13.194,0,8.5,0L8.5,0z"/>
	<line style="fill:none;stroke:#F5615B;stroke-linecap:round;stroke-linejoin:round;stroke-miterlimit:10;" x1="24.417" y1="1.625" x2="23.458" y2="0.542"/>
	<line style="fill:none;stroke:#F5615B;stroke-linecap:round;stroke-linejoin:round;stroke-miterlimit:10;" x1="23.458" y1="0.542" x2="22.5" y2="1.625"/>
	<line style="fill:none;stroke:#F5615B;stroke-linecap:round;stroke-linejoin:round;stroke-miterlimit:10;" x1="22.5" y1="1.625" x2="24.417" y2="3.5"/>
	<line style="fill:none;stroke:#F5615B;stroke-linecap:round;stroke-linejoin:round;stroke-miterlimit:10;" x1="24.417" y1="3.5" x2="26.458" y2="1.625"/>
	<line style="fill:none;stroke:#F5615B;stroke-linecap:round;stroke-linejoin:round;stroke-miterlimit:10;" x1="26.458" y1="1.625" x2="25.438" y2="0.542"/>
	<line style="fill:none;stroke:#F5615B;stroke-linecap:round;stroke-linejoin:round;stroke-miterlimit:10;" x1="25.438" y1="0.542" x2="24.417" y2="1.625"/>
	<rect x="23" y="1" style="fill:#F5615B;" width="3" height="1"/>
	<rect x="23.459" y="2" style="fill:#F5615B;" width="1.979" height="0.875"/>
	<line style="fill:none;stroke:#F5615B;stroke-linecap:round;stroke-linejoin:round;stroke-miterlimit:10;" x1="18.887" y1="4.047" x2="20.002" y2="5.444"/>
	<line style="fill:none;stroke:#F5615B;stroke-linecap:round;stroke-linejoin:round;stroke-miterlimit:10;" x1="21.117" y1="4.047" x2="20.002" y2="5.444"/>
	<polygon style="fill:#FFFFFF;" points="8.5,3.576 8.5,7.6 9.792,8.915 11.309,8.915 12.326,7.788 12.326,5.5 10.413,3.5 8.5,3.5 "/>
	<rect x="8" y="3" style="fill:#7A4442;" width="1" height="4.501"/>
	<rect x="8" y="3" style="fill:#7A4442;" width="2.5" height="1"/>
	<rect x="11.826" y="5.326" style="fill:#7A4442;" width="1" height="2.175"/>
	<rect x="9.413" y="7.915" style="fill:#7A4442;" width="2" height="1"/>
	<rect x="8.061" y="7.355" transform="matrix(0.7071 0.7071 -0.7071 0.7071 8.2079 -4.1063)" style="fill:#7A4442;" width="2" height="1"/>
	<rect x="10.766" y="7.355" transform="matrix(0.7071 -0.7071 0.7071 0.7071 -2.108 10.6202)" style="fill:#7A4442;" width="2" height="1"/>
	<rect x="9.664" y="4.017" transform="matrix(0.7071 0.7071 -0.7071 0.7071 6.506 -6.6738)" style="fill:#7A4442;" width="3.289" height="1"/>
	<rect x="8" y="4.75" style="fill:#7A4442;" width="2" height="2.5"/>
	<polygon style="fill:#FFFFFF;" points="8.5,3.576 8.5,7.6 7.207,8.915 5.691,8.915 4.674,7.788 4.674,5.5 6.588,3.5 8.5,3.5 "/>
	<rect x="8" y="3" style="fill:#7A4442;" width="1" height="4.501"/>
	<rect x="6.5" y="3" style="fill:#7A4442;" width="2.5" height="1"/>
	<rect x="4.174" y="5.326" style="fill:#7A4442;" width="1" height="2.175"/>
	<rect x="5.588" y="7.915" style="fill:#7A4442;" width="2" height="1"/>
	<rect x="6.939" y="7.355" transform="matrix(-0.7071 0.7071 -0.7071 -0.7071 19.1074 7.7948)" style="fill:#7A4442;" width="2" height="1"/>
	<rect x="4.234" y="7.355" transform="matrix(-0.7071 -0.7071 0.7071 -0.7071 3.3815 17.11)" style="fill:#7A4442;" width="2" height="1"/>
	<rect x="4.046" y="4.017" transform="matrix(-0.7071 0.7071 -0.7071 -0.7071 12.9088 3.6861)" style="fill:#7A4442;" width="3.289" height="1"/>
	<rect x="5.174" y="4.75" style="fill:#7A4442;" width="1.5" height="2.5"/>
	<path style="fill:none;stroke:#6F2F34;stroke-linejoin:round;stroke-miterlimit:10;" d="M13.5,10.281c0,1.779-1.46,3.219-3.265,3.219"/>
</svg>