<?xml version="1.0" encoding="utf-8"?>
<!DOCTYPE svg PUBLIC "-//W3C//DTD SVG 1.1//EN" "http://www.w3.org/Graphics/SVG/1.1/DTD/svg11.dtd">
<svg version="1.1" xmlns="http://www.w3.org/2000/svg" xmlns:xlink="http://www.w3.org/1999/xlink" height="17" width="27" xml:space="preserve">
	
	<!-- Copyright 2011–2015 KittMedia Productions -->
	<!-- Licensed under GNU Lesser General Public License, version 2.1 (LGPL-2.1) -->
	
	<style type="text/css">
		.st0{fill:url(#SVGID_1_);}
		.st1{fill:#BE3D4B;}
		.st2{fill:none;stroke:#F5615B;stroke-linecap:round;stroke-linejoin:round;stroke-miterlimit:10;}
		.st3{fill:#F5615B;}
		.st4{fill:#FFFFFF;}
		.st5{fill:#7A4442;}
		.st6{fill:#6F2F34;}
	</style>
	
	<radialGradient id="SVGID_1_" cx="6.5294" cy="6.6765" r="10.5352" gradientUnits="userSpaceOnUse">
		<stop offset="0" style="stop-color:#FFA09D"/>
		<stop offset="1" style="stop-color:#BE3D4B"/>
	</radialGradient>
	
	<path class="st0" d="M8.5,16.5c-4.4,0-8-3.6-8-8s3.6-8,8-8s8,3.6,8,8S12.9,16.5,8.5,16.5z"/>
	<path class="st1" d="M8.5,1C12.6,1,16,4.4,16,8.5S12.6,16,8.5,16S1,12.6,1,8.5S4.4,1,8.5,1 M8.5,0C3.8,0,0,3.8,0,8.5C0,13.2,3.8,17,8.5,17S17,13.2,17,8.5C17,3.8,13.2,0,8.5,0L8.5,0z"/>
	<line class="st2" x1="24.4" y1="1.6" x2="23.5" y2="0.5"/>
	<line class="st2" x1="23.5" y1="0.5" x2="22.5" y2="1.6"/>
	<line class="st2" x1="22.5" y1="1.6" x2="24.4" y2="3.5"/>
	<line class="st2" x1="24.4" y1="3.5" x2="26.5" y2="1.6"/>
	<line class="st2" x1="26.5" y1="1.6" x2="25.4" y2="0.5"/>
	<line class="st2" x1="25.4" y1="0.5" x2="24.4" y2="1.6"/>
	<rect x="23" y="1" class="st3" width="3" height="1.5"/>
	<rect x="23.5" y="2" class="st3" width="2" height="1"/>
	<line class="st2" x1="18.9" y1="4" x2="20" y2="5.4"/>
	<line class="st2" x1="21.1" y1="4" x2="20" y2="5.4"/>
	<polygon class="st4" points="8.5,3.6 8.5,7.6 9.8,8.9 11.3,8.9 12.3,7.8 12.3,5.5 10.4,3.5 8.5,3.5 "/>
	<rect x="8" y="3" class="st5" width="1" height="4.5"/>
	<rect x="8" y="3" class="st5" width="2.5" height="1"/>
	<rect x="11.8" y="5.3" class="st5" width="1" height="2.2"/>
	<rect x="9.4" y="7.9" class="st5" width="2" height="1"/>
	<rect x="8.1" y="7.4" transform="matrix(0.7071 0.7071 -0.7071 0.7071 8.2079 -4.1063)" class="st5" width="2" height="1"/>
	<rect x="10.8" y="7.4" transform="matrix(0.7071 -0.7071 0.7071 0.7071 -2.108 10.6202)" class="st5" width="2" height="1"/>
	<rect x="9.7" y="4" transform="matrix(0.7071 0.7071 -0.7071 0.7071 6.506 -6.6738)" class="st5" width="3.3" height="1"/>
	<rect x="8" y="4.8" class="st5" width="2" height="2.5"/>
	<polygon class="st4" points="8.5,3.6 8.5,7.6 7.2,8.9 5.7,8.9 4.7,7.8 4.7,5.5 6.6,3.5 8.5,3.5 "/>
	<rect x="8" y="3" class="st5" width="1" height="4.5"/>
	<rect x="6.5" y="3" class="st5" width="2.5" height="1"/>
	<rect x="4.2" y="5.3" class="st5" width="1" height="2.2"/>
	<rect x="5.6" y="7.9" class="st5" width="2" height="1"/>
	<rect x="6.9" y="7.4" transform="matrix(-0.7071 0.7071 -0.7071 -0.7071 19.1074 7.7948)" class="st5" width="2" height="1"/>
	<rect x="4.2" y="7.4" transform="matrix(-0.7071 -0.7071 0.7071 -0.7071 3.3815 17.11)" class="st5" width="2" height="1"/>
	<rect x="4" y="4" transform="matrix(-0.7071 0.7071 -0.7071 -0.7071 12.9088 3.6861)" class="st5" width="3.3" height="1"/>
	<rect x="5.2" y="4.8" class="st5" width="1.5" height="2.5"/>
	<path class="st6" d="M10,13c1.7,0,3-1.3,3-3h1c0,2.2-1.8,4-4,4V13z"/>
</svg>