<?xml version="1.0" encoding="utf-8"?>
<!DOCTYPE svg PUBLIC "-//W3C//DTD SVG 1.1//EN" "http://www.w3.org/Graphics/SVG/1.1/DTD/svg11.dtd">
<svg version="1.1" xmlns="http://www.w3.org/2000/svg" xmlns:xlink="http://www.w3.org/1999/xlink" height="17" width="17" xml:space="preserve">
	
	<!-- Copyright 2011–2015 KittMedia Productions -->
	<!-- Licensed under GNU Lesser General Public License, version 2.1 (LGPL-2.1) -->
	
	<style type="text/css">
		.st0{fill:url(#SVGID_1_);}
		.st1{fill:#CDA70C;}
		.st2{fill:#655919;}
		.st3{fill:none;stroke:#F5615B;stroke-linecap:round;stroke-linejoin:round;stroke-miterlimit:10;}
		.st4{fill:#F5615B;}
	</style>
	
	<radialGradient id="SVGID_1_" cx="6.3327" cy="6.756" r="9.105" gradientUnits="userSpaceOnUse">
		<stop offset="0" style="stop-color:#FFFF98"/>
		<stop offset="1" style="stop-color:#FFD314"/>
	</radialGradient>
	
	<path class="st0" d="M8.5,16.5c-4.4,0-8-3.6-8-8s3.6-8,8-8s8,3.6,8,8S12.9,16.5,8.5,16.5z"/>
	<path class="st1" d="M8.5,1C12.6,1,16,4.4,16,8.5S12.6,16,8.5,16S1,12.6,1,8.5S4.4,1,8.5,1 M8.5,0C3.8,0,0,3.8,0,8.5C0,13.2,3.8,17,8.5,17S17,13.2,17,8.5C17,3.8,13.2,0,8.5,0L8.5,0z"/>
	<path class="st2" d="M8,13c-2.2,0-4-1.3-4-3h1c0,1.1,1.3,2,3,2V13z"/>
	<path class="st2" d="M9,13c2.2,0,4-1.3,4-3h-1c0,1.1-1.3,2-3,2V13z"/>
	<rect x="8" y="12" class="st2" width="1" height="1"/>
	<line class="st3" x1="5.9" y1="5.1" x2="5" y2="4"/>
	<line class="st3" x1="5" y1="4" x2="4" y2="5.1"/>
	<line class="st3" x1="4" y1="5.1" x2="5.9" y2="7"/>
	<line class="st3" x1="5.9" y1="7" x2="8" y2="5.1"/>
	<line class="st3" x1="8" y1="5.1" x2="6.9" y2="4"/>
	<line class="st3" x1="6.9" y1="4" x2="5.9" y2="5.1"/>
	<rect x="4.5" y="4.5" class="st4" width="3" height="1.5"/>
	<rect x="5" y="5.5" class="st4" width="2" height="1"/>
	<line class="st3" x1="11" y1="5.1" x2="10" y2="4"/>
	<line class="st3" x1="10" y1="4" x2="9" y2="5.1"/>
	<line class="st3" x1="9" y1="5.1" x2="11" y2="7"/>
	<line class="st3" x1="11" y1="7" x2="13" y2="5.1"/>
	<line class="st3" x1="13" y1="5.1" x2="12" y2="4"/>
	<line class="st3" x1="12" y1="4" x2="11" y2="5.1"/>
	<rect x="9.5" y="4.5" class="st4" width="3" height="1.5"/>
	<rect x="10" y="5.5" class="st4" width="2" height="1"/>
</svg>