<?xml version="1.0" encoding="utf-8"?>
<!DOCTYPE svg PUBLIC "-//W3C//DTD SVG 1.1//EN" "http://www.w3.org/Graphics/SVG/1.1/DTD/svg11.dtd">
<svg version="1.1" xmlns="http://www.w3.org/2000/svg" xmlns:xlink="http://www.w3.org/1999/xlink" height="34" width="17" xml:space="preserve">
	
	<!-- Copyright 2011–2015 KittMedia Productions -->
	<!-- Licensed under GNU Lesser General Public License, version 2.1 (LGPL-2.1) -->
	
	<style type="text/css">
		.st0{fill:url(#SVGID_1_);}
		.st1{fill:#CDA70C;}
		.st2{fill:#FFFFFF;stroke:#655B20;stroke-miterlimit:10;}
		.st3{fill:#655B20;}
		.st4{fill:url(#SVGID_2_);stroke:#004173;stroke-width:0.5;stroke-linecap:round;stroke-linejoin:round;stroke-miterlimit:10;}
		.st5{fill:#0077D2;}
		.st6{fill:#F84116;}
		.st7{fill:#48D2F6;}
		.st8{fill:#46D533;}
		.st9{fill:none;stroke:#655B20;stroke-width:0.5;stroke-linecap:round;stroke-miterlimit:10;}
		.st10{fill:#655919;}
	</style>
	
	<radialGradient id="SVGID_1_" cx="6.3327" cy="23.756" r="9.105" gradientUnits="userSpaceOnUse">
		<stop offset="0" style="stop-color:#FFFF98"/>
		<stop offset="1" style="stop-color:#FFD314"/>
	</radialGradient>
	
	<path class="st0" d="M8.5,33.5c-4.4,0-8-3.6-8-8s3.6-8,8-8s8,3.6,8,8S12.9,33.5,8.5,33.5z"/>
	<path class="st1" d="M8.5,18c4.1,0,7.5,3.4,7.5,7.5S12.6,33,8.5,33S1,29.6,1,25.5S4.4,18,8.5,18 M8.5,17C3.8,17,0,20.8,0,25.5C0,30.2,3.8,34,8.5,34s8.5-3.8,8.5-8.5C17,20.8,13.2,17,8.5,17L8.5,17z"/>
	<ellipse class="st2" cx="6.5" cy="22.8" rx="2" ry="3.2"/>
	<circle class="st3" cx="6.5" cy="24" r="1"/>
	<ellipse class="st2" cx="10.5" cy="22.8" rx="2" ry="3.2"/>
	<circle class="st3" cx="10.5" cy="24" r="1"/>
	
	<linearGradient id="SVGID_2_" gradientUnits="userSpaceOnUse" x1="8.5" y1="4.75" x2="8.5" y2="18.75">
		<stop offset="0.125" style="stop-color:#FFD314"/>
		<stop offset="0.125" style="stop-color:#FDD314"/>
		<stop offset="0.125" style="stop-color:#F6D114"/>
		<stop offset="0.125" style="stop-color:#EACF15"/>
		<stop offset="0.125" style="stop-color:#D9CC16"/>
		<stop offset="0.125" style="stop-color:#C3C817"/>
		<stop offset="0.125" style="stop-color:#A7C418"/>
		<stop offset="0.125" style="stop-color:#86BE19"/>
		<stop offset="0.125" style="stop-color:#60B71B"/>
		<stop offset="0.125" style="stop-color:#36B01D"/>
		<stop offset="0.125" style="stop-color:#30AF1D"/>
		<stop offset="0.25" style="stop-color:#2F981D"/>
		<stop offset="0.25" style="stop-color:#F8232D"/>
		<stop offset="0.375" style="stop-color:#EB232C"/>
		<stop offset="0.375" style="stop-color:#30AB1D"/>
		<stop offset="0.5" style="stop-color:#2E9D1D"/>
		<stop offset="0.5" style="stop-color:#F8232D"/>
		<stop offset="0.625" style="stop-color:#E2222B"/>
		<stop offset="0.625" style="stop-color:#FFD314"/>
		<stop offset="0.75" style="stop-color:#E4BD15"/>
		<stop offset="0.75" style="stop-color:#30AF1D"/>
		<stop offset="0.875" style="stop-color:#30AF1D"/>
		<stop offset="0.875" style="stop-color:#F8232D"/>
	</linearGradient>
	
	<polygon class="st4" points="8.4,4.8 11,11.7 13.5,18.6 8.5,18.7 3.5,18.8 6,11.8 "/>
	<rect x="1" y="12.5" class="st5" width="2" height="2"/>
	<rect x="12" y="8.5" class="st6" width="2" height="2"/>
	<rect x="14" y="3.5" class="st7" width="2" height="2"/>
	<rect x="15" y="13.5" class="st8" width="2" height="2"/>
	<path class="st9" d="M8.4,4.8c0-1.7,1.4-3,3.1-3"/>
	<path class="st9" d="M5.5,1c1.6,0,2.9,1.7,2.9,3.8"/>
	<path class="st9" d="M5.9,2.9c1.4,0,2.5,0.8,2.5,1.9"/>
	<path class="st10" d="M8,31c-2.2,0-4-1.3-4-3h1c0,1.1,1.3,2,3,2V31z"/>
	<path class="st10" d="M9,31c2.2,0,4-1.3,4-3h-1c0,1.1-1.3,2-3,2V31z"/>
	<rect x="8" y="30" class="st10" width="1" height="1"/>
</svg>