<?xml version="1.0" encoding="iso-8859-1"?>
<!DOCTYPE svg PUBLIC "-//W3C//DTD SVG 1.1//EN" "http://www.w3.org/Graphics/SVG/1.1/DTD/svg11.dtd">
<svg version="1.1" xmlns="http://www.w3.org/2000/svg" xmlns:xlink="http://www.w3.org/1999/xlink" height="34" width="17" xml:space="preserve">
	
	<!-- Copyright 2011–2015 KittMedia Productions -->
	<!-- Licensed under GNU Lesser General Public License, version 2.1 (LGPL-2.1) -->
	
	<radialGradient id="SVGID_1_" cx="6.3327" cy="23.756" r="9.105" gradientUnits="userSpaceOnUse">
		<stop offset="0" style="stop-color:#FFFF98"/>
		<stop offset="1" style="stop-color:#FFD314"/>
	</radialGradient>
	
	<path style="fill:url(#SVGID_1_);" d="M8.5,33.5c-4.411,0-8-3.589-8-8s3.589-8,8-8s8,3.589,8,8S12.911,33.5,8.5,33.5z"/>
	<path style="fill:#CDA70C;" d="M8.5,18c4.136,0,7.5,3.364,7.5,7.5S12.636,33,8.5,33S1,29.636,1,25.5S4.364,18,8.5,18 M8.5,17C3.806,17,0,20.806,0,25.5C0,30.194,3.806,34,8.5,34s8.5-3.806,8.5-8.5C17,20.806,13.194,17,8.5,17L8.5,17z"/>
	<ellipse style="fill:#FFFFFF;stroke:#655B20;stroke-miterlimit:10;" cx="6.5" cy="22.75" rx="2" ry="3.25"/>
	<circle style="fill:#655B20;" cx="6.5" cy="24" r="1"/>
	<ellipse style="fill:#FFFFFF;stroke:#655B20;stroke-miterlimit:10;" cx="10.5" cy="22.75" rx="2" ry="3.25"/>
	<circle style="fill:#655B20;" cx="10.5" cy="24" r="1"/>
	
	<linearGradient id="SVGID_2_" gradientUnits="userSpaceOnUse" x1="8.5" y1="4.75" x2="8.5" y2="18.75">
		<stop offset="0.125" style="stop-color:#FFD314"/>
		<stop offset="0.125" style="stop-color:#FDD314"/>
		<stop offset="0.125" style="stop-color:#F6D114"/>
		<stop offset="0.125" style="stop-color:#EACF15"/>
		<stop offset="0.125" style="stop-color:#D9CC16"/>
		<stop offset="0.125" style="stop-color:#C3C817"/>
		<stop offset="0.125" style="stop-color:#A7C418"/>
		<stop offset="0.125" style="stop-color:#86BE19"/>
		<stop offset="0.125" style="stop-color:#60B71B"/>
		<stop offset="0.125" style="stop-color:#36B01D"/>
		<stop offset="0.125" style="stop-color:#30AF1D"/>
		<stop offset="0.25" style="stop-color:#2F981D"/>
		<stop offset="0.25" style="stop-color:#F8232D"/>
		<stop offset="0.375" style="stop-color:#EB232C"/>
		<stop offset="0.375" style="stop-color:#30AB1D"/>
		<stop offset="0.5" style="stop-color:#2E9D1D"/>
		<stop offset="0.5" style="stop-color:#F8232D"/>
		<stop offset="0.625" style="stop-color:#E2222B"/>
		<stop offset="0.625" style="stop-color:#FFD314"/>
		<stop offset="0.75" style="stop-color:#E4BD15"/>
		<stop offset="0.75" style="stop-color:#30AF1D"/>
		<stop offset="0.875" style="stop-color:#30AF1D"/>
		<stop offset="0.875" style="stop-color:#F8232D"/>
	</linearGradient>
	
	<polygon style="fill:url(#SVGID_2_);stroke:#004173;stroke-width:0.5;stroke-linecap:round;stroke-linejoin:round;stroke-miterlimit:10;" points="8.436,4.75 10.968,11.69 13.5,18.63 8.5,18.69 3.5,18.75 5.968,11.75 "/>
	<rect x="1" y="12.5" style="fill:#0077D2;" width="2" height="2"/>
	<rect x="12" y="8.5" style="fill:#F84116;" width="2" height="2"/>
	<rect x="14" y="3.5" style="fill:#48D2F6;" width="2" height="2"/>
	<rect x="15" y="13.5" style="fill:#46D533;" width="2" height="2"/>
	<path style="fill:none;stroke:#655B20;stroke-width:0.5;stroke-linecap:round;stroke-miterlimit:10;" d="M8.436,4.75c0-1.658,1.371-3,3.064-3"/>
	<path style="fill:none;stroke:#655B20;stroke-width:0.5;stroke-linecap:round;stroke-miterlimit:10;" d="M5.548,0.973c1.624,0,2.938,1.689,2.938,3.777"/>
	<path style="fill:none;stroke:#655B20;stroke-width:0.5;stroke-linecap:round;stroke-miterlimit:10;" d="M5.904,2.872c1.399,0,2.531,0.84,2.531,1.878"/>
	<path style="fill:none;stroke:#655919;stroke-miterlimit:10;" d="M4.5,27.5c0,1.382,1.789,2.5,4,2.5"/>
	<path style="fill:none;stroke:#655919;stroke-miterlimit:10;" d="M12.5,27.5c0,1.382-1.789,2.5-4,2.5"/>
</svg>