<?xml version="1.0" encoding="utf-8"?>
<!DOCTYPE svg PUBLIC "-//W3C//DTD SVG 1.1//EN" "http://www.w3.org/Graphics/SVG/1.1/DTD/svg11.dtd">
<svg version="1.1" xmlns="http://www.w3.org/2000/svg" xmlns:xlink="http://www.w3.org/1999/xlink" height="24" width="22" xml:space="preserve">
	
	<!-- Copyright 2011–2015 KittMedia Productions -->
	<!-- Licensed under GNU Lesser General Public License, version 2.1 (LGPL-2.1) -->
	
	<style type="text/css">
		.st0{fill:url(#SVGID_1_);}
		.st1{fill:#CDA70C;}
		.st2{fill:#FFFFFF;stroke:#4C4926;stroke-miterlimit:10;}
		.st3{fill:#4C4926;}
		.st4{fill:#FFFFFF;}
	</style>
	
	<radialGradient id="SVGID_1_" cx="11.3327" cy="13.756" r="9.105" gradientUnits="userSpaceOnUse">
		<stop offset="0" style="stop-color:#FFFF98"/>
		<stop offset="1" style="stop-color:#FFD314"/>
	</radialGradient>
	
	<path class="st0" d="M13.5,23.5c-4.4,0-8-3.6-8-8s3.6-8,8-8s8,3.6,8,8S17.9,23.5,13.5,23.5z"/>
	<path class="st1" d="M13.5,8c4.1,0,7.5,3.4,7.5,7.5S17.6,23,13.5,23S6,19.6,6,15.5S9.4,8,13.5,8 M13.5,7C8.8,7,5,10.8,5,15.5c0,4.7,3.8,8.5,8.5,8.5s8.5-3.8,8.5-8.5C22,10.8,18.2,7,13.5,7L13.5,7z"/>
	<path class="st2" d="M10,5C8,5,6.3,6.6,6.3,8.7v1.1c-0.6-0.1-1.3,0-1.7,0.5c-0.7,0.7-0.7,1.9,0,2.6c0,0,2.5,2.5,2.5,2.5c0,0,0.3,0.3,0.4,0.3c0.2,0.1,0.3,0.2,0.5,0.2C8.3,15.9,8.5,16,8.8,16h2.4c1.4,0,2.4-1.1,2.4-2.4V8.7C13.7,6.6,12,5,10,5z"/>
	<path class="st3" d="M15,14c0-1.1,0.9-2,2-2v1c-0.6,0-1,0.4-1,1H15z"/>
	<polygon class="st4" points="11.5,18.3 11.5,20.3 15.1,20.3 16.1,21.5 17.5,21.5 19.1,19.6 19.1,17.4 18.2,16.5 15.7,16.5 13.9,18.3 "/>
	<rect x="11" y="17.8" class="st3" width="1" height="3"/>
	<rect x="11" y="17.8" class="st3" width="3" height="1"/>
	<rect x="11" y="19.8" class="st3" width="4.2" height="1"/>
	<rect x="13.2" y="16.9" transform="matrix(0.7071 -0.7071 0.7071 0.7071 -8.0077 15.5023)" class="st3" width="3" height="1"/>
	<rect x="15.4" y="16" class="st3" width="3" height="1"/>
	<rect x="14.6" y="20.4" transform="matrix(0.7071 0.7071 -0.7071 0.7071 19.342 -4.9114)" class="st3" width="2" height="1"/>
	<rect x="16.7" y="20" transform="matrix(-0.7071 0.7071 -0.7071 -0.7071 45.5252 22.2201)" class="st3" width="3" height="1"/>
	<rect x="16" y="21" class="st3" width="1.5" height="1"/>
	<rect x="18.6" y="17.2" class="st3" width="1" height="2.7"/>
	<rect x="17.8" y="16.4" transform="matrix(0.7071 0.7071 -0.7071 0.7071 17.4342 -8.2209)" class="st3" width="1.6" height="1"/>
	<rect x="9" y="0" class="st3" width="1" height="3"/>
	<rect y="8" class="st3" width="3" height="1"/>
	<rect x="3" y="2" transform="matrix(0.7071 -0.7071 0.7071 0.7071 -1.4497 3.5)" class="st3" width="1" height="3"/>
	<rect x="15" y="2" transform="matrix(0.7071 0.7071 -0.7071 0.7071 7.0147 -9.935)" class="st3" width="1" height="3"/>
	<rect x="8" y="5.8" class="st3" width="0.8" height="4.8"/>
	<rect x="9.8" y="5" class="st3" width="0.8" height="5.5"/>
	<rect x="11.5" y="5.5" class="st3" width="0.8" height="5.5"/>
</svg>