<?xml version="1.0" encoding="iso-8859-1"?>
<!DOCTYPE svg PUBLIC "-//W3C//DTD SVG 1.1//EN" "http://www.w3.org/Graphics/SVG/1.1/DTD/svg11.dtd">
<svg version="1.1" xmlns="http://www.w3.org/2000/svg" xmlns:xlink="http://www.w3.org/1999/xlink" height="22" width="19" xml:space="preserve">
	
	<!-- Copyright 2011–2015 KittMedia Productions -->
	<!-- Licensed under GNU Lesser General Public License, version 2.1 (LGPL-2.1) -->
	
	<radialGradient id="SVGID_1_" cx="7.3327" cy="11.756" r="9.105" gradientUnits="userSpaceOnUse">
		<stop offset="0" style="stop-color:#FFFF98"/>
		<stop offset="1" style="stop-color:#FFD314"/>
	</radialGradient>
	
	<path style="fill:url(#SVGID_1_);" d="M9.5,21.5c-4.411,0-8-3.589-8-8s3.589-8,8-8s8,3.589,8,8S13.911,21.5,9.5,21.5z"/>
	<path style="fill:#CDA70C;" d="M9.5,6c4.136,0,7.5,3.364,7.5,7.5S13.636,21,9.5,21S2,17.636,2,13.5S5.364,6,9.5,6 M9.5,5C4.806,5,1,8.806,1,13.5C1,18.194,4.806,22,9.5,22s8.5-3.806,8.5-8.5C18,8.806,14.194,5,9.5,5L9.5,5z"/>
	
	<linearGradient id="SVGID_2_" gradientUnits="userSpaceOnUse" x1="0.5" y1="5" x2="18.5" y2="5">
		<stop offset="0" style="stop-color:#004173"/>
		<stop offset="0.3947" style="stop-color:#0077D2"/>
		<stop offset="0.7056" style="stop-color:#004173"/>
		<stop offset="1" style="stop-color:#00213F"/>
	</linearGradient>
	
	<path style="fill:url(#SVGID_2_);" d="M9.5,9.5c-4.878,0-9-2.061-9-4.5s4.122-4.5,9-4.5c4.879,0,9,2.061,9,4.5S14.379,9.5,9.5,9.5z"/>
	<path style="fill:#4C4926;" d="M9.5,1C14.509,1,18,3.108,18,5s-3.491,4-8.5,4S1,6.892,1,5S4.491,1,9.5,1 M9.5,0C4.253,0,0,2.239,0,5s4.253,5,9.5,5S19,7.761,19,5S14.747,0,9.5,0L9.5,0z"/>
	<path style="fill:#FFFFFF;" d="M9.5,9.5c-4.346,0-7.266-1.624-7.266-3.141S5.154,3.219,9.5,3.219c4.346,0,7.266,1.624,7.266,3.141S13.846,9.5,9.5,9.5z"/>
	<path style="fill:#4C4926;" d="M9.5,3.719c4.13,0,6.766,1.564,6.766,2.641C16.266,7.436,13.63,9,9.5,9S2.734,7.436,2.734,6.359C2.734,5.283,5.37,3.719,9.5,3.719 M9.5,2.719c-4.289,0-7.766,1.63-7.766,3.641C1.734,8.37,5.211,10,9.5,10s7.766-1.63,7.766-3.641C17.266,4.349,13.789,2.719,9.5,2.719L9.5,2.719z"/>
	
	<linearGradient id="SVGID_3_" gradientUnits="userSpaceOnUse" x1="4" y1="8" x2="15" y2="8">
		<stop offset="0" style="stop-color:#004173"/>
		<stop offset="0.3947" style="stop-color:#0077D2"/>
		<stop offset="0.7056" style="stop-color:#004173"/>
		<stop offset="1" style="stop-color:#00213F"/>
	</linearGradient>
	
	<path style="fill:url(#SVGID_3_);" d="M9.5,9.5C5.941,9.5,4,8.509,4,8s1.941-1.5,5.5-1.5S15,7.491,15,8S13.059,9.5,9.5,9.5z"/>
	<path style="fill:#4C4926;" d="M9.5,7c2.764,0,4.44,0.63,4.909,1C13.94,8.37,12.264,9,9.5,9S5.06,8.37,4.591,8C5.06,7.63,6.736,7,9.5,7 M9.5,6c-3.314,0-6,0.895-6,2s2.686,2,6,2s6-0.895,6-2S12.814,6,9.5,6L9.5,6z"/>
	<polygon style="fill:#666666;stroke:#FFFFFF;stroke-width:0.25;stroke-miterlimit:10;" points="9.5,1.37 10.423,2.455 11.74,2.997 10.993,4.21 10.884,5.63 9.5,5.295 8.116,5.63 8.007,4.21 7.26,2.997 8.577,2.455 "/>
	<path style="fill:none;stroke:#655919;stroke-miterlimit:10;" d="M14,14.875c0,1.519-2.236,2.75-5,2.75"/>
	<polygon style="fill:#4C4926;" points="5,10 5,14 8.5,14 9,13 9,10 "/>
	<polygon style="fill:#4C4926;" points="14,10 14,14 11.5,14 10,13 10,10 "/>
	<rect x="3" y="11" style="fill:#4C4926;" width="13" height="1"/>
	<circle style="fill:#FFFFFF;" cx="11.75" cy="11.5" r="0.75"/>
	<circle style="fill:#FFFFFF;" cx="7.25" cy="11.5" r="0.75"/>
</svg>