<?xml version="1.0" encoding="utf-8"?>
<!DOCTYPE svg PUBLIC "-//W3C//DTD SVG 1.1//EN" "http://www.w3.org/Graphics/SVG/1.1/DTD/svg11.dtd">
<svg version="1.1" xmlns="http://www.w3.org/2000/svg" xmlns:xlink="http://www.w3.org/1999/xlink" height="22" width="19" xml:space="preserve">
	
	<!-- Copyright 2011–2015 KittMedia Productions -->
	<!-- Licensed under GNU Lesser General Public License, version 2.1 (LGPL-2.1) -->
	
	<style type="text/css">
		.st0{fill:url(#SVGID_1_);}
		.st1{fill:#CDA70C;}
		.st2{fill:url(#SVGID_2_);}
		.st3{fill:#4C4926;}
		.st4{fill:#FFFFFF;}
		.st5{fill:url(#SVGID_3_);}
		.st6{fill:#666666;stroke:#FFFFFF;stroke-width:0.25;stroke-miterlimit:10;}
		.st7{fill:#655919;}
	</style>
	
	<radialGradient id="SVGID_1_" cx="7.3327" cy="11.756" r="9.105" gradientUnits="userSpaceOnUse">
		<stop offset="0" style="stop-color:#FFFF98"/>
		<stop offset="1" style="stop-color:#FFD314"/>
	</radialGradient>
	
	<path class="st0" d="M9.5,21.5c-4.4,0-8-3.6-8-8s3.6-8,8-8s8,3.6,8,8S13.9,21.5,9.5,21.5z"/>
	<path class="st1" d="M9.5,6c4.1,0,7.5,3.4,7.5,7.5S13.6,21,9.5,21S2,17.6,2,13.5S5.4,6,9.5,6 M9.5,5C4.8,5,1,8.8,1,13.5C1,18.2,4.8,22,9.5,22s8.5-3.8,8.5-8.5C18,8.8,14.2,5,9.5,5L9.5,5z"/>
	
	<linearGradient id="SVGID_2_" gradientUnits="userSpaceOnUse" x1="0.5" y1="5" x2="18.5" y2="5">
		<stop offset="0" style="stop-color:#004173"/>
		<stop offset="0.3947" style="stop-color:#0077D2"/>
		<stop offset="0.7056" style="stop-color:#004173"/>
		<stop offset="1" style="stop-color:#00213F"/>
	</linearGradient>
	
	<path class="st2" d="M9.5,9.5c-4.9,0-9-2.1-9-4.5s4.1-4.5,9-4.5c4.9,0,9,2.1,9,4.5S14.4,9.5,9.5,9.5z"/>
	<path class="st3" d="M9.5,1c5,0,8.5,2.1,8.5,4s-3.5,4-8.5,4S1,6.9,1,5S4.5,1,9.5,1 M9.5,0C4.3,0,0,2.2,0,5s4.3,5,9.5,5S19,7.8,19,5S14.7,0,9.5,0L9.5,0z"/>
	<path class="st4" d="M9.5,9.5c-4.3,0-7.3-1.6-7.3-3.1s2.9-3.1,7.3-3.1c4.3,0,7.3,1.6,7.3,3.1S13.8,9.5,9.5,9.5z"/>
	<path class="st3" d="M9.5,3.7c4.1,0,6.8,1.6,6.8,2.6c0,1.1-2.6,2.6-6.8,2.6S2.7,7.4,2.7,6.4C2.7,5.3,5.4,3.7,9.5,3.7 M9.5,2.7c-4.3,0-7.8,1.6-7.8,3.6c0,2,3.5,3.6,7.8,3.6s7.8-1.6,7.8-3.6C17.3,4.3,13.8,2.7,9.5,2.7L9.5,2.7z"/>
	
	<linearGradient id="SVGID_3_" gradientUnits="userSpaceOnUse" x1="4" y1="8" x2="15" y2="8">
		<stop offset="0" style="stop-color:#004173"/>
		<stop offset="0.3947" style="stop-color:#0077D2"/>
		<stop offset="0.7056" style="stop-color:#004173"/>
		<stop offset="1" style="stop-color:#00213F"/>
	</linearGradient>
	
	<path class="st5" d="M9.5,9.5C5.9,9.5,4,8.5,4,8s1.9-1.5,5.5-1.5S15,7.5,15,8S13.1,9.5,9.5,9.5z"/>
	<path class="st3" d="M9.5,7c2.8,0,4.4,0.6,4.9,1c-0.5,0.4-2.1,1-4.9,1S5.1,8.4,4.6,8C5.1,7.6,6.7,7,9.5,7 M9.5,6c-3.3,0-6,0.9-6,2s2.7,2,6,2s6-0.9,6-2S12.8,6,9.5,6L9.5,6z"/>
	<polygon class="st6" points="9.5,1.4 10.4,2.5 11.7,3 11,4.2 10.9,5.6 9.5,5.3 8.1,5.6 8,4.2 7.3,3 8.6,2.5 "/>
	<path class="st7" d="M9,17.8c2.8,0,5-1.2,5-2.8h1c0,2.1-2.7,3.8-6,3.8V17.8z"/>
	<polygon class="st3" points="5,10 5,14 8.5,14 9,13 9,10 "/>
	<polygon class="st3" points="14,10 14,14 11.5,14 10,13 10,10 "/>
	<rect x="3" y="11" class="st3" width="13" height="1"/>
	<circle class="st4" cx="11.8" cy="11.5" r="0.8"/>
	<circle class="st4" cx="7.2" cy="11.5" r="0.8"/>
</svg>