<?xml version="1.0" encoding="utf-8"?>
<!DOCTYPE svg PUBLIC "-//W3C//DTD SVG 1.1//EN" "http://www.w3.org/Graphics/SVG/1.1/DTD/svg11.dtd">
<svg version="1.1" xmlns="http://www.w3.org/2000/svg" xmlns:xlink="http://www.w3.org/1999/xlink" height="21" width="24" xml:space="preserve">
	
	<!-- Copyright 2011–2015 KittMedia Productions -->
	<!-- Licensed under GNU Lesser General Public License, version 2.1 (LGPL-2.1) -->
	
	<style type="text/css">
		.st0{fill:url(#SVGID_1_);}
		.st1{fill:#CDA70C;}
		.st2{fill:#655B20;}
		.st3{fill:#FFFFFF;}
		.st4{fill:url(#SVGID_2_);}
		.st5{fill:#FFD314;}
		.st6{fill:#7D491F;}
		.st7{fill:#AA8506;}
		.st8{fill:#655919;}
	</style>
	
	<radialGradient id="SVGID_1_" cx="6.3327" cy="6.756" r="9.105" gradientUnits="userSpaceOnUse">
		<stop offset="0" style="stop-color:#FFFF98"/>
		<stop offset="1" style="stop-color:#FFD314"/>
	</radialGradient>
	
	<path class="st0" d="M8.5,16.5c-4.4,0-8-3.6-8-8s3.6-8,8-8s8,3.6,8,8S12.9,16.5,8.5,16.5z"/>
	<path class="st1" d="M8.5,1C12.6,1,16,4.4,16,8.5S12.6,16,8.5,16S1,12.6,1,8.5S4.4,1,8.5,1 M8.5,0C3.8,0,0,3.8,0,8.5C0,13.2,3.8,17,8.5,17S17,13.2,17,8.5C17,3.8,13.2,0,8.5,0L8.5,0z"/>
	<rect x="14" y="9.5" class="st2" width="1" height="0.9"/>
	<polygon class="st3" points="14.5,10.9 22.7,10.9 22.7,8.5 21.7,8.5 21.7,7.4 21.1,6.5 17.8,6.5 14.5,10 "/>
	
	<linearGradient id="SVGID_2_" gradientUnits="userSpaceOnUse" x1="14.5" y1="13.854" x2="22.7418" y2="13.854">
		<stop offset="0" style="stop-color:#DFB497"/>
		<stop offset="1" style="stop-color:#FFFFFF"/>
	</linearGradient>
	
	<rect x="14.5" y="10.5" class="st4" width="8.2" height="6.7"/>
	<rect x="22.2" y="8" class="st2" width="1" height="2.4"/>
	<polygon class="st5" points="17.5,14.7 17.8,15.4 19.9,14.7 20.1,15.4 22.3,14.7 22.2,15.4 22.2,17.8 21.7,18.3 17,18.3 15.9,17.2 15.9,15.7 "/>
	<rect x="17.2" y="8.4" class="st2" width="1" height="2"/>
	<rect x="14" y="10" class="st6" width="1" height="7"/>
	<rect x="19.2" y="9.4" class="st2" width="1" height="1"/>
	<rect x="22.2" y="10" class="st6" width="1" height="7"/>
	<rect x="13.6" y="7.6" transform="matrix(0.7071 -0.7071 0.7071 0.7071 -1.0206 13.7787)" class="st2" width="5" height="1"/>
	<rect x="14" y="10" class="st6" width="9" height="1"/>
	<rect x="14.9" y="16.2" transform="matrix(0.7071 -0.7071 0.7071 0.7071 -8.0067 16.0861)" class="st6" width="1" height="3"/>
	<rect x="16" y="16.8" transform="matrix(0.7071 -0.7071 0.7071 0.7071 -7.7379 16.8534)" class="st7" width="1" height="2"/>
	<rect x="16" y="14.1" transform="matrix(-0.7071 -0.7071 0.7071 -0.7071 17.4749 37.3596)" class="st7" width="1" height="2"/>
	<rect x="21.7" y="16.8" transform="matrix(-0.7071 -0.7071 0.7071 -0.7071 25.3022 46.015)" class="st7" width="1" height="2"/>
	<rect x="16.8" y="17.8" class="st7" width="5" height="1"/>
	<rect x="22.2" y="15.4" class="st7" width="1" height="2"/>
	<rect x="15.4" y="15.4" class="st7" width="1" height="2"/>
	<rect x="18.3" y="14.1" transform="matrix(-0.7071 -0.7071 0.7071 -0.7071 21.5238 39.0368)" class="st7" width="1" height="2"/>
	<rect x="17.8" y="15.4" class="st7" width="1" height="2.4"/>
	<rect x="20.7" y="14.1" transform="matrix(-0.7071 -0.7071 0.7071 -0.7071 25.5594 40.7084)" class="st7" width="1" height="2"/>
	<rect x="20.1" y="15.4" class="st7" width="1" height="2.4"/>
	<rect x="17.5" y="6" class="st2" width="4" height="1"/>
	<rect x="21.2" y="7" class="st2" width="1" height="2"/>
	<rect x="19.2" y="6" class="st2" width="1" height="2"/>
	<path class="st8" d="M8,13c-2.2,0-4-1.3-4-3h1c0,1.1,1.3,2,3,2V13z"/>
	<path class="st8" d="M9,13c2.2,0,4-1.3,4-3h-1c0,1.1-1.3,2-3,2V13z"/>
	<rect x="5" y="5" class="st2" width="2" height="2"/>
	<rect x="10" y="5" class="st2" width="2" height="2"/>
	<rect x="8" y="12" class="st8" width="1" height="1"/>
</svg>