<?xml version="1.0" encoding="iso-8859-1"?>
<!DOCTYPE svg PUBLIC "-//W3C//DTD SVG 1.1//EN" "http://www.w3.org/Graphics/SVG/1.1/DTD/svg11.dtd">
<svg version="1.1" xmlns="http://www.w3.org/2000/svg" xmlns:xlink="http://www.w3.org/1999/xlink" height="22" width="24" xml:space="preserve">
	
	<!-- Copyright 2011–2015 KittMedia Productions -->
	<!-- Licensed under GNU Lesser General Public License, version 2.1 (LGPL-2.1) -->
	
	<radialGradient id="SVGID_1_" cx="6.3327" cy="6.756" r="9.105" gradientUnits="userSpaceOnUse">
		<stop offset="0" style="stop-color:#FFFF98"/>
		<stop offset="1" style="stop-color:#FFD314"/>
	</radialGradient>
	
	<path style="fill:url(#SVGID_1_);" d="M8.5,16.5c-4.411,0-8-3.589-8-8s3.589-8,8-8s8,3.589,8,8S12.911,16.5,8.5,16.5z"/>
	<path style="fill:#CDA70C;" d="M8.5,1C12.636,1,16,4.364,16,8.5S12.636,16,8.5,16S1,12.636,1,8.5S4.364,1,8.5,1 M8.5,0C3.806,0,0,3.806,0,8.5C0,13.194,3.806,17,8.5,17S17,13.194,17,8.5C17,3.806,13.194,0,8.5,0L8.5,0z"/>
	<polygon style="fill:#FFFFFF;" points="14.5,11.5 22.742,11.5 22.742,9.07 21.742,9.07 21.742,8 21.15,7.052 17.786,7.052 14.5,10.503 "/>
	
	<linearGradient id="SVGID_2_" gradientUnits="userSpaceOnUse" x1="14.5" y1="14.8538" x2="22.7418" y2="14.8538">
		<stop  offset="0" style="stop-color:#DFB497"/>
		<stop  offset="1" style="stop-color:#FFFFFF"/>
	</linearGradient>
	
	<rect x="14.5" y="11.5" style="fill:url(#SVGID_2_);" width="8.242" height="6.708"/>
	<polygon style="fill:#FFD314;" points="17.536,16.001 17.786,16.708 19.907,16.001 20.15,16.708 22.271,16.001 22.242,16.708 22.242,19.122 21.656,19.622 16.969,19.622 15.918,18.504 15.914,17 "/>
	<path style="fill:none;stroke:#655919;stroke-miterlimit:10;" d="M4.5,10.5c0,1.382,1.789,2.5,4,2.5"/>
	<path style="fill:none;stroke:#655919;stroke-miterlimit:10;" d="M12.5,10.5c0,1.382-1.789,2.5-4,2.5"/>
	<rect x="5.25" y="5" style="fill:#655B20;" width="2" height="2"/>
	<rect x="9.75" y="5" style="fill:#655B20;" width="2" height="2"/>
	<rect x="14" y="11" style="fill:#7D491F;" width="1" height="7"/>
	<rect x="22.242" y="11" style="fill:#7D491F;" width="1" height="7"/>
	<rect x="14" y="11" style="fill:#7D491F;" width="9" height="1"/>
	<rect x="14.914" y="17.208" transform="matrix(0.7071 -0.7071 0.7071 0.7071 -8.7137 16.3789)" style="fill:#7D491F;" width="1" height="3"/>
	<rect x="15.975" y="18.061" transform="matrix(0.7071 -0.7071 0.7071 0.7071 -8.653 17.2324)" style="fill:#AA8506;" width="1" height="2"/>
	<rect x="15.975" y="15.355" transform="matrix(-0.7071 -0.7071 0.7071 -0.7071 16.5598 39.5689)" style="fill:#AA8506;" width="1" height="2"/>
	<rect x="21.681" y="18.061" transform="matrix(-0.7071 -0.7071 0.7071 -0.7071 24.3871 48.2242)" style="fill:#AA8506;" width="1" height="2"/>
	<rect x="16.828" y="19.122" style="fill:#AA8506;" width="5" height="1"/>
	<rect x="22.242" y="16.708" style="fill:#AA8506;" width="1" height="2"/>
	<rect x="15.414" y="16.708" style="fill:#AA8506;" width="1" height="2"/>
	<rect x="18.347" y="15.355" transform="matrix(-0.7071 -0.7071 0.7071 -0.7071 20.6087 41.246)" style="fill:#AA8506;" width="1" height="2"/>
	<rect x="17.786" y="16.708" style="fill:#AA8506;" width="1" height="2.414"/>
	<rect x="20.711" y="15.355" transform="matrix(-0.7071 -0.7071 0.7071 -0.7071 24.6443 42.9176)" style="fill:#AA8506;" width="1" height="2"/>
	<rect x="20.15" y="16.708" style="fill:#AA8506;" width="1" height="2.414"/>
	<rect x="14" y="10.087" style="fill:#655B20;" width="1" height="0.915"/>
	<rect x="13.622" y="8.174" transform="matrix(0.7071 -0.7071 0.7071 0.7071 -1.4112 13.9405)" style="fill:#655B20;" width="5" height="1"/>
	<rect x="17.536" y="6.552" style="fill:#655B20;" width="4" height="1"/>
	<rect x="22.242" y="8.552" style="fill:#655B20;" width="1" height="2.447"/>
	<rect x="21.242" y="7.552" style="fill:#655B20;" width="1" height="2"/>
	<rect x="17.242" y="9" style="fill:#655B20;" width="1" height="2"/>
	<rect x="19.242" y="6.552" style="fill:#655B20;" width="1" height="2"/>
	<rect x="19.242" y="10" style="fill:#655B20;" width="1" height="1"/>
</svg>