<?xml version="1.0" encoding="iso-8859-1"?>
<!DOCTYPE svg PUBLIC "-//W3C//DTD SVG 1.1//EN" "http://www.w3.org/Graphics/SVG/1.1/DTD/svg11.dtd">
<svg version="1.1" xmlns="http://www.w3.org/2000/svg" xmlns:xlink="http://www.w3.org/1999/xlink" height="20" width="17" xml:space="preserve">
	
	<!-- Copyright 2011–2015 KittMedia Productions -->
	<!-- Licensed under GNU Lesser General Public License, version 2.1 (LGPL-2.1) -->
	
	<radialGradient id="SVGID_1_" cx="6.3327" cy="10.006" r="9.105" gradientUnits="userSpaceOnUse">
		<stop offset="0" style="stop-color:#FFFF98"/>
		<stop offset="1" style="stop-color:#FFD314"/>
	</radialGradient>
	
	<path style="fill:url(#SVGID_1_);" d="M8.5,19.75c-4.411,0-8-3.589-8-8s3.589-8,8-8s8,3.589,8,8S12.911,19.75,8.5,19.75z"/>
	<path style="fill:#CDA70C;" d="M8.5,4.25c4.136,0,7.5,3.364,7.5,7.5s-3.364,7.5-7.5,7.5S1,15.886,1,11.75S4.364,4.25,8.5,4.25M8.5,3.25c-4.694,0-8.5,3.806-8.5,8.5c0,4.694,3.806,8.5,8.5,8.5s8.5-3.806,8.5-8.5C17,7.056,13.194,3.25,8.5,3.25L8.5,3.25z"/>
	<path style="fill:#FFFFFF;stroke:#A9A9A9;stroke-miterlimit:10;" d="M8.5,0.583c-3.866,0-7,1.343-7,3c0,1.657,3.134,3,7,3s7-1.343,7-3C15.5,1.926,12.366,0.583,8.5,0.583z M8.5,4.583c-3.037,0-5.5-0.448-5.5-1c0-0.552,2.463-1,5.5-1s5.5,0.448,5.5,1C14,4.135,11.538,4.583,8.5,4.583z"/>
	<path style="fill:none;stroke:#655919;stroke-miterlimit:10;" d="M4.5,13.75c0,1.382,1.789,2.5,4,2.5"/>
	<path style="fill:none;stroke:#655919;stroke-miterlimit:10;" d="M12.5,13.75c0,1.382-1.789,2.5-4,2.5"/>
	<rect x="3.913" y="8.365" transform="matrix(0.7071 -0.7071 0.7071 0.7071 -4.6827 6.4244)" style="fill:#655919;" width="3.002" height="1"/>
	<rect x="5.865" y="7.621" transform="matrix(0.7071 0.7071 -0.7071 0.7071 7.7524 -2.4749)" style="fill:#655919;" width="1.998" height="1"/>
	<rect x="10.097" y="8.365" transform="matrix(-0.7071 -0.7071 0.7071 -0.7071 13.5311 23.3342)" style="fill:#655919;" width="3.002" height="1"/>
	<rect x="9.149" y="7.621" transform="matrix(-0.7071 0.7071 -0.7071 -0.7071 23.066 6.6869)" style="fill:#655919;" width="1.998" height="1"/>
</svg>