<?xml version="1.0" encoding="utf-8"?>
<!DOCTYPE svg PUBLIC "-//W3C//DTD SVG 1.1//EN" "http://www.w3.org/Graphics/SVG/1.1/DTD/svg11.dtd">
<svg version="1.1" xmlns="http://www.w3.org/2000/svg" xmlns:xlink="http://www.w3.org/1999/xlink" height="20" width="17" xml:space="preserve">
	
	<!-- Copyright 2011–2015 KittMedia Productions -->
	<!-- Licensed under GNU Lesser General Public License, version 2.1 (LGPL-2.1) -->
	
	<style type="text/css">
		.st0{fill:url(#SVGID_1_);}
		.st1{fill:#CDA70C;}
		.st2{fill:#FFFFFF;stroke:#A9A9A9;stroke-miterlimit:10;}
		.st3{fill:#655919;}
	</style>
	
	<radialGradient id="SVGID_1_" cx="6.3327" cy="10.006" r="9.105" gradientUnits="userSpaceOnUse">
		<stop offset="0" style="stop-color:#FFFF98"/>
		<stop offset="1" style="stop-color:#FFD314"/>
	</radialGradient>
	
	<path class="st0" d="M8.5,19.8c-4.4,0-8-3.6-8-8s3.6-8,8-8s8,3.6,8,8S12.9,19.8,8.5,19.8z"/>
	<path class="st1" d="M8.5,4.2c4.1,0,7.5,3.4,7.5,7.5s-3.4,7.5-7.5,7.5S1,15.9,1,11.8S4.4,4.2,8.5,4.2 M8.5,3.2C3.8,3.2,0,7.1,0,11.8c0,4.7,3.8,8.5,8.5,8.5s8.5-3.8,8.5-8.5C17,7.1,13.2,3.2,8.5,3.2L8.5,3.2z"/>
	<path class="st2" d="M8.5,0.6c-3.9,0-7,1.3-7,3c0,1.7,3.1,3,7,3s7-1.3,7-3C15.5,1.9,12.4,0.6,8.5,0.6z M8.5,4.6c-3,0-5.5-0.4-5.5-1c0-0.6,2.5-1,5.5-1S14,3,14,3.6C14,4.1,11.5,4.6,8.5,4.6z"/>
	<rect x="3.9" y="8.6" transform="matrix(0.7071 -0.7071 0.7071 0.7071 -4.8205 6.4708)" class="st3" width="3" height="1"/>
	<rect x="5.9" y="7.8" transform="matrix(0.7071 0.7071 -0.7071 0.7071 7.8826 -2.4103)" class="st3" width="2" height="1"/>
	<rect x="10.1" y="8.6" transform="matrix(-0.7071 -0.7071 0.7071 -0.7071 13.3751 23.6485)" class="st3" width="3" height="1"/>
	<rect x="9.1" y="7.8" transform="matrix(-0.7071 0.7071 -0.7071 -0.7071 23.1779 7.0195)" class="st3" width="2" height="1"/>
	<path class="st3" d="M8,17c-2.2,0-4-1.3-4-3h1c0,1.1,1.3,2,3,2V17z"/>
	<path class="st3" d="M9,17c2.2,0,4-1.3,4-3h-1c0,1.1-1.3,2-3,2V17z"/>
	<rect x="8" y="16" class="st3" width="1" height="1"/>
</svg>