<?xml version="1.0" encoding="utf-8"?>
<!DOCTYPE svg PUBLIC "-//W3C//DTD SVG 1.1//EN" "http://www.w3.org/Graphics/SVG/1.1/DTD/svg11.dtd">
<svg version="1.1" xmlns="http://www.w3.org/2000/svg" xmlns:xlink="http://www.w3.org/1999/xlink" height="17" width="17" xml:space="preserve">
	
	<!-- Copyright 2011–2015 KittMedia Productions -->
	<!-- Licensed under GNU Lesser General Public License, version 2.1 (LGPL-2.1) -->
	
	<style type="text/css">
		.st0{fill:url(#SVGID_1_);}
		.st1{fill:#CDA70C;}
		.st2{fill:#FFFFFF;}
		.st3{fill:#655B20;}
	</style>
	
	<radialGradient id="SVGID_1_" cx="6.3327" cy="6.756" r="9.105" gradientUnits="userSpaceOnUse">
		<stop offset="0" style="stop-color:#FFFF98"/>
		<stop offset="1" style="stop-color:#FFD314"/>
	</radialGradient>
	
	<path class="st0" d="M8.5,16.5c-4.4,0-8-3.6-8-8s3.6-8,8-8s8,3.6,8,8S12.9,16.5,8.5,16.5z"/>
	<path class="st1" d="M8.5,1C12.6,1,16,4.4,16,8.5S12.6,16,8.5,16S1,12.6,1,8.5S4.4,1,8.5,1 M8.5,0C3.8,0,0,3.8,0,8.5C0,13.2,3.8,17,8.5,17S17,13.2,17,8.5C17,3.8,13.2,0,8.5,0L8.5,0z"/>
	<polygon class="st2" points="0.5,6.2 1.4,5.2 2.3,6.3 2.3,7.4 3.7,7.4 7.6,3.5 8.8,3.5 9.8,4.5 9.8,7.7 6.6,10.9 4.5,10.9 3.4,9.7 2.3,9.7 1.4,10.6 0.4,9.6 "/>
	<path class="st3" d="M8,13.8c2.2,0,4-2.8,4-5.8h-1c0,2-1.3,4.9-3,4.9V13.8z"/>
	<rect x="0" y="5.9" class="st3" width="1" height="4"/>
	<rect x="0.6" y="4.6" transform="matrix(0.7071 0.7071 -0.7071 0.7071 4.2681 0.8892)" class="st3" width="1" height="2"/>
	<rect x="1.3" y="4.6" transform="matrix(-0.7071 0.7071 -0.7071 -0.7071 6.9752 8.3041)" class="st3" width="1" height="2"/>
	<rect x="8.7" y="3.1" transform="matrix(-0.7071 0.7071 -0.7071 -0.7071 18.606 0.4145)" class="st3" width="1" height="2"/>
	<rect x="0.6" y="9.3" transform="matrix(0.7071 -0.7071 0.7071 0.7071 -6.9745 3.7676)" class="st3" width="1" height="2"/>
	<rect x="3.5" y="9.3" transform="matrix(0.7071 -0.7071 0.7071 0.7071 -6.121 5.8281)" class="st3" width="1" height="2"/>
	<rect x="1.3" y="9.3" transform="matrix(-0.7071 -0.7071 0.7071 -0.7071 -4.2674 18.838)" class="st3" width="1" height="2"/>
	<rect x="1.8" y="5.9" class="st3" width="1" height="2"/>
	<rect x="1.8" y="6.9" class="st3" width="2" height="1"/>
	<rect x="7.4" y="3" class="st3" width="1.5" height="1"/>
	<rect x="2.1" y="9.2" class="st3" width="1.5" height="1"/>
	<rect x="4.3" y="10.4" class="st3" width="2.5" height="1"/>
	<rect x="2.6" y="5" transform="matrix(0.7071 -0.7071 0.7071 0.7071 -2.2325 5.5601)" class="st3" width="6" height="1"/>
	<rect x="5.8" y="8.8" transform="matrix(0.7071 -0.7071 0.7071 0.7071 -4.1639 8.5175)" class="st3" width="4.9" height="1"/>
	<rect x="9.3" y="4.4" class="st3" width="1" height="3.5"/>
	<rect x="7.3" y="5.9" class="st3" width="3" height="2"/>
</svg>