<?xml version="1.0" encoding="utf-8"?>
<!DOCTYPE svg PUBLIC "-//W3C//DTD SVG 1.1//EN" "http://www.w3.org/Graphics/SVG/1.1/DTD/svg11.dtd">
<svg version="1.1" xmlns="http://www.w3.org/2000/svg" xmlns:xlink="http://www.w3.org/1999/xlink" height="17" width="17" xml:space="preserve">
	
	<!-- Copyright 2011–2015 KittMedia Productions -->
	<!-- Licensed under GNU Lesser General Public License, version 2.1 (LGPL-2.1) -->
	
	<style type="text/css">
		.st0{fill:url(#SVGID_1_);}
		.st1{fill:#522A06;}
		.st2{fill:#FFFFFF;}
		.st3{fill:none;stroke:#FFFFFF;stroke-miterlimit:10;}
	</style>

	<linearGradient id="SVGID_1_" gradientUnits="userSpaceOnUse" x1="8.9353" y1="16.2637" x2="6.4726" y2="0.7146">
		<stop offset="0" style="stop-color:#7C5129"/>
		<stop offset="0.32" style="stop-color:#8A5F37"/>
		<stop offset="0.33" style="stop-color:#794E26"/>
		<stop offset="0.55" style="stop-color:#8B6038"/>
		<stop offset="0.55" style="stop-color:#7A4F27"/>
		<stop offset="0.76" style="stop-color:#8B6038"/>
		<stop offset="0.76" style="stop-color:#764B23"/>
		<stop offset="1" style="stop-color:#8F643C"/>
	</linearGradient>
	
	<path class="st0" d="M2.2,15.7c-0.4,0-0.8-0.1-1-0.4c-0.6-0.6-0.6-1.8-0.6-1.8c0-0.2,0-1.5,1.6-1.8l0.6-0.1l-0.2-0.6c0,0-0.4-1.1,0-1.9c0.2-0.5,0.7-0.8,1.5-1l0.7-0.2L4.4,7.2c0,0-0.4-0.6-0.2-1.3c0.2-0.6,0.9-1.2,2-1.6l0.7-0.3L6.3,3.6c0,0,0,0,0,0c0,0-0.3-0.5,0.7-1.8l0.1-0.1l0-0.1c0-0.4-0.1-0.7-0.3-0.9c0.7,0.2,4.1,1.2,4,4.1l0,0.5l0.5,0.1c0.7,0.1,1.2,0.3,1.4,0.7c0.3,0.5,0.2,1.1,0.1,1.3l-0.1,0.5l0.4,0.2c0,0,0.9,0.3,1.3,1.2c0.2,0.5,0.2,1.1,0,1.8c-0.1,0.2-0.1,0.4,0,0.6l0.1,0.2l0.4,0l0,0c0.4,0.1,1.4,1.2,1.3,2.1c-0.1,1.1-1.9,1.8-4.8,1.8c-1.5,0-3.4-0.2-5.5-0.5l0,0l-0.1,0c-0.4,0-1.5,0.2-3.2,0.5C2.6,15.7,2.4,15.7,2.2,15.7z"/>
	<path class="st1" d="M7.7,1.4c1.1,0.5,2.8,1.5,2.8,3.3c0,0.5,0.4,1,0.9,1.1c0.4,0,0.9,0.2,1.1,0.5c0.2,0.2,0.1,0.6,0.1,0.9l-0.2,0.9l0.9,0.3c0.4,0.1,1.6,0.7,1,2.3c-0.1,0.2-0.2,0.6,0.1,1.1l0.3,0.4H15l0,0c0.3,0.2,1,1,0.9,1.6c-0.1,0.6-1.3,1.2-4.3,1.2c-1.5,0-3.3-0.2-5.4-0.5c-0.1,0-0.1,0-0.2,0c-0.4,0-1.6,0.2-3.3,0.5c-0.2,0-0.3,0-0.5,0c-0.4,0-0.6-0.1-0.7-0.2c-0.4-0.4-0.4-1.2-0.4-1.5l0-0.1l0-0.1c0-0.1,0-1,1.2-1.3l1.2-0.2l-0.4-1.1c-0.1-0.2-0.3-1,0-1.5c0.2-0.3,0.6-0.6,1.1-0.7l1.4-0.4L4.8,7c0,0-0.3-0.4-0.2-0.8c0.1-0.5,0.7-0.9,1.7-1.3l1.4-0.5l-0.9-1c0-0.1,0.1-0.5,0.6-1.2l0.2-0.2l0-0.3C7.7,1.5,7.7,1.5,7.7,1.4M6.8,0.1c-0.6,0-0.5,0.4-0.5,0.5c0,0.2,0.4,0.5,0.4,0.9C5.3,3.2,6,3.9,6,3.9C2.4,5.3,4,7.5,4,7.5c-3,0.7-1.8,3.6-1.8,3.6c-2.2,0.4-2.1,2.3-2.1,2.3S0,16.2,2.2,16.2c0.2,0,0.4,0,0.7-0.1c2.3-0.5,3-0.5,3.1-0.5c0,0,0.1,0,0.1,0c2.3,0.3,4.1,0.5,5.6,0.5c8.5,0,4.6-4.9,3.5-4.9c0,0-0.1,0-0.1,0c0,0,0,0,0,0c0,0,0-0.1,0-0.2c1-2.7-1.6-3.6-1.6-3.6c0-0.1,0.7-2.3-1.9-2.6c0,0-0.1,0-0.1-0.1C11.6,1.2,7,0.1,6.8,0.1C6.8,0.1,6.8,0.1,6.8,0.1L6.8,0.1z"/>
	<ellipse cx="6" cy="8.5" rx="1.5" ry="2"/>
	<path class="st2" d="M6,7c0.5,0,1,0.7,1,1.5S6.5,10,6,10S5,9.3,5,8.5S5.5,7,6,7 M6,6C4.9,6,4,7.1,4,8.5S4.9,11,6,11s2-1.1,2-2.5S7.1,6,6,6L6,6z"/>
	<ellipse cx="11" cy="8.5" rx="1.5" ry="2"/>
	<path class="st2" d="M11,7c0.5,0,1,0.7,1,1.5S11.5,10,11,10s-1-0.7-1-1.5S10.5,7,11,7 M11,6C9.9,6,9,7.1,9,8.5S9.9,11,11,11s2-1.1,2-2.5S12.1,6,11,6L11,6z"/>
	<path class="st3" d="M6,13c0,0.6,1.1,1,2.5,1"/>
	<path class="st3" d="M11,13c0,0.6-1.1,1-2.5,1"/>
	<rect x="6.5" y="13" class="st2" width="4" height="1"/>
</svg>