<?xml version="1.0" encoding="iso-8859-1"?>
<!DOCTYPE svg PUBLIC "-//W3C//DTD SVG 1.1//EN" "http://www.w3.org/Graphics/SVG/1.1/DTD/svg11.dtd">
<svg version="1.1" xmlns="http://www.w3.org/2000/svg" xmlns:xlink="http://www.w3.org/1999/xlink" height="17" width="17" xml:space="preserve">
	
	<!-- Copyright 2011–2015 KittMedia Productions -->
	<!-- Licensed under GNU Lesser General Public License, version 2.1 (LGPL-2.1) -->
	
	<radialGradient id="SVGID_1_" cx="8.5" cy="8.5" r="8" gradientUnits="userSpaceOnUse">
		<stop offset="0" style="stop-color:#A3EA96"/>
		<stop offset="1" style="stop-color:#46D533"/>
	</radialGradient>
	
	<path style="fill:url(#SVGID_1_);" d="M8.5,16.5c-4.411,0-8-3.589-8-8s3.589-8,8-8s8,3.589,8,8S12.911,16.5,8.5,16.5z"/>
	<path style="fill:#30AF1D;" d="M8.5,1C12.636,1,16,4.364,16,8.5S12.636,16,8.5,16S1,12.636,1,8.5S4.364,1,8.5,1 M8.5,0C3.806,0,0,3.806,0,8.5C0,13.194,3.806,17,8.5,17S17,13.194,17,8.5C17,3.806,13.194,0,8.5,0L8.5,0z"/>
	<polygon style="fill:#FFFFFF;" points="4.878,6.87 5,7 12,7 12.117,6.87 12.617,6.312 12.617,5.335 10.718,3.5 6.194,3.5 4.378,5.294 4.378,6.341 "/>
	<rect x="6" y="6" style="fill:#2D5313;" width="5" height="1"/>
	<rect x="6" y="3" style="fill:#2D5313;" width="5" height="1"/>
	<rect x="5" y="7" style="fill:#2D5313;" width="7" height="1"/>
	<rect x="8" y="4" style="fill:#2D5313;" width="1" height="2"/>
	<rect x="10.203" y="3.914" transform="matrix(0.7071 0.7071 -0.7071 0.7071 6.5489 -6.9824)" style="fill:#2D5313;" width="3" height="1"/>
	<rect x="3.792" y="3.914" transform="matrix(-0.7071 0.7071 -0.7071 -0.7071 12.1554 3.7935)" style="fill:#2D5313;" width="3" height="1"/>
	<rect x="3.878" y="5.12" style="fill:#2D5313;" width="1" height="1.75"/>
	<rect x="12.117" y="5.12" style="fill:#2D5313;" width="1" height="1.75"/>
	<rect x="6.998" y="10.411" style="fill:#2D5313;" width="1" height="1.5"/>
	<rect x="5.939" y="9.561" transform="matrix(-0.7071 -0.7071 0.7071 -0.7071 4.7323 22.0815)" style="fill:#2D5313;" width="2" height="1"/>
	<rect x="5.938" y="11.764" transform="matrix(-0.7071 0.7071 -0.7071 -0.7071 20.5153 16.0308)" style="fill:#2D5313;" width="2" height="1"/>
	<rect x="9.002" y="10.411" style="fill:#2D5313;" width="1" height="1.5"/>
	<rect x="9.061" y="9.561" transform="matrix(0.7071 -0.7071 0.7071 0.7071 -4.1673 10.0607)" style="fill:#2D5313;" width="2" height="1"/>
	<rect x="9.062" y="11.764" transform="matrix(0.7071 0.7071 -0.7071 0.7071 11.6191 -3.5231)" style="fill:#2D5313;" width="2" height="1"/>
</svg>