<?xml version="1.0" encoding="utf-8"?>
<!DOCTYPE svg PUBLIC "-//W3C//DTD SVG 1.1//EN" "http://www.w3.org/Graphics/SVG/1.1/DTD/svg11.dtd">
<svg version="1.1" xmlns="http://www.w3.org/2000/svg" xmlns:xlink="http://www.w3.org/1999/xlink" height="17" width="17" xml:space="preserve">
	
	<!-- Copyright 2011–2015 KittMedia Productions -->
	<!-- Licensed under GNU Lesser General Public License, version 2.1 (LGPL-2.1) -->
	
	<style type="text/css">
		.st0{fill:url(#SVGID_1_);}
		.st1{fill:#30AF1D;}
		.st2{fill:#FFFFFF;}
		.st3{fill:#2D5313;}
	</style>
	
	<radialGradient id="SVGID_1_" cx="8.5" cy="8.5" r="8" gradientUnits="userSpaceOnUse">
		<stop offset="0" style="stop-color:#A3EA96"/>
		<stop offset="1" style="stop-color:#46D533"/>
	</radialGradient>
	
	<path class="st0" d="M8.5,16.5c-4.4,0-8-3.6-8-8s3.6-8,8-8s8,3.6,8,8S12.9,16.5,8.5,16.5z"/>
	<path class="st1" d="M8.5,1C12.6,1,16,4.4,16,8.5S12.6,16,8.5,16S1,12.6,1,8.5S4.4,1,8.5,1 M8.5,0C3.8,0,0,3.8,0,8.5C0,13.2,3.8,17,8.5,17S17,13.2,17,8.5C17,3.8,13.2,0,8.5,0L8.5,0z"/>
	<polygon class="st2" points="4.9,6.9 5,7 12,7 12.1,6.9 12.6,6.3 12.6,5.3 10.7,3.5 6.2,3.5 4.4,5.3 4.4,6.3 "/>
	<rect x="6" y="6" class="st3" width="5" height="1"/>
	<rect x="6" y="3" class="st3" width="5" height="1"/>
	<rect x="5" y="7" class="st3" width="7" height="1"/>
	<rect x="8" y="4" class="st3" width="1" height="2"/>
	<rect x="10.2" y="3.9" transform="matrix(0.7071 0.7071 -0.7071 0.7071 6.5489 -6.9824)" class="st3" width="3" height="1"/>
	<rect x="3.8" y="3.9" transform="matrix(-0.7071 0.7071 -0.7071 -0.7071 12.1554 3.7935)" class="st3" width="3" height="1"/>
	<rect x="3.9" y="5.1" class="st3" width="1" height="1.8"/>
	<rect x="12.1" y="5.1" class="st3" width="1" height="1.8"/>
	<rect x="7" y="10.4" class="st3" width="1" height="1.5"/>
	<rect x="5.9" y="9.6" transform="matrix(-0.7071 -0.7071 0.7071 -0.7071 4.7323 22.0815)" class="st3" width="2" height="1"/>
	<rect x="5.9" y="11.8" transform="matrix(-0.7071 0.7071 -0.7071 -0.7071 20.5153 16.0308)" class="st3" width="2" height="1"/>
	<rect x="9" y="10.4" class="st3" width="1" height="1.5"/>
	<rect x="9.1" y="9.6" transform="matrix(0.7071 -0.7071 0.7071 0.7071 -4.1673 10.0607)" class="st3" width="2" height="1"/>
	<rect x="9.1" y="11.8" transform="matrix(0.7071 0.7071 -0.7071 0.7071 11.6191 -3.5231)" class="st3" width="2" height="1"/>
</svg>