<?xml version="1.0" encoding="iso-8859-1"?>
<!DOCTYPE svg PUBLIC "-//W3C//DTD SVG 1.1//EN" "http://www.w3.org/Graphics/SVG/1.1/DTD/svg11.dtd">
<svg version="1.1" xmlns="http://www.w3.org/2000/svg" xmlns:xlink="http://www.w3.org/1999/xlink" height="17" width="25" xml:space="preserve">
	
	<!-- Copyright 2011–2015 KittMedia Productions -->
	<!-- Licensed under GNU Lesser General Public License, version 2.1 (LGPL-2.1) -->
	
	<radialGradient id="SVGID_1_" cx="6.3327" cy="6.756" r="9.105" gradientUnits="userSpaceOnUse">
		<stop offset="0" style="stop-color:#FFFF98"/>
		<stop offset="1" style="stop-color:#FFD314"/>
	</radialGradient>
	
	<path style="fill:url(#SVGID_1_);" d="M8.5,16.5c-4.411,0-8-3.589-8-8s3.589-8,8-8s8,3.589,8,8S12.911,16.5,8.5,16.5z"/>
	<path style="fill:#CDA70C;" d="M8.5,1C12.636,1,16,4.364,16,8.5S12.636,16,8.5,16S1,12.636,1,8.5S4.364,1,8.5,1 M8.5,0C3.806,0,0,3.806,0,8.5C0,13.194,3.806,17,8.5,17S17,13.194,17,8.5C17,3.806,13.194,0,8.5,0L8.5,0z"/>
	<rect x="20.622" y="1.914" transform="matrix(0.7071 -0.7071 0.7071 0.7071 5.0656 17.0564)" style="fill:#666666;" width="5" height="1"/>
	<rect x="21" style="fill:#666666;" width="4.243" height="1"/>
	<rect x="21" y="3.827" style="fill:#666666;" width="4.243" height="1"/>
	<rect x="18" y="3" style="fill:#666666;" width="2" height="1"/>
	<rect x="19.006" y="3" style="fill:#666666;" width="1" height="2"/>
	<rect x="18.006" y="6" style="fill:#666666;" width="2" height="1"/>
	<rect x="18" y="5" style="fill:#666666;" width="1" height="2"/>
	<rect x="5.413" y="6.121" style="fill:#655B20;" width="1.5" height="1"/>
	<rect x="6.267" y="5.561" transform="matrix(0.7071 -0.7071 0.7071 0.7071 -2.1572 6.9134)" style="fill:#655B20;" width="2" height="1"/>
	<rect x="4.061" y="5.561" transform="matrix(-0.7071 -0.7071 0.7071 -0.7071 4.3536 13.9246)" style="fill:#655B20;" width="2" height="1"/>
	<rect x="10.413" y="6.121" style="fill:#655B20;" width="1.5" height="1"/>
	<rect x="11.267" y="5.561" transform="matrix(0.7071 -0.7071 0.7071 0.7071 -0.6927 10.449)" style="fill:#655B20;" width="2" height="1"/>
	<rect x="10.061" y="12.561" transform="matrix(0.7071 -0.7071 0.7071 0.7071 -5.9957 11.6464)" style="fill:#655B20;" width="2" height="1"/>
	<rect x="9.061" y="5.561" transform="matrix(-0.7071 -0.7071 0.7071 -0.7071 12.889 17.4602)" style="fill:#655B20;" width="2" height="1"/>
</svg>