<?xml version="1.0" encoding="utf-8"?>
<!DOCTYPE svg PUBLIC "-//W3C//DTD SVG 1.1//EN" "http://www.w3.org/Graphics/SVG/1.1/DTD/svg11.dtd">
<svg version="1.1" xmlns="http://www.w3.org/2000/svg" xmlns:xlink="http://www.w3.org/1999/xlink" height="22" width="21" xml:space="preserve">
	
	<!-- Copyright 2011–2015 KittMedia Productions -->
	<!-- Licensed under GNU Lesser General Public License, version 2.1 (LGPL-2.1) -->
	
	<style type="text/css">
		.st0{fill:url(#SVGID_1_);}
		.st1{fill:#CDA70C;}
		.st2{fill:url(#SVGID_2_);}
		.st3{fill:#FFD314;}
		.st4{fill:#FFFFFF;}
		.st5{fill:#655B20;}
		.st6{fill:#AA8506;}
		.st7{fill:#666666;}
		.st8{fill:#655919;}
	</style>
	
	<radialGradient id="SVGID_1_" cx="6.3327" cy="11.756" r="9.105" gradientUnits="userSpaceOnUse">
		<stop offset="0" style="stop-color:#FFFF98"/>
		<stop offset="1" style="stop-color:#FFD314"/>
	</radialGradient>
	
	<path class="st0" d="M8.5,21.5c-4.4,0-8-3.6-8-8s3.6-8,8-8s8,3.6,8,8S12.9,21.5,8.5,21.5z"/>
	<path class="st1" d="M8.5,6c4.1,0,7.5,3.4,7.5,7.5S12.6,21,8.5,21S1,17.6,1,13.5S4.4,6,8.5,6 M8.5,5C3.8,5,0,8.8,0,13.5C0,18.2,3.8,22,8.5,22s8.5-3.8,8.5-8.5C17,8.8,13.2,5,8.5,5L8.5,5z"/>
	
	<linearGradient id="SVGID_2_" gradientUnits="userSpaceOnUse" x1="14.5" y1="9.1673" x2="19.9517" y2="9.1673">
		<stop offset="0" style="stop-color:#FFFF98"/>
		<stop offset="1" style="stop-color:#FFD314"/>
	</linearGradient>
	
	<polygon class="st2" points="14.5,6.1 20,6.1 20,9.6 17.3,12.2 14.5,9.5 "/>
	<rect x="15.5" y="14.8" class="st3" width="3.5" height="5.3"/>
	<path class="st4" d="M6.3,13.4c-0.1,0-0.2,0-0.3,0c-0.5-0.1-0.9-0.5-1.2-1c-0.3-0.5-0.4-1.2-0.2-1.9c0.3-1.2,1.9-2,2.5-2c0.3,0.1,1.7,1.5,1.4,2.9C8.2,12.6,7.3,13.4,6.3,13.4z"/>
	<path class="st5" d="M6.9,9c0.4,0.3,1.2,1.4,1.1,2.2c-0.2,1-0.9,1.7-1.7,1.7c-0.1,0-0.2,0-0.2,0c-0.8-0.2-1.3-1.2-1.1-2.3C5.2,9.7,6.5,9.1,6.9,9 M7,8c-0.7,0-2.6,0.9-3,2.4c-0.3,1.6,0.5,3.2,1.8,3.5c0.1,0,0.3,0,0.4,0c1.2,0,2.3-1,2.6-2.5C9.3,9.8,7.7,8.1,7.1,8C7.1,8,7.1,8,7,8L7,8z"/>
	<path class="st4" d="M10.7,13.4c-1,0-1.9-0.9-2.1-2.1C8.3,10,9.7,8.6,10,8.5c0.5,0,2.2,0.8,2.5,2c0.1,0.7,0.1,1.3-0.2,1.9c-0.3,0.5-0.7,0.9-1.2,1C10.9,13.4,10.8,13.4,10.7,13.4z"/>
	<path class="st5" d="M10.1,9c0.5,0.1,1.7,0.7,1.9,1.6c0.2,1.1-0.3,2.1-1.1,2.3c-0.1,0-0.2,0-0.2,0c-0.7,0-1.5-0.7-1.7-1.7C8.8,10.4,9.7,9.3,10.1,9 M10,8c0,0-0.1,0-0.1,0C9.3,8.1,7.7,9.8,8,11.5c0.3,1.4,1.4,2.5,2.6,2.5c0.1,0,0.3,0,0.4,0c1.4-0.3,2.2-1.8,1.8-3.5C12.6,8.9,10.7,8,10,8L10,8z"/>
	<rect x="7" y="10" class="st4" width="3" height="2"/>
	<rect x="8.6" y="11.3" transform="matrix(0.7071 -0.7071 0.7071 0.7071 -5.6136 10.0987)" class="st5" width="1.5" height="1"/>
	<rect x="6.9" y="11.3" transform="matrix(-0.7071 -0.7071 0.7071 -0.7071 4.6388 25.5725)" class="st5" width="1.5" height="1"/>
	<rect x="14.7" y="15.9" class="st6" width="5" height="1"/>
	<rect x="14.7" y="17.9" class="st6" width="5" height="1"/>
	<rect x="14.7" y="14.9" class="st6" width="1" height="5"/>
	<rect x="14.9" y="14.3" transform="matrix(0.7071 -0.7071 0.7071 0.7071 -5.867 15.3617)" class="st6" width="1.5" height="1"/>
	<rect x="14.9" y="19.6" transform="matrix(0.7071 0.7071 -0.7071 0.7071 18.7962 -5.1459)" class="st6" width="1.5" height="1"/>
	<rect x="18.7" y="14.9" class="st6" width="1" height="5"/>
	<rect x="18.1" y="14.3" transform="matrix(-0.7071 -0.7071 0.7071 -0.7071 21.7262 38.5253)" class="st6" width="1.5" height="1"/>
	<rect x="18.1" y="19.6" transform="matrix(-0.7071 0.7071 -0.7071 -0.7071 46.3895 21.0171)" class="st6" width="1.5" height="1"/>
	<rect x="15.8" y="13.9" class="st6" width="2.9" height="1"/>
	<rect x="15.8" y="20" class="st6" width="2.9" height="1"/>
	<rect x="15.2" y="21" class="st7" width="4" height="1"/>
	<rect x="16.5" y="11.6" class="st7" width="1.5" height="2.2"/>
	<rect x="18.4" y="9" transform="matrix(0.7071 0.7071 -0.7071 0.7071 13.1233 -10.1889)" class="st7" width="1" height="3.5"/>
	<rect x="15.1" y="9" transform="matrix(-0.7071 0.7071 -0.7071 -0.7071 34.2146 7.3213)" class="st7" width="1" height="3.5"/>
	<rect x="14" y="5.4" class="st7" width="1" height="4.5"/>
	<rect x="19.5" y="5.4" class="st7" width="1" height="4.5"/>
	<rect x="16" y="4" class="st3" width="1" height="1"/>
	<rect x="17" y="2" class="st3" width="1" height="1"/>
	<rect x="15" y="1" class="st3" width="1" height="1"/>
	<rect x="19" y="3" class="st3" width="1" height="1"/>
	<rect x="20" class="st3" width="1" height="1"/>
	<path class="st8" d="M8,18c-2.2,0-4-1.3-4-3h1c0,1.1,1.3,2,3,2V18z"/>
	<path class="st8" d="M9,18c2.2,0,4-1.3,4-3h-1c0,1.1-1.3,2-3,2V18z"/>
	<rect x="8" y="17" class="st8" width="1" height="1"/>
</svg>