<?xml version="1.0" encoding="iso-8859-1"?>
<!DOCTYPE svg PUBLIC "-//W3C//DTD SVG 1.1//EN" "http://www.w3.org/Graphics/SVG/1.1/DTD/svg11.dtd">
<svg version="1.1" xmlns="http://www.w3.org/2000/svg" xmlns:xlink="http://www.w3.org/1999/xlink" height="22" width="21" xml:space="preserve">
	
	<!-- Copyright 2011–2015 KittMedia Productions -->
	<!-- Licensed under GNU Lesser General Public License, version 2.1 (LGPL-2.1) -->
	
	<radialGradient id="SVGID_1_" cx="6.3327" cy="11.756" r="9.105" gradientUnits="userSpaceOnUse">
		<stop  offset="0" style="stop-color:#FFFF98"/>
		<stop  offset="1" style="stop-color:#FFD314"/>
	</radialGradient>
	
	<path style="fill:url(#SVGID_1_);" d="M8.5,21.5c-4.411,0-8-3.589-8-8s3.589-8,8-8s8,3.589,8,8S12.911,21.5,8.5,21.5z"/>
	<path style="fill:#CDA70C;" d="M8.5,6c4.136,0,7.5,3.364,7.5,7.5S12.636,21,8.5,21S1,17.636,1,13.5S4.364,6,8.5,6 M8.5,5C3.806,5,0,8.806,0,13.5C0,18.194,3.806,22,8.5,22s8.5-3.806,8.5-8.5C17,8.806,13.194,5,8.5,5L8.5,5z"/>
	
	<linearGradient id="SVGID_2_" gradientUnits="userSpaceOnUse" x1="14.5" y1="9.1673" x2="19.9517" y2="9.1673">
		<stop offset="0" style="stop-color:#FFFF98"/>
		<stop offset="1" style="stop-color:#FFD314"/>
	</linearGradient>
	
	<polygon style="fill:url(#SVGID_2_);" points="14.5,6.085 19.952,6.085 19.952,9.58 17.283,12.249 14.51,9.477 "/>
	<rect x="15.452" y="14.813" style="fill:#FFD314;" width="3.548" height="5.253"/>
	<path style="fill:#FFFFFF;" d="M6.34,13.43c-0.112,0-0.225-0.012-0.334-0.035c-0.505-0.107-0.935-0.452-1.208-0.971c-0.29-0.549-0.371-1.221-0.229-1.892C4.829,9.298,6.509,8.5,7.032,8.5c0.333,0.104,1.733,1.517,1.448,2.862C8.227,12.561,7.327,13.43,6.34,13.43z"/>
	<path style="fill:#655B20;" d="M6.93,9.017c0.382,0.294,1.249,1.359,1.062,2.241C7.79,12.211,7.079,12.93,6.339,12.93c-0.077,0-0.154-0.008-0.23-0.024c-0.795-0.169-1.277-1.208-1.052-2.27C5.245,9.747,6.464,9.128,6.93,9.017 M7.032,8c-0.696,0-2.63,0.902-2.954,2.429c-0.344,1.622,0.473,3.169,1.823,3.455c0.146,0.031,0.292,0.046,0.437,0.046c1.198,0,2.324-1.018,2.631-2.465C9.314,9.844,7.694,8.127,7.147,8.01C7.114,8.003,7.075,8,7.032,8L7.032,8z"/>
	<path style="fill:#FFFFFF;" d="M10.678,13.43c-0.986,0-1.887-0.87-2.141-2.068c-0.285-1.345,1.116-2.758,1.446-2.864c0.525,0.002,2.205,0.801,2.467,2.035c0.143,0.67,0.061,1.342-0.229,1.892c-0.273,0.519-0.703,0.864-1.208,0.971C10.901,13.418,10.789,13.43,10.678,13.43z"/>
	<path style="fill:#655B20;" d="M10.087,9.017c0.466,0.11,1.685,0.73,1.873,1.619c0.225,1.062-0.257,2.101-1.052,2.27c-0.076,0.016-0.153,0.024-0.23,0.024c-0.74,0-1.45-0.719-1.652-1.672C8.839,10.377,9.705,9.311,10.087,9.017 M9.985,8C9.942,8,9.904,8.003,9.871,8.01c-0.548,0.116-2.167,1.833-1.823,3.455c0.307,1.447,1.432,2.465,2.631,2.465c0.145,0,0.291-0.015,0.437-0.046c1.351-0.286,2.167-1.833,1.823-3.455C12.615,8.902,10.681,8,9.985,8L9.985,8z"/>
	<rect x="7" y="10" style="fill:#FFFFFF;" width="3" height="2"/>
	<rect x="8.633" y="11.326" transform="matrix(0.7071 -0.7071 0.7071 0.7071 -5.6136 10.0987)" style="fill:#655B20;" width="1.5" height="1"/>
	<rect x="6.866" y="11.326" transform="matrix(-0.7071 -0.7071 0.7071 -0.7071 4.6388 25.5725)" style="fill:#655B20;" width="1.5" height="1"/>
	<rect x="14.726" y="15.94" style="fill:#AA8506;" width="5" height="1"/>
	<rect x="14.726" y="17.94" style="fill:#AA8506;" width="5" height="1"/>
	<rect x="14.726" y="14.94" style="fill:#AA8506;" width="1" height="5"/>
	<rect x="14.86" y="14.263" transform="matrix(0.7071 -0.7071 0.7071 0.7071 -5.867 15.3617)" style="fill:#AA8506;" width="1.5" height="1"/>
	<rect x="14.86" y="19.616" transform="matrix(0.7071 0.7071 -0.7071 0.7071 18.7962 -5.1459)" style="fill:#AA8506;" width="1.5" height="1"/>
	<rect x="18.726" y="14.94" style="fill:#AA8506;" width="1" height="5"/>
	<rect x="18.092" y="14.263" transform="matrix(-0.7071 -0.7071 0.7071 -0.7071 21.7262 38.5253)" style="fill:#AA8506;" width="1.5" height="1"/>
	<rect x="18.092" y="19.616" transform="matrix(-0.7071 0.7071 -0.7071 -0.7071 46.3895 21.0171)" style="fill:#AA8506;" width="1.5" height="1"/>
	<rect x="15.787" y="13.879" style="fill:#AA8506;" width="2.879" height="1"/>
	<rect x="15.787" y="20" style="fill:#AA8506;" width="2.879" height="1"/>
	<rect x="15.226" y="21" style="fill:#666666;" width="4" height="1"/>
	<rect x="16.476" y="11.629" style="fill:#666666;" width="1.5" height="2.25"/>
	<rect x="18.361" y="8.997" transform="matrix(0.7071 0.7071 -0.7071 0.7071 13.1233 -10.1889)" style="fill:#666666;" width="1" height="3.5"/>
	<rect x="15.091" y="8.997" transform="matrix(-0.7071 0.7071 -0.7071 -0.7071 34.2146 7.3213)" style="fill:#666666;" width="1" height="3.5"/>
	<rect x="14" y="5.366" style="fill:#666666;" width="1" height="4.5"/>
	<rect x="19.452" y="5.366" style="fill:#666666;" width="1" height="4.5"/>
	<rect x="16" y="4" style="fill:#FFD314;" width="1" height="1"/>
	<rect x="17" y="2" style="fill:#FFD314;" width="1" height="1"/>
	<rect x="15" y="1" style="fill:#FFD314;" width="1" height="1"/>
	<rect x="19" y="3" style="fill:#FFD314;" width="1" height="1"/>
	<rect x="20" style="fill:#FFD314;" width="1" height="1"/>
	<path style="fill:none;stroke:#655919;stroke-miterlimit:10;" d="M4.5,15.5c0,1.382,1.789,2.5,4,2.5"/>
	<path style="fill:none;stroke:#655919;stroke-miterlimit:10;" d="M12.5,15.5c0,1.382-1.789,2.5-4,2.5"/>
</svg>