<?xml version="1.0" encoding="utf-8"?>
<!DOCTYPE svg PUBLIC "-//W3C//DTD SVG 1.1//EN" "http://www.w3.org/Graphics/SVG/1.1/DTD/svg11.dtd">
<svg version="1.1" xmlns="http://www.w3.org/2000/svg" xmlns:xlink="http://www.w3.org/1999/xlink" height="17" width="17" xml:space="preserve">
	
	<!-- Copyright 2011–2015 KittMedia Productions -->
	<!-- Licensed under GNU Lesser General Public License, version 2.1 (LGPL-2.1) -->
	
	<style type="text/css">
		.st0{fill:url(#SVGID_1_);}
		.st1{fill:#CDA70C;}
		.st2{fill:none;stroke:#655919;stroke-miterlimit:10;}
		.st3{fill:#FFFFFF;}
		.st4{fill:#655919;}
	</style>
	
	<radialGradient id="SVGID_1_" cx="6.3327" cy="6.756" r="9.105" gradientUnits="userSpaceOnUse">
		<stop offset="0" style="stop-color:#FFFF98"/>
		<stop offset="1" style="stop-color:#FFD314"/>
	</radialGradient>
	
	<path class="st0" d="M8.5,16.5c-4.4,0-8-3.6-8-8s3.6-8,8-8s8,3.6,8,8S12.9,16.5,8.5,16.5z"/>
	<path class="st1" d="M8.5,1C12.6,1,16,4.4,16,8.5S12.6,16,8.5,16S1,12.6,1,8.5S4.4,1,8.5,1 M8.5,0C3.8,0,0,3.8,0,8.5C0,13.2,3.8,17,8.5,17S17,13.2,17,8.5C17,3.8,13.2,0,8.5,0L8.5,0z"/>
	<path class="st2" d="M8.5,11.5"/>
	<polygon class="st3" points="6.9,2.5 3.7,5.7 3.7,8.2 4.9,9.4 7.4,9.4 8.6,8.3 8.6,2.5 "/>
	<rect x="4.6" y="8.9" class="st4" width="3" height="1"/>
	<rect x="3.2" y="8.4" transform="matrix(0.7071 0.7071 -0.7071 0.7071 7.5241 -0.3879)" class="st4" width="2" height="1"/>
	<rect x="6.9" y="8.4" transform="matrix(-0.7071 0.7071 -0.7071 -0.7071 19.8384 9.5596)" class="st4" width="2" height="1"/>
	<rect x="3.2" y="5.5" class="st4" width="1" height="3"/>
	<rect x="2.8" y="3.6" transform="matrix(0.7071 -0.7071 0.7071 0.7071 -1.3645 4.9483)" class="st4" width="5" height="1"/>
	<rect x="8" y="2.5" class="st4" width="1" height="6"/>
	<rect x="6.7" y="2" class="st4" width="2.3" height="1"/>
	<polygon class="st3" points="10.1,2.5 13.3,5.7 13.3,8.2 12.1,9.4 9.6,9.4 8.4,8.3 8.4,2.5 "/>
	<rect x="9.4" y="8.9" class="st4" width="3" height="1"/>
	<rect x="11.8" y="8.4" transform="matrix(-0.7071 0.7071 -0.7071 -0.7071 28.0844 6.1438)" class="st4" width="2" height="1"/>
	<rect x="8.1" y="8.4" transform="matrix(0.7071 0.7071 -0.7071 0.7071 8.939 -3.8035)" class="st4" width="2" height="1"/>
	<rect x="12.8" y="5.5" class="st4" width="1" height="3"/>
	<rect x="9.2" y="3.6" transform="matrix(-0.7071 -0.7071 0.7071 -0.7071 17.0744 15.3151)" class="st4" width="5" height="1"/>
	<rect x="8" y="2.5" class="st4" width="1" height="6"/>
	<rect x="8" y="2" class="st4" width="2.3" height="1"/>
	<rect x="6.2" y="5.2" class="st4" width="4.5" height="2.5"/>
	<path class="st4" d="M8.5,11c-2.2,0-4,1.3-4,3h1c0-1.1,1.3-2,3-2V11z"/>
	<path class="st4" d="M8.5,11c2.2,0,4,1.3,4,3h-1c0-1.1-1.3-2-3-2V11z"/>
</svg>