<?xml version="1.0" encoding="utf-8"?>
<!DOCTYPE svg PUBLIC "-//W3C//DTD SVG 1.1//EN" "http://www.w3.org/Graphics/SVG/1.1/DTD/svg11.dtd">
<svg version="1.1" xmlns="http://www.w3.org/2000/svg" xmlns:xlink="http://www.w3.org/1999/xlink" height="17" width="28" xml:space="preserve">
	
	<!-- Copyright 2011–2015 KittMedia Productions -->
	<!-- Licensed under GNU Lesser General Public License, version 2.1 (LGPL-2.1) -->
	
	<style type="text/css">
		.st0{fill:url(#SVGID_1_);}
		.st1{fill:#CDA70E;}
		.st2{fill:#0A6E31;}
		.st3{fill:#3FAB35;}
		.st4{fill:#FFFFFF;}
		.st5{fill:#665C20;}
		.st6{fill:#FFD418;}
	</style>
	
	<radialGradient id="SVGID_1_" cx="6.3327" cy="6.756" r="9.105" gradientUnits="userSpaceOnUse">
		<stop offset="0" style="stop-color:#F9F19A"/>
		<stop offset="1" style="stop-color:#FFD418"/>
	</radialGradient>
	
	<path class="st0" d="M8.5,16.5c-4.4,0-8-3.6-8-8s3.6-8,8-8s8,3.6,8,8S12.9,16.5,8.5,16.5z"/>
	<path class="st1" d="M8.5,1C12.6,1,16,4.4,16,8.5S12.6,16,8.5,16S1,12.6,1,8.5S4.4,1,8.5,1 M8.5,0C3.8,0,0,3.8,0,8.5C0,13.2,3.8,17,8.5,17S17,13.2,17,8.5C17,3.8,13.2,0,8.5,0L8.5,0z"/>
	<rect x="21.5" y="10.5" class="st2" width="4.4" height="5"/>
	<path class="st3" d="M25.4,11v4H22v-4H25.4 M26.4,10h-1H22h-1v1v4v1h1h3.4h1v-1v-4V10L26.4,10z"/>
	<rect x="21" y="5.7" class="st2" width="1" height="2"/>
	<rect x="20" y="5.7" class="st3" width="1" height="2"/>
	<rect x="22.4" y="8.1" class="st2" width="3" height="1"/>
	<rect x="22.4" y="9.1" class="st3" width="3" height="1"/>
	<rect x="24.4" y="5.7" class="st2" width="1" height="3.4"/>
	<rect x="25.4" y="5.7" class="st3" width="1" height="4.4"/>
	<rect x="23.1" y="3.6" class="st2" width="2" height="1"/>
	<rect x="25" y="3.7" transform="matrix(-0.7071 0.7071 -0.7071 -0.7071 46.7786 -10.0703)" class="st2" width="1" height="2"/>
	<rect x="25" y="4.4" transform="matrix(0.7071 0.7071 -0.7071 0.7071 11.2516 -16.4435)" class="st2" width="1" height="2"/>
	<rect x="26" y="4.8" transform="matrix(0.7071 0.7071 -0.7071 0.7071 11.8379 -17.0291)" class="st3" width="1" height="2"/>
	<rect x="21.6" y="7.1" transform="matrix(0.7071 -0.7071 0.7071 0.7071 0.758 17.9622)" class="st2" width="1" height="2"/>
	<rect x="21.1" y="6.9" transform="matrix(0.7071 -0.7071 0.7071 0.7071 0.2574 17.7564)" class="st3" width="1" height="3.4"/>
	<rect x="21.9" y="3.5" transform="matrix(0.7071 0.7071 -0.7071 0.7071 10.1053 -14.3833)" class="st2" width="1" height="3"/>
	<rect x="21.2" y="2.8" transform="matrix(0.7071 0.7071 -0.7071 0.7071 9.6896 -13.9719)" class="st3" width="1" height="3.8"/>
	<polygon class="st2" points="21.5,6.7 21.5,5.9 23.3,4.1 24.9,4.1 25.8,5 24.9,5.9 24.9,8.6 22.6,8.6 21.5,7.6 "/>
	<rect x="22.7" y="3" class="st3" width="2.8" height="1"/>
	<rect x="25.8" y="2.9" transform="matrix(-0.7071 0.7071 -0.7071 -0.7071 48.0224 -10.971)" class="st3" width="1" height="3.1"/>
	<rect x="7.7" y="5" class="st4" width="1.5" height="2.2"/>
	<rect x="9.1" y="5.5" class="st5" width="1" height="2.3"/>
	<rect x="10" y="6.4" class="st5" width="0.6" height="0.9"/>
	<rect x="6.4" y="4.9" transform="matrix(0.7071 0.7071 -0.7071 0.7071 6.6353 -5.2176)" class="st5" width="6.4" height="1"/>
	<rect x="7" y="7" class="st5" width="4.5" height="1"/>
	<rect x="7" y="5" class="st5" width="1" height="3"/>
	<rect x="13" y="5" class="st5" width="1" height="2"/>
	<rect x="13" y="6" class="st5" width="2" height="1"/>
	<path class="st4" d="M11.3,16c-0.3-0.1-0.6-0.2-0.8-0.3c-2.5-0.9-4.3-2.8-3.8-4.1c0.3-0.7,1.3-1.2,2.7-1.2c0.9,0,1.9,0.2,2.9,0.5c1.2,0.4,2.3,1.1,3,1.9C14.2,14.3,12.8,15.4,11.3,16z"/>
	<path class="st5" d="M9.3,11c0.8,0,1.8,0.2,2.7,0.5c1,0.4,1.9,0.9,2.5,1.5c-0.8,1.1-2,2-3.3,2.5c-0.2-0.1-0.4-0.1-0.6-0.2C8,14.3,6.8,12.6,7,11.9C7.2,11.3,8.1,11,9.3,11 M9.3,10c-1.6,0-2.8,0.5-3.2,1.5c-0.6,1.6,1.3,3.7,4.1,4.7c0.3,0.1,0.7,0.2,1,0.3c1.9-0.7,3.5-2,4.5-3.6c-0.7-0.9-2-1.8-3.5-2.3C11.2,10.2,10.2,10,9.3,10L9.3,10z"/>
	<rect x="8" y="11" class="st5" width="1" height="4"/>
	<rect x="12" y="11" class="st5" width="1" height="4.5"/>
	<rect x="10" y="11" class="st5" width="1" height="5"/>
	<polygon class="st6" points="19.5,13.5 19.5,8.5 22.5,8.5 22.5,10.5 21.5,10.5 21.5,13.5 	"/>
	<path class="st5" d="M22,9v1h-1v3h-1v-3V9h1H22 M23,8h-1h-1h-1h-1v1v1v3v1h1h1h1v-1v-2h1v-1V9V8L23,8z"/>
	<polygon class="st6" points="24.5,13.5 24.5,12.5 23.5,12.5 23.5,9.5 24.5,9.5 24.5,8.5 27.5,8.5 27.5,12.5 26.5,12.5 26.5,13.5 "/>
	<path class="st5" d="M27,9v3h-1v1h-1v-1h-1v-2h1V9h1H27 M28,8h-1h-1h-1h-1v1h-1v1v2v1h1v1h1h1h1v-1h1v-1V9V8L28,8z"/>
</svg>