<?xml version="1.0" encoding="utf-8"?>
<!DOCTYPE svg PUBLIC "-//W3C//DTD SVG 1.1//EN" "http://www.w3.org/Graphics/SVG/1.1/DTD/svg11.dtd">
<svg version="1.1" xmlns="http://www.w3.org/2000/svg" xmlns:xlink="http://www.w3.org/1999/xlink" height="18" width="18" xml:space="preserve">
	
	<!-- Copyright 2011–2015 KittMedia Productions -->
	<!-- Licensed under GNU Lesser General Public License, version 2.1 (LGPL-2.1) -->
	
	<style type="text/css">
		.st0{fill:url(#SVGID_1_);}
		.st1{fill:#CDA70C;}
		.st2{fill:#655B20;}
		.st3{fill:#655919;}
		.st4{fill:#FFFFFF;stroke:#4C4926;stroke-miterlimit:10;}
		.st5{fill:none;stroke:#655919;stroke-miterlimit:10;}
		.st6{fill:#4C4926;}
	</style>
	
	<radialGradient id="SVGID_1_" cx="7.3327" cy="6.756" r="9.105" gradientUnits="userSpaceOnUse">
		<stop offset="0" style="stop-color:#FFFF98"/>
		<stop offset="1" style="stop-color:#FFD314"/>
	</radialGradient>
	
	<path class="st0" d="M9.5,16.5c-4.4,0-8-3.6-8-8s3.6-8,8-8s8,3.6,8,8S13.9,16.5,9.5,16.5z"/>
	<path class="st1" d="M9.5,1C13.6,1,17,4.4,17,8.5S13.6,16,9.5,16S2,12.6,2,8.5S5.4,1,9.5,1 M9.5,0C4.8,0,1,3.8,1,8.5C1,13.2,4.8,17,9.5,17S18,13.2,18,8.5C18,3.8,14.2,0,9.5,0L9.5,0z"/>
	<rect x="12" y="5" class="st2" width="3" height="1"/>
	<rect x="7.5" y="5" class="st2" width="3" height="1"/>
	<path class="st3" d="M11,9c-2.2,0-4,1.3-4,3h1c0-1.1,1.3-2,3-2V9z"/>
	<path class="st3" d="M11,9c2.2,0,4,1.3,4,3h-1c0-1.1-1.3-2-3-2V9z"/>
	<path class="st4" d="M4.2,6c2,0,3.7,1.6,3.7,3.7v1.1c0.6-0.1,1.3,0,1.7,0.5c0.7,0.7,0.7,1.9,0,2.6l-2.4,2.4c0,0-0.1,0.1-0.1,0.1L7,16.4c-0.2,0.2-0.3,0.2-0.3,0.3c-0.2,0.1-0.3,0.2-0.5,0.2C5.9,17,5.6,17,5.4,17l-2.4,0c-1.4,0-2.4-1.1-2.4-2.4l0-4.9C0.5,7.6,2.1,6,4.2,6z"/>
	<path class="st5" d="M9.5,10.5"/>
	<path class="st5" d="M15,13.5"/>
	<rect x="5.6" y="6.5" class="st6" width="0.5" height="5"/>
	<rect x="3.8" y="6.5" class="st6" width="0.5" height="5"/>
	<rect x="2" y="6.5" class="st6" width="0.5" height="5.5"/>
</svg>