<?xml version="1.0" encoding="utf-8"?>
<!DOCTYPE svg PUBLIC "-//W3C//DTD SVG 1.1//EN" "http://www.w3.org/Graphics/SVG/1.1/DTD/svg11.dtd">
<svg version="1.1" xmlns="http://www.w3.org/2000/svg" xmlns:xlink="http://www.w3.org/1999/xlink" height="17" width="34" xml:space="preserve">
	
	<!-- Copyright 2011–2015 KittMedia Productions -->
	<!-- Licensed under GNU Lesser General Public License, version 2.1 (LGPL-2.1) -->
	
	<style type="text/css">
		.st0{fill:url(#SVGID_1_);}
		.st1{fill:#CDA70E;}
		.st2{fill:#676767;}
		.st3{fill:url(#SVGID_2_);}
		.st4{fill:#4D4A27;}
		.st5{fill:none;stroke:#4D4A27;stroke-miterlimit:10;}
		.st6{fill:#FFFFFF;}
		.st7{fill:#665C20;}
		.st8{fill:none;stroke:#665C20;stroke-linejoin:round;stroke-miterlimit:10;}
	</style>
	
	<radialGradient id="SVGID_1_" cx="23.3327" cy="6.756" r="9.105" gradientUnits="userSpaceOnUse">
		<stop offset="0" style="stop-color:#F9F19A"/>
		<stop offset="1" style="stop-color:#FFD418"/>
	</radialGradient>
	
	<path class="st0" d="M25.5,16.5c-4.4,0-8-3.6-8-8s3.6-8,8-8s8,3.6,8,8S29.9,16.5,25.5,16.5z"/>
	<path class="st1" d="M25.5,1C29.6,1,33,4.4,33,8.5S29.6,16,25.5,16S18,12.6,18,8.5S21.4,1,25.5,1 M25.5,0C20.8,0,17,3.8,17,8.5c0,4.7,3.8,8.5,8.5,8.5S34,13.2,34,8.5C34,3.8,30.2,0,25.5,0L25.5,0z"/>
	<polygon class="st2" points="11.5,16.5 2.5,16.5 0.5,14.5 13.5,14.5 "/>
	
	<radialGradient id="SVGID_2_" cx="5.75" cy="9.6042" r="5.8069" fx="0.7285" fy="9.6888" gradientUnits="userSpaceOnUse">
		<stop offset="0.1" style="stop-color:#FFFFFF"/>
		<stop offset="0.79" style="stop-color:#B0B0B0"/>
		<stop offset="1" style="stop-color:#676767"/>
	</radialGradient>
	
	<path class="st3" d="M9.7,14.5H4.3l-2.8-2.9V5.5c3.7,0,7.3,0,11,0v6.3L9.7,14.5z"/>
	<rect x="1" y="5" class="st4" width="12" height="1"/>
	<rect x="1" y="6" class="st4" width="1" height="6"/>
	<rect x="1.9" y="11.2" transform="matrix(0.7071 -0.7071 0.7071 0.7071 -8.2789 5.4292)" class="st4" width="1" height="3"/>
	<rect x="0.9" y="14.2" transform="matrix(0.7071 -0.7071 0.7071 0.7071 -10.6671 5.5391)" class="st4" width="1" height="2.8"/>
	<rect x="2.8" y="13.4" class="st4" width="1" height="1.5"/>
	<rect x="0" y="14" class="st4" width="14" height="1"/>
	<rect x="2" y="16" class="st4" width="10" height="1"/>
	<rect x="12" y="6" class="st4" width="1" height="6"/>
	<rect x="11.1" y="11.2" transform="matrix(-0.7071 -0.7071 0.7071 -0.7071 10.7921 29.8866)" class="st4" width="1" height="3"/>
	<rect x="12.1" y="14.2" transform="matrix(-0.7071 -0.7071 0.7071 -0.7071 10.527 35.6521)" class="st4" width="1" height="2.8"/>
	<rect x="10.2" y="13.4" class="st4" width="1" height="1.5"/>
	<rect x="12" y="6" class="st4" width="2" height="1"/>
	<rect x="12" y="10" class="st4" width="2" height="1"/>
	<rect x="15" y="8" class="st4" width="1" height="1"/>
	<path class="st5" d="M14,6.5c0.8,0,1.5,0.7,1.5,1.5"/>
	<path class="st5" d="M14,10.5c0.8,0,1.5-0.7,1.5-1.5"/>
	<polygon class="st6" points="25.5,3.6 25.5,7.6 26.8,8.9 28.3,8.9 29.3,7.8 29.3,5.5 27.4,3.5 25.5,3.5 "/>
	<rect x="25" y="3" class="st7" width="1" height="4.5"/>
	<rect x="25" y="3" class="st7" width="2.5" height="1"/>
	<rect x="28.8" y="5.3" class="st7" width="1" height="2.2"/>
	<rect x="26.4" y="7.9" class="st7" width="2" height="1"/>
	<rect x="25.1" y="7.4" transform="matrix(0.7071 0.7071 -0.7071 0.7071 13.1871 -16.1271)" class="st7" width="2" height="1"/>
	<rect x="27.8" y="7.4" transform="matrix(0.7071 -0.7071 0.7071 0.7071 2.8712 22.6411)" class="st7" width="2" height="1"/>
	<rect x="26.7" y="4" transform="matrix(0.7071 0.7071 -0.7071 0.7071 11.4851 -18.6946)" class="st7" width="3.3" height="1"/>
	<rect x="25" y="4.8" class="st7" width="2" height="2.5"/>
	<polygon class="st6" points="25.5,3.6 25.5,7.6 24.2,8.9 22.7,8.9 21.7,7.8 21.7,5.5 23.6,3.5 25.5,3.5 "/>
	<rect x="25" y="3" class="st7" width="1" height="4.5"/>
	<rect x="23.5" y="3" class="st7" width="2.5" height="1"/>
	<rect x="21.2" y="5.3" class="st7" width="1" height="2.2"/>
	<rect x="22.6" y="7.9" class="st7" width="2" height="1"/>
	<rect x="23.9" y="7.4" transform="matrix(-0.7071 0.7071 -0.7071 -0.7071 48.1282 -4.226)" class="st7" width="2" height="1"/>
	<rect x="21.2" y="7.4" transform="matrix(-0.7071 -0.7071 0.7071 -0.7071 32.4023 29.1308)" class="st7" width="2" height="1"/>
	<rect x="21" y="4" transform="matrix(-0.7071 0.7071 -0.7071 -0.7071 41.9296 -8.3347)" class="st7" width="3.3" height="1"/>
	<rect x="22.2" y="4.8" class="st7" width="1.5" height="2.5"/>
	<path class="st8" d="M30.5,10.3c0,1.8-1.5,3.2-3.3,3.2"/>
</svg>