<?xml version="1.0" encoding="utf-8"?>
<!DOCTYPE svg PUBLIC "-//W3C//DTD SVG 1.1//EN" "http://www.w3.org/Graphics/SVG/1.1/DTD/svg11.dtd">
<svg version="1.1" xmlns="http://www.w3.org/2000/svg" xmlns:xlink="http://www.w3.org/1999/xlink" height="17" width="18" xml:space="preserve">
	
	<!-- Copyright 2011–2017 KittMedia -->
	<!-- Licensed under GNU Lesser General Public License, version 2.1 (LGPL-2.1) -->
	
	<style type="text/css">
		.st0{fill:url(#SVGID_1_);}
		.st1{fill:#CDA70C;}
		.st2{fill:#FFFFFF;stroke:#4C4926;stroke-miterlimit:10;}
		.st3{fill:none;stroke:#4C4926;stroke-linecap:round;stroke-miterlimit:10;}
		.st4{fill:none;stroke:#655919;stroke-miterlimit:10;}
		.st5{fill:#655919;}
	</style>
	
	<radialGradient id="SVGID_1_" cx="7.3327" cy="6.756" r="9.105" gradientUnits="userSpaceOnUse">
		<stop offset="0" style="stop-color:#FFFF98"/>
		<stop offset="1" style="stop-color:#FFD314"/>
	</radialGradient>
	
	<circle class="st0" cx="9.5" cy="8.5" r="8"/>
	<path class="st1" d="M9.5,1C13.64,1,17,4.36,17,8.5S13.64,16,9.5,16S2,12.64,2,8.5S5.36,1,9.5,1 M9.5,0C4.81,0,1,3.81,1,8.5C1,13.19,4.81,17,9.5,17S18,13.19,18,8.5C18,3.81,14.19,0,9.5,0L9.5,0z"/>
	<path class="st2" d="M10,10H5.5H5.22c0.53-0.59,0.53-1.5-0.04-2.06c-0.58-0.58-1.54-0.58-2.12,0l-2.12,2.12c-0.15,0.15-0.26,0.32-0.33,0.51C0.54,10.7,0.5,10.84,0.5,11v3.5c0,1.1,0.9,2,2,2h3c1.1,0,2-0.9,2-2V12H10c0.55,0,1-0.45,1-1S10.55,10,10,10z"/>
	<line class="st3" x1="4.25" y1="12" x2="7.25" y2="12"/>
	<line class="st3" x1="4" y1="13.5" x2="7" y2="13.5"/>
	<line class="st3" x1="3.75" y1="15" x2="7.25" y2="15"/>
	<path class="st4" d="M13.5,5c0-0.83-1.12-1.5-2.5-1.5"/>
	<rect x="5.75" y="3" class="st5" width="2.5" height="1"/>
	<rect x="6.25" y="5" class="st5" width="2" height="2"/>
	<rect x="10" y="6" class="st5" width="2" height="2"/>
</svg>