<?xml version="1.0" encoding="utf-8"?>
<!DOCTYPE svg PUBLIC "-//W3C//DTD SVG 1.1//EN" "http://www.w3.org/Graphics/SVG/1.1/DTD/svg11.dtd">
<svg version="1.1" xmlns="http://www.w3.org/2000/svg" xmlns:xlink="http://www.w3.org/1999/xlink" height="17" width="29" xml:space="preserve">
	
	<!-- Copyright 2011–2016 KittMedia Productions -->
	<!-- Licensed under GNU Lesser General Public License, version 2.1 (LGPL-2.1) -->
	
	<style type="text/css">
		.st0{fill:url(#SVGID_1_);}
		.st1{fill:#CDA70C;}
		.st2{fill:url(#SVGID_2_);}
		.st3{fill:#AA8506;}
		.st4{fill:url(#SVGID_3_);}
		.st5{fill:#655B20;}
		.st6{fill:none;stroke:#665919;stroke-miterlimit:10;}
	</style>
	
	<radialGradient id="SVGID_1_" cx="6.3327" cy="6.756" r="9.105" gradientUnits="userSpaceOnUse">
		<stop offset="0" style="stop-color:#FFFF98"/>
		<stop offset="1" style="stop-color:#FFD314"/>
	</radialGradient>
	
	<circle class="st0" cx="8.5" cy="8.5" r="8"/>
	<path class="st1" d="M8.5,1C12.6,1,16,4.4,16,8.5S12.6,16,8.5,16S1,12.6,1,8.5S4.4,1,8.5,1 M8.5,0C3.8,0,0,3.8,0,8.5C0,13.2,3.8,17,8.5,17S17,13.2,17,8.5C17,3.8,13.2,0,8.5,0L8.5,0z"/>
	
	<radialGradient id="SVGID_2_" cx="-45" cy="6.978" r="2.138" gradientTransform="matrix(-1 0 0 -1 -23.9941 18)" gradientUnits="userSpaceOnUse">
		<stop offset="0" style="stop-color:#FFFF98"/>
		<stop offset="1" style="stop-color:#FFD314"/>
	</radialGradient>
	
	<line class="st2" x1="21" y1="8" x2="21" y2="14"/>
	<line class="st3" x1="21" y1="14.5" x2="21" y2="6.5"/>
	<line class="st3" x1="21" y1="14.5" x2="21" y2="14.5"/>
	<line class="st3" x1="21" y1="6.5" x2="21" y2="6.5"/>
	
	<radialGradient id="SVGID_3_" cx="-48.9941" cy="10.0781" r="5.1716" gradientTransform="matrix(-1 0 0 -1 -23.9941 18)" gradientUnits="userSpaceOnUse">
		<stop offset="0" style="stop-color:#FFFF98"/>
		<stop offset="1" style="stop-color:#FFD314"/>
	</radialGradient>
	
	<polygon class="st4" points="27.5,14.3 27.5,12.5 28.5,12.5 28.5,7.5 27.5,7.5 27.5,6.5 26.5,6.5 26.5,1.5 24.5,1.5 24.5,2.5 23.5,2.5 23.5,4.5 22.5,4.5 22.5,5.5 21.5,5.5 21.5,13.5 23.5,13.5 23.5,14.3 "/>
	<rect x="23" y="14" transform="matrix(-1 -1.224647e-16 1.224647e-16 -1 51 29)" class="st3" width="5" height="1"/>
	<rect x="27" y="12" transform="matrix(-1 -1.224647e-16 1.224647e-16 -1 55 27)" class="st3" width="1" height="3"/>
	<rect x="23" y="11" transform="matrix(-1 -1.224647e-16 1.224647e-16 -1 47 26)" class="st3" width="1" height="4"/>
	<rect x="23" y="12" transform="matrix(-1 -1.224647e-16 1.224647e-16 -1 52 25)" class="st3" width="6" height="1"/>
	<rect x="28" y="7" transform="matrix(-1 -1.224647e-16 1.224647e-16 -1 57 20)" class="st3" width="1" height="6"/>
	<rect x="24" y="7" transform="matrix(-1 -1.224647e-16 1.224647e-16 -1 49 20)" class="st3" width="1" height="6"/>
	<rect x="24" y="10" transform="matrix(-1 -1.224647e-16 1.224647e-16 -1 53 21)" class="st3" width="5" height="1"/>
	<rect x="21" y="13" transform="matrix(-1 -1.224647e-16 1.224647e-16 -1 45 27)" class="st3" width="3" height="1"/>
	<rect x="21" y="5" transform="matrix(-1 -1.224647e-16 1.224647e-16 -1 43 19)" class="st3" width="1" height="9"/>
	<rect x="21" y="5" transform="matrix(-1 -1.224647e-16 1.224647e-16 -1 44 11)" class="st3" width="2" height="1"/>
	<rect x="23" y="2" transform="matrix(-1 -1.224647e-16 1.224647e-16 -1 48 5)" class="st3" width="2" height="1"/>
	<rect x="22.5" y="2.5" transform="matrix(6.123234e-17 -1 1 6.123234e-17 20.5 26.5)" class="st3" width="2" height="1"/>
	<rect x="22" y="4" transform="matrix(-1 -1.224647e-16 1.224647e-16 -1 46 9)" class="st3" width="2" height="1"/>
	<rect x="25" y="5" transform="matrix(-1 -1.224647e-16 1.224647e-16 -1 52 11)" class="st3" width="2" height="1"/>
	<rect x="27" y="7" transform="matrix(-1 -1.224647e-16 1.224647e-16 -1 56 15)" class="st3" width="2" height="1"/>
	<rect x="25" y="6" transform="matrix(-1 -1.224647e-16 1.224647e-16 -1 53 13)" class="st3" width="3" height="1"/>
	<rect x="24.1" y="6.4" transform="matrix(-0.7071 0.7071 -0.7071 -0.7071 47.2719 -5.8734)" class="st3" width="1.4" height="1"/>
	<rect x="26" y="1" transform="matrix(-1 -1.224647e-16 1.224647e-16 -1 53 6)" class="st3" width="1" height="4"/>
	<rect x="24" y="1" transform="matrix(-1 -1.224647e-16 1.224647e-16 -1 51 3)" class="st3" width="3" height="1"/>
	<rect x="5" y="5" class="st5" width="2" height="2"/>
	<rect x="10" y="5" class="st5" width="2" height="2"/>
	<path class="st6" d="M4.5,10.2c0,1.4,1.8,2.5,4,2.5l0,0c2.2,0,4-1.1,4-2.5"/>
</svg>