<?xml version="1.0" encoding="utf-8"?>
<!DOCTYPE svg PUBLIC "-//W3C//DTD SVG 1.1//EN" "http://www.w3.org/Graphics/SVG/1.1/DTD/svg11.dtd">
<svg version="1.1" xmlns="http://www.w3.org/2000/svg" xmlns:xlink="http://www.w3.org/1999/xlink" height="17" width="33" xml:space="preserve">
	
	<!-- Copyright 2011–2015 KittMedia Productions -->
	<!-- Licensed under GNU Lesser General Public License, version 2.1 (LGPL-2.1) -->
	
	<style type="text/css">
		.st0{fill:url(#SVGID_1_);}
		.st1{fill:#CDA70C;}
		.st2{fill:url(#SVGID_2_);}
		.st3{fill:#AA8506;}
		.st4{fill:url(#SVGID_3_);}
		.st5{fill:#655B20;}
	</style>
	
	<radialGradient id="SVGID_1_" cx="6.3327" cy="6.756" r="9.105" gradientUnits="userSpaceOnUse">
		<stop offset="0" style="stop-color:#FFFF98"/>
		<stop offset="1" style="stop-color:#FFD314"/>
	</radialGradient>
	
	<path class="st0" d="M8.5,16.5c-4.4,0-8-3.6-8-8s3.6-8,8-8s8,3.6,8,8S12.9,16.5,8.5,16.5z"/>
	<path class="st1" d="M8.5,1C12.6,1,16,4.4,16,8.5S12.6,16,8.5,16S1,12.6,1,8.5S4.4,1,8.5,1 M8.5,0C3.8,0,0,3.8,0,8.5C0,13.2,3.8,17,8.5,17S17,13.2,17,8.5C17,3.8,13.2,0,8.5,0L8.5,0z"/>
	
	<radialGradient id="SVGID_2_" cx="-46" cy="-5.0191" r="2.138" gradientTransform="matrix(0 1 -1 0 23.0029 58.9971)" gradientUnits="userSpaceOnUse">
		<stop offset="0" style="stop-color:#FFFF98"/>
		<stop offset="1" style="stop-color:#FFD314"/>
	</radialGradient>
	
	<line class="st2" x1="25" y1="13" x2="31" y2="13"/>
	<line class="st3" x1="31.5" y1="13" x2="23.5" y2="13"/>
	<line class="st3" x1="31.5" y1="13" x2="31.5" y2="13"/>
	<line class="st3" x1="23.5" y1="13" x2="23.5" y2="13"/>
	
	<radialGradient id="SVGID_3_" cx="-50" cy="-2.919" r="5.1716" gradientTransform="matrix(0 1 -1 0 23.0029 58.9971)" gradientUnits="userSpaceOnUse">
		<stop offset="0" style="stop-color:#FFFF98"/>
		<stop offset="1" style="stop-color:#FFD314"/>
	</radialGradient>
	
	<polygon class="st4" points="32.3,6.5 30.5,6.5 30.5,5.5 25.5,5.5 25.5,6.5 24.5,6.5 24.5,7.5 19.5,7.5 19.5,9.5 20.5,9.5 20.5,10.5 22.5,10.5 22.5,11.5 23.5,11.5 23.5,12.5 31.5,12.5 31.5,10.5 32.3,10.5 "/>
	<rect x="32" y="6" class="st3" width="1" height="5"/>
	<rect x="30" y="6" class="st3" width="3" height="1"/>
	<rect x="29" y="10" class="st3" width="4" height="1"/>
	<rect x="30" y="5" class="st3" width="1" height="6"/>
	<rect x="25" y="5" class="st3" width="6" height="1"/>
	<rect x="25" y="9" class="st3" width="6" height="1"/>
	<rect x="28" y="5" class="st3" width="1" height="5"/>
	<rect x="31" y="10" class="st3" width="1" height="3"/>
	<rect x="23" y="12" class="st3" width="9" height="1"/>
	<rect x="23" y="11" class="st3" width="1" height="2"/>
	<rect x="20" y="9" class="st3" width="1" height="2"/>
	<rect x="20" y="10" class="st3" width="2" height="1"/>
	<rect x="22" y="10" class="st3" width="1" height="2"/>
	<rect x="23" y="7" class="st3" width="1" height="2"/>
	<rect x="25" y="5" class="st3" width="1" height="2"/>
	<rect x="24" y="6" class="st3" width="1" height="3"/>
	<rect x="24.1" y="8.6" transform="matrix(0.7071 0.7071 -0.7071 0.7071 13.7458 -14.8954)" class="st3" width="1.4" height="1"/>
	<rect x="19" y="7" class="st3" width="4" height="1"/>
	<rect x="19" y="7" class="st3" width="1" height="3"/>
	<rect x="6" y="12" class="st5" width="5" height="1"/>
	<rect x="6" y="5" class="st5" width="1" height="3"/>
	<rect x="10" y="5" class="st5" width="1" height="3"/>
</svg>