<?xml version="1.0" encoding="iso-8859-1"?>
<!DOCTYPE svg PUBLIC "-//W3C//DTD SVG 1.1//EN" "http://www.w3.org/Graphics/SVG/1.1/DTD/svg11.dtd">
<svg version="1.1" xmlns="http://www.w3.org/2000/svg" xmlns:xlink="http://www.w3.org/1999/xlink" height="17" width="28" xml:space="preserve">
	
	<!-- Copyright 2011–2015 KittMedia Productions -->
	<!-- Licensed under GNU Lesser General Public License, version 2.1 (LGPL-2.1) -->
	
	<radialGradient id="SVGID_1_" cx="17.3327" cy="6.756" r="9.105" gradientUnits="userSpaceOnUse">
		<stop offset="0" style="stop-color:#FFFF98"/>
		<stop offset="1" style="stop-color:#FFD314"/>
	</radialGradient>
	
	<path style="fill:url(#SVGID_1_);" d="M19.5,16.5c-4.411,0-8-3.589-8-8s3.589-8,8-8s8,3.589,8,8S23.911,16.5,19.5,16.5z"/>
	<path style="fill:#CDA70C;" d="M19.5,1C23.636,1,27,4.364,27,8.5S23.636,16,19.5,16S12,12.636,12,8.5S15.364,1,19.5,1 M19.5,0C14.806,0,11,3.806,11,8.5c0,4.694,3.806,8.5,8.5,8.5S28,13.194,28,8.5C28,3.806,24.194,0,19.5,0L19.5,0z"/>
	
	<radialGradient id="SVGID_2_" cx="8" cy="6.978" r="2.138" gradientUnits="userSpaceOnUse">
		<stop offset="0" style="stop-color:#FFFF98"/>
		<stop offset="1" style="stop-color:#FFD314"/>
	</radialGradient>
	
	<line style="fill:url(#SVGID_2_);" x1="8" y1="10.002" x2="8" y2="3.954"/>
	<path style="fill:none;stroke:#655B20;stroke-miterlimit:10;" d="M20,7.5c0-0.553,0.671-1,1.5-1"/>
	<line style="fill:#AA8506;" x1="8" y1="3.5" x2="8" y2="11.5"/>
	<line style="fill:#AA8506;" x1="8" y1="3.5" x2="8" y2="3.5"/>
	<line style="fill:#AA8506;" x1="8.006" y1="11.5" x2="8.006" y2="11.5"/>
	<rect x="21.5" y="6" style="fill:#655B20;" width="2" height="1"/>
	<path style="fill:none;stroke:#655B20;stroke-miterlimit:10;" d="M15,7.5c0-0.553,0.671-1,1.5-1"/>
	<rect x="16.5" y="6" style="fill:#655B20;" width="2" height="1"/>
	<rect x="16" y="12" style="fill:#655B20;" width="2" height="1"/>
	<rect x="18.71" y="13.121" style="fill:#655B20;" width="2" height="1"/>
	<rect x="17.353" y="12.561" transform="matrix(0.7071 0.7071 -0.7071 0.7071 14.6105 -9.1518)" style="fill:#655B20;" width="2" height="1"/>
	
	<radialGradient id="SVGID_3_" cx="4" cy="9.0781" r="5.1716" gradientUnits="userSpaceOnUse">
		<stop offset="0" style="stop-color:#FFFF98"/>
		<stop offset="1" style="stop-color:#FFD314"/>
	</radialGradient>
	
	<polygon style="fill:url(#SVGID_3_);" points="1.5,2.656 1.5,4.5 0.5,4.5 0.5,9.5 1.5,9.5 1.5,10.5 2.5,10.5 2.5,15.5 4.5,15.5 4.5,14.5 5.5,14.5 5.5,12.5 6.5,12.5 6.5,11.5 7.5,11.5 7.5,3.5 5.5,3.5 5.5,2.656 "/>
	<rect x="1" y="2" style="fill:#AA8506;" width="5" height="1"/>
	<rect x="1" y="2" style="fill:#AA8506;" width="1" height="3"/>
	<rect x="5" y="2" style="fill:#AA8506;" width="1" height="4"/>
	<rect y="4" style="fill:#AA8506;" width="6" height="1"/>
	<rect y="4" style="fill:#AA8506;" width="1" height="6"/>
	<rect x="4" y="4" style="fill:#AA8506;" width="1" height="6"/>
	<rect y="6" style="fill:#AA8506;" width="5" height="1"/>
	<rect x="5" y="3" style="fill:#AA8506;" width="3" height="1"/>
	<rect x="7" y="3" style="fill:#AA8506;" width="1" height="9"/>
	<rect x="6" y="11" style="fill:#AA8506;" width="2" height="1"/>
	<rect x="4" y="14" style="fill:#AA8506;" width="2" height="1"/>
	<rect x="5" y="13" style="fill:#AA8506;" width="1" height="2"/>
	<rect x="5" y="12" style="fill:#AA8506;" width="2" height="1"/>
	<rect x="2" y="11" style="fill:#AA8506;" width="2" height="1"/>
	<rect y="9" style="fill:#AA8506;" width="2" height="1"/>
	<rect x="1" y="10" style="fill:#AA8506;" width="3" height="1"/>
	<rect x="3.441" y="9.647" transform="matrix(0.7071 -0.7071 0.7071 0.7071 -5.9601 5.9047)" style="fill:#AA8506;" width="1.413" height="1"/>
	<rect x="2" y="12" style="fill:#AA8506;" width="1" height="4"/>
	<rect x="2" y="15" style="fill:#AA8506;" width="3" height="1"/>
</svg>