<?xml version="1.0" encoding="utf-8"?>
<!DOCTYPE svg PUBLIC "-//W3C//DTD SVG 1.1//EN" "http://www.w3.org/Graphics/SVG/1.1/DTD/svg11.dtd">
<svg version="1.1" xmlns="http://www.w3.org/2000/svg" xmlns:xlink="http://www.w3.org/1999/xlink" height="17" width="28" xml:space="preserve">
	
	<!-- Copyright 2011–2015 KittMedia Productions -->
	<!-- Licensed under GNU Lesser General Public License, version 2.1 (LGPL-2.1) -->
	
	<style type="text/css">
		.st0{fill:url(#SVGID_1_);}
		.st1{fill:#CDA70C;}
		.st2{fill:url(#SVGID_2_);}
		.st3{fill:#AA8506;}
		.st4{fill:#655B20;}
		.st5{fill:url(#SVGID_3_);}
		.st6{fill:#655919;}
	</style>
	
	<radialGradient id="SVGID_1_" cx="17.3327" cy="6.756" r="9.105" gradientUnits="userSpaceOnUse">
		<stop offset="0" style="stop-color:#FFFF98"/>
		<stop offset="1" style="stop-color:#FFD314"/>
	</radialGradient>
	
	<path class="st0" d="M19.5,16.5c-4.4,0-8-3.6-8-8s3.6-8,8-8s8,3.6,8,8S23.9,16.5,19.5,16.5z"/>
	<path class="st1" d="M19.5,1C23.6,1,27,4.4,27,8.5S23.6,16,19.5,16S12,12.6,12,8.5S15.4,1,19.5,1 M19.5,0C14.8,0,11,3.8,11,8.5c0,4.7,3.8,8.5,8.5,8.5S28,13.2,28,8.5C28,3.8,24.2,0,19.5,0L19.5,0z"/>
	
	<radialGradient id="SVGID_2_" cx="8" cy="6.978" r="2.138" gradientUnits="userSpaceOnUse">
		<stop offset="0" style="stop-color:#FFFF98"/>
		<stop offset="1" style="stop-color:#FFD314"/>
	</radialGradient>
	
	<line class="st2" x1="8" y1="10" x2="8" y2="4"/>
	<line class="st3" x1="8" y1="3.5" x2="8" y2="11.5"/>
	<line class="st3" x1="8" y1="3.5" x2="8" y2="3.5"/>
	<line class="st3" x1="8" y1="11.5" x2="8" y2="11.5"/>
	<rect x="16" y="12" class="st4" width="2" height="1"/>
	<rect x="18.7" y="13.1" class="st4" width="2" height="1"/>
	<rect x="17.4" y="12.6" transform="matrix(0.7071 0.7071 -0.7071 0.7071 14.6105 -9.1518)" class="st4" width="2" height="1"/>
	
	<radialGradient id="SVGID_3_" cx="4" cy="9.0781" r="5.1716" gradientUnits="userSpaceOnUse">
		<stop offset="0" style="stop-color:#FFFF98"/>
		<stop offset="1" style="stop-color:#FFD314"/>
	</radialGradient>
	
	<polygon class="st5" points="1.5,2.7 1.5,4.5 0.5,4.5 0.5,9.5 1.5,9.5 1.5,10.5 2.5,10.5 2.5,15.5 4.5,15.5 4.5,14.5 5.5,14.5 5.5,12.5 6.5,12.5 6.5,11.5 7.5,11.5 7.5,3.5 5.5,3.5 5.5,2.7 "/>
	<rect x="1" y="2" class="st3" width="5" height="1"/>
	<rect x="1" y="2" class="st3" width="1" height="3"/>
	<rect x="5" y="2" class="st3" width="1" height="4"/>
	<rect y="4" class="st3" width="6" height="1"/>
	<rect y="4" class="st3" width="1" height="6"/>
	<rect x="4" y="4" class="st3" width="1" height="6"/>
	<rect y="6" class="st3" width="5" height="1"/>
	<rect x="5" y="3" class="st3" width="3" height="1"/>
	<rect x="7" y="3" class="st3" width="1" height="9"/>
	<rect x="6" y="11" class="st3" width="2" height="1"/>
	<rect x="4" y="14" class="st3" width="2" height="1"/>
	<rect x="5" y="13" class="st3" width="1" height="2"/>
	<rect x="5" y="12" class="st3" width="2" height="1"/>
	<rect x="2" y="11" class="st3" width="2" height="1"/>
	<rect y="9" class="st3" width="2" height="1"/>
	<rect x="1" y="10" class="st3" width="3" height="1"/>
	<rect x="3.4" y="9.6" transform="matrix(0.7071 -0.7071 0.7071 0.7071 -5.9601 5.9047)" class="st3" width="1.4" height="1"/>
	<rect x="2" y="12" class="st3" width="1" height="4"/>
	<rect x="2" y="15" class="st3" width="3" height="1"/>
	<rect x="15" y="5" class="st6" width="4" height="1"/>
	<rect x="15" y="6" class="st6" width="1" height="1"/>
	<rect x="20" y="5" class="st6" width="4" height="1"/>
	<rect x="20" y="6" class="st6" width="1" height="1"/>
</svg>