<?xml version="1.0" encoding="iso-8859-1"?>
<!DOCTYPE svg PUBLIC "-//W3C//DTD SVG 1.1//EN" "http://www.w3.org/Graphics/SVG/1.1/DTD/svg11.dtd">
<svg version="1.1" xmlns="http://www.w3.org/2000/svg" xmlns:xlink="http://www.w3.org/1999/xlink" height="17" width="17" xml:space="preserve">
	
	<!-- Copyright 2011–2015 KittMedia Productions -->
	<!-- Licensed under GNU Lesser General Public License, version 2.1 (LGPL-2.1) -->
	
	<radialGradient id="SVGID_1_" cx="6.3327" cy="6.756" r="9.105" gradientUnits="userSpaceOnUse">
		<stop offset="0" style="stop-color:#FFFF98"/>
		<stop offset="1" style="stop-color:#FFD314"/>
	</radialGradient>
	
	<path style="fill:url(#SVGID_1_);" d="M8.5,16.5c-4.411,0-8-3.589-8-8s3.589-8,8-8s8,3.589,8,8S12.911,16.5,8.5,16.5z"/>
	<path style="fill:#CDA70C;" d="M8.5,1C12.636,1,16,4.364,16,8.5S12.636,16,8.5,16S1,12.636,1,8.5S4.364,1,8.5,1 M8.5,0C3.806,0,0,3.806,0,8.5C0,13.194,3.806,17,8.5,17S17,13.194,17,8.5C17,3.806,13.194,0,8.5,0L8.5,0z"/>
	<circle style="fill:#FFFFFF;" cx="6" cy="6.991" r="2.5"/>
	<path style="fill:#655B20;" d="M6,4.991c1.103,0,2,0.897,2,2s-0.897,2-2,2s-2-0.897-2-2S4.897,4.991,6,4.991 M6,3.991c-1.657,0-3,1.343-3,3c0,1.657,1.343,3,3,3s3-1.343,3-3C9,5.334,7.657,3.991,6,3.991L6,3.991z"/>
	<path style="fill:#AA8506;" d="M3.55,6.499C3.781,5.353,4.792,4.491,6,4.491c1.21,0,2.222,0.864,2.451,2.007H3.55z"/>
	<path style="fill:#655B20;" d="M6,4.991c0.742,0,1.39,0.406,1.736,1.007H4.264C4.61,5.397,5.258,4.991,6,4.991 M6,3.991c-1.657,0-3,1.343-3,3c0,0.002,0.001,0.005,0.001,0.007h5.999C8.999,6.996,9,6.994,9,6.991C9,5.334,7.657,3.991,6,3.991L6,3.991z"/>
	<circle style="fill:#FFFFFF;" cx="10.999" cy="6.991" r="2.5"/>
	<path style="fill:#655B20;" d="M10.999,4.991c1.103,0,2,0.897,2,2s-0.897,2-2,2s-2-0.897-2-2S9.896,4.991,10.999,4.991M10.999,3.991c-1.657,0-3,1.343-3,3c0,1.657,1.343,3,3,3c1.657,0,3-1.343,3-3C13.999,5.334,12.656,3.991,10.999,3.991L10.999,3.991z"/>
	<path style="fill:#AA8506;" d="M8.528,6.499c0.209-1.109,1.237-2.007,2.471-2.007c1.21,0,2.222,0.864,2.451,2.007H8.528z"/>
	<path style="fill:#655B20;" d="M10.999,4.991c0.742,0,1.39,0.406,1.736,1.007H9.263C9.608,5.397,10.257,4.991,10.999,4.991M10.999,3.991c-1.657,0-3,1.343-3,3C7.999,6.994,8,6.996,8,6.998h5.998c0-0.002,0.001-0.005,0.001-0.007C13.999,5.334,12.656,3.991,10.999,3.991L10.999,3.991z"/>
	<rect x="10" y="7" style="fill:#655B20;" width="2" height="1"/>
	<rect x="5" y="7" style="fill:#655B20;" width="2" height="1"/>
	<rect x="8" y="13" style="fill:#655B20;" width="4" height="1"/>
</svg>