<?xml version="1.0" encoding="utf-8"?>
<!DOCTYPE svg PUBLIC "-//W3C//DTD SVG 1.1//EN" "http://www.w3.org/Graphics/SVG/1.1/DTD/svg11.dtd">
<svg version="1.1" xmlns="http://www.w3.org/2000/svg" xmlns:xlink="http://www.w3.org/1999/xlink" height="17" width="17" xml:space="preserve">
	
	<!-- Copyright 2011–2015 KittMedia Productions -->
	<!-- Licensed under GNU Lesser General Public License, version 2.1 (LGPL-2.1) -->
	
	<style type="text/css">
		.st0{fill:url(#SVGID_1_);}
		.st1{fill:#CDA70C;}
		.st2{fill:#FFFFFF;}
		.st3{fill:#655B20;}
		.st4{fill:#AA8506;}
	</style>
	
	<radialGradient id="SVGID_1_" cx="6.3327" cy="6.756" r="9.105" gradientUnits="userSpaceOnUse">
		<stop offset="0" style="stop-color:#FFFF98"/>
		<stop offset="1" style="stop-color:#FFD314"/>
	</radialGradient>
	
	<path class="st0" d="M8.5,16.5c-4.4,0-8-3.6-8-8s3.6-8,8-8s8,3.6,8,8S12.9,16.5,8.5,16.5z"/>
	<path class="st1" d="M8.5,1C12.6,1,16,4.4,16,8.5S12.6,16,8.5,16S1,12.6,1,8.5S4.4,1,8.5,1 M8.5,0C3.8,0,0,3.8,0,8.5C0,13.2,3.8,17,8.5,17S17,13.2,17,8.5C17,3.8,13.2,0,8.5,0L8.5,0z"/>
	<circle class="st2" cx="6" cy="7" r="2.5"/>
	<path class="st3" d="M6,5c1.1,0,2,0.9,2,2S7.1,9,6,9S4,8.1,4,7S4.9,5,6,5 M6,4C4.3,4,3,5.3,3,7c0,1.7,1.3,3,3,3s3-1.3,3-3C9,5.3,7.7,4,6,4L6,4z"/>
	<path class="st4" d="M3.6,6.5c0.2-1.1,1.2-2,2.4-2c1.2,0,2.2,0.9,2.5,2H3.6z"/>
	<path class="st3" d="M6,5c0.7,0,1.4,0.4,1.7,1H4.3C4.6,5.4,5.3,5,6,5 M6,4C4.3,4,3,5.3,3,7c0,0,0,0,0,0h6c0,0,0,0,0,0C9,5.3,7.7,4,6,4L6,4z"/>
	<circle class="st2" cx="11" cy="7" r="2.5"/>
	<path class="st3" d="M11,5c1.1,0,2,0.9,2,2s-0.9,2-2,2S9,8.1,9,7S9.9,5,11,5 M11,4C9.3,4,8,5.3,8,7c0,1.7,1.3,3,3,3c1.7,0,3-1.3,3-3C14,5.3,12.7,4,11,4L11,4z"/>
	<path class="st4" d="M8.5,6.5c0.2-1.1,1.2-2,2.5-2c1.2,0,2.2,0.9,2.5,2H8.5z"/>
	<path class="st3" d="M11,5c0.7,0,1.4,0.4,1.7,1H9.3C9.6,5.4,10.3,5,11,5 M11,4C9.3,4,8,5.3,8,7c0,0,0,0,0,0h6c0,0,0,0,0,0C14,5.3,12.7,4,11,4L11,4z"/>
	<rect x="10" y="7" class="st3" width="2" height="1"/>
	<rect x="5" y="7" class="st3" width="2" height="1"/>
	<rect x="8" y="13" class="st3" width="4" height="1"/>
</svg>