<?xml version="1.0" encoding="utf-8"?>
<!DOCTYPE svg PUBLIC "-//W3C//DTD SVG 1.1//EN" "http://www.w3.org/Graphics/SVG/1.1/DTD/svg11.dtd">
<svg version="1.1" xmlns="http://www.w3.org/2000/svg" xmlns:xlink="http://www.w3.org/1999/xlink" height="18" width="17" xml:space="preserve">
	
	<!-- Copyright 2011–2015 KittMedia Productions -->
	<!-- Licensed under GNU Lesser General Public License, version 2.1 (LGPL-2.1) -->
	
	<style type="text/css">
		.st0{fill:url(#SVGID_1_);}
		.st1{fill:#CDA70C;}
		.st2{fill:#FFFFFF;}
		.st3{fill:#655B20;}
	</style>
	
	<radialGradient id="SVGID_1_" cx="6.3327" cy="7.756" r="9.105" gradientUnits="userSpaceOnUse">
		<stop offset="0" style="stop-color:#FFFF98"/>
		<stop offset="1" style="stop-color:#FFD314"/>
	</radialGradient>
	
	<path class="st0" d="M8.5,17.5c-4.4,0-8-3.6-8-8s3.6-8,8-8s8,3.6,8,8S12.9,17.5,8.5,17.5z"/>
	<path class="st1" d="M8.5,2C12.6,2,16,5.4,16,9.5S12.6,17,8.5,17S1,13.6,1,9.5S4.4,2,8.5,2 M8.5,1C3.8,1,0,4.8,0,9.5C0,14.2,3.8,18,8.5,18S17,14.2,17,9.5C17,4.8,13.2,1,8.5,1L8.5,1z"/>
	<polygon class="st2" points="5.5,0.5 7.5,0.5 9.9,3.1 9.9,5.5 12.1,3.5 14.7,3.5 15.8,4.8 15.8,8.3 14.3,9.9 14.3,13.8 13.2,14.9 11.3,14.9 11.3,17.3 8.9,17.3 7.5,16 7.5,14.3 5.5,14.3 4.5,13.2 4.5,9.9 3,9.9 0.5,7.4 0.5,3.7 3.7,0.5 "/>
	<rect y="3.5" class="st3" width="1" height="4"/>
	<rect x="15.3" y="4.5" class="st3" width="1" height="4"/>
	<rect x="9.4" y="2.8" class="st3" width="1" height="7"/>
	<rect x="1.6" y="-0.4" transform="matrix(0.7071 0.7071 -0.7071 0.7071 2.1213 -0.8787)" class="st3" width="1" height="5"/>
	<rect x="10.5" y="2.9" transform="matrix(0.7071 0.7071 -0.7071 0.7071 6.4975 -6.3832)" class="st3" width="1" height="3.5"/>
	<rect x="14.2" y="7.6" transform="matrix(0.7071 0.7071 -0.7071 0.7071 10.9125 -7.6264)" class="st3" width="1" height="3.5"/>
	<rect x="3.5" y="0" class="st3" width="4" height="1"/>
	<rect x="11.8" y="3.1" class="st3" width="3" height="1"/>
	<rect x="10.8" y="10" class="st3" width="3" height="1"/>
	<rect x="14.2" y="3.6" transform="matrix(0.7071 0.7071 -0.7071 0.7071 7.3639 -9.5357)" class="st3" width="2" height="1"/>
	<rect x="4.1" y="13.2" transform="matrix(0.7071 0.7071 -0.7071 0.7071 11.1825 0.4395)" class="st3" width="2" height="1"/>
	<rect x="7.1" y="16.2" transform="matrix(0.7071 0.7071 -0.7071 0.7071 14.1854 -0.8043)" class="st3" width="2" height="1"/>
	<rect x="6.6" y="1.3" transform="matrix(0.7071 0.7071 -0.7071 0.7071 3.7674 -5.5599)" class="st3" width="4" height="1"/>
	<rect x="-0.2" y="8.1" transform="matrix(0.7071 0.7071 -0.7071 0.7071 6.5956 1.2675)" class="st3" width="4" height="1"/>
	<rect x="2.8" y="9.4" class="st3" width="7.5" height="1"/>
	<rect x="5.4" y="13.8" class="st3" width="2.6" height="1"/>
	<rect x="8.4" y="16.8" class="st3" width="3.4" height="1"/>
	<rect x="3" y="6" class="st3" width="4" height="4"/>
	<rect x="12" y="6" class="st3" width="2" height="2"/>
	<rect x="4" y="9.4" class="st3" width="1" height="4"/>
	<rect x="12.7" y="13.8" transform="matrix(-0.7071 0.7071 -0.7071 -0.7071 33.5321 14.72)" class="st3" width="2" height="1"/>
	<rect x="10.8" y="14.4" class="st3" width="2.6" height="1"/>
	<rect x="13.8" y="9.9" class="st3" width="1" height="4"/>
	<rect x="7" y="9.4" class="st3" width="1" height="7"/>
	<rect x="10.8" y="10" class="st3" width="1" height="7"/>
</svg>