<?xml version="1.0" encoding="utf-8"?>
<!DOCTYPE svg PUBLIC "-//W3C//DTD SVG 1.1//EN" "http://www.w3.org/Graphics/SVG/1.1/DTD/svg11.dtd">
<svg version="1.1" xmlns="http://www.w3.org/2000/svg" xmlns:xlink="http://www.w3.org/1999/xlink" height="18" width="17" xml:space="preserve">
	
	<!-- Copyright 2011–2015 KittMedia Productions -->
	<!-- Licensed under GNU Lesser General Public License, version 2.1 (LGPL-2.1) -->
	
	<style type="text/css">
		.st0{fill:url(#SVGID_1_);}
		.st1{fill:#CDA70C;}
		.st2{fill:#655919;}
		.st3{fill:#FFFFFF;}
	</style>
	
	<radialGradient id="SVGID_1_" cx="6.3327" cy="6.756" r="9.105" gradientUnits="userSpaceOnUse">
		<stop offset="0" style="stop-color:#FFFF98"/>
		<stop offset="1" style="stop-color:#FFD314"/>
	</radialGradient>
	
	<path class="st0" d="M8.5,16.5c-4.4,0-8-3.6-8-8s3.6-8,8-8s8,3.6,8,8S12.9,16.5,8.5,16.5z"/>
	<path class="st1" d="M8.5,1C12.6,1,16,4.4,16,8.5S12.6,16,8.5,16S1,12.6,1,8.5S4.4,1,8.5,1 M8.5,0C3.8,0,0,3.8,0,8.5C0,13.2,3.8,17,8.5,17S17,13.2,17,8.5C17,3.8,13.2,0,8.5,0L8.5,0z"/>
	<path class="st2" d="M8,12c0.6,0,1-0.4,1-1h1c0,1.1-0.9,2-2,2V12z"/>
	<path class="st2" d="M7,12c-0.6,0-1-0.4-1-1H5c0,1.1,0.9,2,2,2V12z"/>
	<polygon class="st3" points="10.8,4 12.4,6.1 12.4,7.7 11.4,8.4 9.4,8.4 8.5,7.7 8.5,4 "/>
	<rect x="10.8" y="7.4" transform="matrix(-0.7071 0.7071 -0.7071 -0.7071 25.7062 5.2307)" class="st2" width="2" height="1"/>
	<rect x="11.8" y="5.1" class="st2" width="1" height="2.5"/>
	<rect x="9.9" y="3.9" transform="matrix(-0.7071 -0.7071 0.7071 -0.7071 16.3654 15.6101)" class="st2" width="3" height="1"/>
	<rect x="9" y="3" class="st2" width="1.7" height="1"/>
	<rect x="10" y="6" class="st2" width="2" height="2"/>
	<polygon class="st3" points="6.2,4 4.6,6.1 4.6,7.7 5.6,8.4 7.6,8.4 8.5,7.7 8.5,4 "/>
	<rect x="4.2" y="7.4" transform="matrix(0.7071 0.7071 -0.7071 0.7071 7.1459 -1.373)" class="st2" width="2" height="1"/>
	<rect x="4.2" y="5.1" class="st2" width="1" height="2.5"/>
	<rect x="4.1" y="3.9" transform="matrix(0.7071 -0.7071 0.7071 0.7071 -1.4867 5.242)" class="st2" width="3" height="1"/>
	<rect x="6.3" y="3" class="st2" width="1.7" height="1"/>
	<rect x="6" y="6" class="st2" width="2" height="2"/>
	<rect x="5.6" y="8" class="st2" width="5.8" height="1"/>
	<rect x="7" y="12" class="st2" width="1" height="1"/>
	<rect x="9" y="11" class="st2" width="3" height="1"/>
	<rect x="8" y="4" class="st2" width="1" height="4"/>
</svg>