<?xml version="1.0" encoding="iso-8859-1"?>
<!DOCTYPE svg PUBLIC "-//W3C//DTD SVG 1.1//EN" "http://www.w3.org/Graphics/SVG/1.1/DTD/svg11.dtd">
<svg version="1.1" xmlns="http://www.w3.org/2000/svg" xmlns:xlink="http://www.w3.org/1999/xlink" height="17" width="17" xml:space="preserve">
	
	<!-- Copyright 2011–2015 KittMedia Productions -->
	<!-- Licensed under GNU Lesser General Public License, version 2.1 (LGPL-2.1) -->
	
	<radialGradient id="SVGID_1_" cx="6.3327" cy="6.756" r="9.105" gradientUnits="userSpaceOnUse">
		<stop offset="0" style="stop-color:#FFFF98"/>
		<stop offset="1" style="stop-color:#FFD314"/>
	</radialGradient>
	
	<path style="fill:url(#SVGID_1_);" d="M8.5,16.5c-4.411,0-8-3.589-8-8s3.589-8,8-8s8,3.589,8,8S12.911,16.5,8.5,16.5z"/>
	<path style="fill:#CDA70C;" d="M8.5,1C12.636,1,16,4.364,16,8.5S12.636,16,8.5,16S1,12.636,1,8.5S4.364,1,8.5,1 M8.5,0C3.806,0,0,3.806,0,8.5C0,13.194,3.806,17,8.5,17S17,13.194,17,8.5C17,3.806,13.194,0,8.5,0L8.5,0z"/>
	<path style="fill:none;stroke:#655919;stroke-miterlimit:10;" d="M5.5,11.5c0,0.553,0.447,1,1,1"/>
	<path style="fill:none;stroke:#655919;stroke-miterlimit:10;" d="M9.5,11.5c0,0.553-0.447,1-1,1"/>
	<rect x="9" y="11.5" style="fill:none;stroke:#655919;stroke-miterlimit:10;" width="3" height="0"/>
	<polygon style="fill:#FFFFFF;" points="6.886,2.537 3.698,5.725 3.698,8.196 4.92,9.418 7.412,9.418 8.567,8.263 8.567,2.537 "/>
	<rect x="4.585" y="8.949" style="fill:#655919;" width="3" height="1"/>
	<rect x="3.23" y="8.388" transform="matrix(0.7071 0.7071 -0.7071 0.7071 7.5241 -0.3879)" style="fill:#655919;" width="2" height="1"/>
	<rect x="6.939" y="8.388" transform="matrix(-0.7071 0.7071 -0.7071 -0.7071 19.8384 9.5596)" style="fill:#655919;" width="2" height="1"/>
	<rect x="3.17" y="5.537" style="fill:#655919;" width="1" height="3"/>
	<rect x="2.791" y="3.621" transform="matrix(0.7071 -0.7071 0.7071 0.7071 -1.3645 4.9483)" style="fill:#655919;" width="5" height="1"/>
	<rect x="8" y="2.537" style="fill:#655919;" width="1" height="6"/>
	<rect x="6.705" y="2" style="fill:#655919;" width="2.295" height="1"/>
	<rect x="5.25" y="6.199" style="fill:#655919;" width="2.75" height="2.75"/>
	<polygon style="fill:#FFFFFF;" points="10.114,2.537 13.302,5.725 13.302,8.196 12.08,9.418 9.588,9.418 8.433,8.263 8.433,2.537 "/>
	<rect x="9.415" y="8.949" style="fill:#655919;" width="3" height="1"/>
	<rect x="11.77" y="8.388" transform="matrix(-0.7071 0.7071 -0.7071 -0.7071 28.0844 6.1438)" style="fill:#655919;" width="2" height="1"/>
	<rect x="8.061" y="8.388" transform="matrix(0.7071 0.7071 -0.7071 0.7071 8.939 -3.8035)" style="fill:#655919;" width="2" height="1"/>
	<rect x="12.83" y="5.537" style="fill:#655919;" width="1" height="3"/>
	<rect x="9.209" y="3.621" transform="matrix(-0.7071 -0.7071 0.7071 -0.7071 17.0744 15.3151)" style="fill:#655919;" width="5" height="1"/>
	<rect x="8" y="2.537" style="fill:#655919;" width="1" height="6"/>
	<rect x="8" y="2" style="fill:#655919;" width="2.295" height="1"/>
	<rect x="10.08" y="6.199" style="fill:#655919;" width="2.75" height="2.75"/>
	<rect x="6.5" y="12" style="fill:#655919;" width="2" height="1"/>
</svg>