<?xml version="1.0" encoding="utf-8"?>
<!DOCTYPE svg PUBLIC "-//W3C//DTD SVG 1.1//EN" "http://www.w3.org/Graphics/SVG/1.1/DTD/svg11.dtd">
<svg version="1.1" xmlns="http://www.w3.org/2000/svg" xmlns:xlink="http://www.w3.org/1999/xlink" height="17" width="17" xml:space="preserve">
	
	<!-- Copyright 2011–2015 KittMedia Productions -->
	<!-- Licensed under GNU Lesser General Public License, version 2.1 (LGPL-2.1) -->
	
	<style type="text/css">
		.st0{fill:url(#SVGID_1_);}
		.st1{fill:#CDA70C;}
		.st2{fill:#655B20;}
		.st3{fill:#531707;}
		.st4{fill:#F84116;}
	</style>
	
	<radialGradient id="SVGID_1_" cx="6.3327" cy="6.756" r="9.105" gradientUnits="userSpaceOnUse">
		<stop offset="0" style="stop-color:#FFFF98"/>
		<stop offset="1" style="stop-color:#FFD314"/>
	</radialGradient>
	
	<path class="st0" d="M8.5,16.5c-4.4,0-8-3.6-8-8s3.6-8,8-8s8,3.6,8,8S12.9,16.5,8.5,16.5z"/>
	<path class="st1" d="M8.5,1C12.6,1,16,4.4,16,8.5S12.6,16,8.5,16S1,12.6,1,8.5S4.4,1,8.5,1 M8.5,0C3.8,0,0,3.8,0,8.5C0,13.2,3.8,17,8.5,17S17,13.2,17,8.5C17,3.8,13.2,0,8.5,0L8.5,0z"/>
	<rect x="4" y="10" class="st2" width="9" height="4"/>
	<path class="st3" d="M10,17H7c-1.1,0-2-0.9-2-2v-3.5h7V15C12,16.1,11.1,17,10,17z"/>
	<path class="st4" d="M9,16H8c-1.1,0-2-0.9-2-2v-2.5h5V14C11,15.1,10.1,16,9,16z"/>
	<rect x="4" y="6" class="st2" width="4" height="1"/>
	<rect x="4.2" y="4.4" transform="matrix(0.7071 0.7071 -0.7071 0.7071 5.3182 -2.9601)" class="st2" width="4" height="1"/>
	<rect x="9" y="6" class="st2" width="4" height="1"/>
	<rect x="8.8" y="4.4" transform="matrix(-0.7071 0.7071 -0.7071 -0.7071 21.8745 0.8184)" class="st2" width="4" height="1"/>
	<rect x="4" y="10.5" class="st3" width="9" height="1"/>
	<rect x="7.8" y="11" class="st2" width="1.5" height="2.5"/>
</svg>