<?xml version="1.0" encoding="utf-8"?>
<!DOCTYPE svg PUBLIC "-//W3C//DTD SVG 1.1//EN" "http://www.w3.org/Graphics/SVG/1.1/DTD/svg11.dtd">
<svg version="1.1" xmlns="http://www.w3.org/2000/svg" xmlns:xlink="http://www.w3.org/1999/xlink" height="17" width="17" xml:space="preserve">
	
	<!-- Copyright 2011–2015 KittMedia Productions -->
	<!-- Licensed under GNU Lesser General Public License, version 2.1 (LGPL-2.1) -->
	
	<style type="text/css">
		.st0{fill:url(#SVGID_1_);}
		.st1{fill:#CDA70C;}
		.st2{fill:#FFFFFF;stroke:#655919;stroke-miterlimit:10;}
		.st3{fill:#655919;}
		.st4{fill:#655B20;}
	</style>
	
	<radialGradient id="SVGID_1_" cx="6.3744" cy="6.756" r="9.1163" gradientTransform="matrix(0.9976 0 0 1 -2.655668e-02 0)" gradientUnits="userSpaceOnUse">
		<stop offset="0" style="stop-color:#FFFF98"/>
		<stop offset="1" style="stop-color:#FFD314"/>
	</radialGradient>
	
	<path class="st0" d="M8.5,16.5c-4.4,0-8-3.6-8-8s3.6-8,8-8c2.3,0,4.4,0.9,5.9,2.6c1.4,1.5,2,3.4,1.8,5.4c-0.1,0.6,0,1.1,0.1,1.7c0.2,1.1,0.4,2.2-0.4,3.4C14.8,15.5,11.2,16.5,8.5,16.5z"/>
	<path class="st1" d="M8.5,1c2.1,0,4.1,0.9,5.5,2.4c1.3,1.4,1.9,3.2,1.7,5c-0.1,0.6,0,1.2,0.1,1.8c0.2,1.1,0.3,2-0.3,3.1c-1,1.7-4.4,2.7-7,2.7C4.4,16,1,12.6,1,8.5S4.4,1,8.5,1 M8.5,0C3.8,0,0,3.8,0,8.5C0,13.2,3.8,17,8.5,17c2.9,0,6.6-1.1,7.9-3.2c1.3-2.1,0.2-3.8,0.3-5.3C17.1,3.8,13.2,0,8.5,0L8.5,0z"/>
	<ellipse class="st2" cx="6.1" cy="5.2" rx="2.4" ry="2.8"/>
	<rect x="5.1" y="3" class="st3" width="2" height="2"/>
	<ellipse class="st2" cx="10.9" cy="5.2" rx="2.4" ry="2.8"/>
	<rect x="9.9" y="3" class="st3" width="2" height="2"/>
	<rect x="13.1" y="11.1" class="st4" width="1.8" height="1.8"/>
</svg>