<?xml version="1.0" encoding="utf-8"?>
<!DOCTYPE svg PUBLIC "-//W3C//DTD SVG 1.1//EN" "http://www.w3.org/Graphics/SVG/1.1/DTD/svg11.dtd">
<svg version="1.1" xmlns="http://www.w3.org/2000/svg" xmlns:xlink="http://www.w3.org/1999/xlink" height="17" width="17" xml:space="preserve">
	
	<!-- Copyright 2011–2015 KittMedia Productions -->
	<!-- Licensed under GNU Lesser General Public License, version 2.1 (LGPL-2.1) -->
	
	<style type="text/css">
		.st0{fill:url(#SVGID_1_);}
		.st1{fill:#CDA70C;}
		.st2{fill:#FF2600;}
		.st3{fill:none;stroke:#655919;stroke-miterlimit:10;}
		.st4{fill:#7B0C00;}
		.st5{fill:#655B20;}
		.st6{fill:#655919;}
	</style>
	
	<radialGradient id="SVGID_1_" cx="6.3327" cy="6.756" r="9.105" gradientUnits="userSpaceOnUse">
		<stop offset="0" style="stop-color:#FFFF98"/>
		<stop offset="1" style="stop-color:#FFD314"/>
	</radialGradient>
	
	<path class="st0" d="M8.5,16.5c-4.4,0-8-3.6-8-8s3.6-8,8-8s8,3.6,8,8S12.9,16.5,8.5,16.5z"/>
	<path class="st1" d="M8.5,1C12.6,1,16,4.4,16,8.5S12.6,16,8.5,16S1,12.6,1,8.5S4.4,1,8.5,1 M8.5,0C3.8,0,0,3.8,0,8.5C0,13.2,3.8,17,8.5,17S17,13.2,17,8.5C17,3.8,13.2,0,8.5,0L8.5,0z"/>
	<polygon class="st2" points="8.5,15 6,13.9 5,11 8.5,11 12,11 11,13.7 "/>
	<path class="st3" d="M5.5,11.8c0,1.5,1.3,2.8,3,2.8"/>
	<path class="st3" d="M11.5,11.8c0,1.5-1.3,2.8-3,2.8"/>
	<line class="st3" x1="4" y1="9.5" x2="5" y2="10.5"/>
	<line class="st3" x1="12" y1="10.5" x2="13" y2="9.5"/>
	<rect x="7.8" y="11" class="st4" width="1.5" height="2"/>
	<rect x="5" y="10.8" class="st5" width="1" height="1"/>
	<rect x="11" y="10.8" class="st5" width="1" height="1"/>
	<rect x="4.5" y="10" class="st6" width="8" height="1"/>
	<rect x="10" y="5" class="st5" width="2" height="2"/>
	<path class="st5" d="M6.5,7.5C5.1,7.5,4,6.4,4,5h1c0,0.8,0.7,1.5,1.5,1.5V7.5z"/>
	<path class="st5" d="M6.5,7.5C7.9,7.5,9,6.4,9,5H8c0,0.8-0.7,1.5-1.5,1.5V7.5z"/>
</svg>