<?xml version="1.0" encoding="utf-8"?>
<!DOCTYPE svg PUBLIC "-//W3C//DTD SVG 1.1//EN" "http://www.w3.org/Graphics/SVG/1.1/DTD/svg11.dtd">
<svg version="1.1" xmlns="http://www.w3.org/2000/svg" xmlns:xlink="http://www.w3.org/1999/xlink" height="17" width="17" xml:space="preserve">
	
	<!-- Copyright 2011–2015 KittMedia Productions -->
	<!-- Licensed under GNU Lesser General Public License, version 2.1 (LGPL-2.1) -->
	
	<style type="text/css">
		.st0{fill:url(#SVGID_1_);}
		.st1{fill:#CDA70C;}
		.st2{fill:#FFFFFF;}
		.st3{fill:#655B20;}
	</style>
	
	<radialGradient id="SVGID_1_" cx="6.3327" cy="6.756" r="9.105" gradientUnits="userSpaceOnUse">
		<stop offset="0" style="stop-color:#FFFF98"/>
		<stop offset="1" style="stop-color:#FFD314"/>
	</radialGradient>
	
	<path class="st0" d="M8.5,16.5c-4.4,0-8-3.6-8-8s3.6-8,8-8s8,3.6,8,8S12.9,16.5,8.5,16.5z"/>
	<path class="st1" d="M8.5,1C12.6,1,16,4.4,16,8.5S12.6,16,8.5,16S1,12.6,1,8.5S4.4,1,8.5,1 M8.5,0C3.8,0,0,3.8,0,8.5C0,13.2,3.8,17,8.5,17S17,13.2,17,8.5C17,3.8,13.2,0,8.5,0L8.5,0z"/>
	<polygon class="st2" points="5.5,3.5 3.9,3.5 2.8,4.5 1.5,4.5 1.5,7.5 2.6,8.5 5.2,8.5 6.4,7.3 6.4,5 "/>
	<rect x="4.5" y="6" transform="matrix(-0.7071 -0.7071 0.7071 -0.7071 4.1998 15.1422)" class="st3" width="1.5" height="1.5"/>
	<path class="st3" d="M7,11c2.2,0,4-1.3,4-3l1,0c0,2.2-2.2,4-5,4V11z"/>
	<rect x="1.1" y="0.6" transform="matrix(0.7071 -0.7071 0.7071 0.7071 -0.1464 1.7678)" class="st3" width="2" height="1"/>
	<rect x="7" y="2" class="st3" width="2" height="1"/>
	<rect x="1" y="4.1" class="st3" width="1" height="3.5"/>
	<rect x="1" y="4.1" class="st3" width="2" height="1"/>
	<rect x="3.7" y="3" class="st3" width="2" height="1"/>
	<rect x="2.4" y="3.6" transform="matrix(0.7071 -0.7071 0.7071 0.7071 -1.8887 3.5616)" class="st3" width="2" height="1"/>
	<rect x="9.2" y="5.6" transform="matrix(0.7071 -0.7071 0.7071 0.7071 -1.3388 8.9892)" class="st3" width="2" height="1"/>
	<rect x="1.1" y="7.4" transform="matrix(-0.7071 -0.7071 0.7071 -0.7071 -2.096 15.01)" class="st3" width="2" height="1"/>
	<rect x="5.1" y="3.6" transform="matrix(-0.7071 -0.7071 0.7071 -0.7071 7.4838 11.2212)" class="st3" width="2" height="1"/>
	<rect x="2.4" y="8" class="st3" width="3" height="1"/>
	<rect x="6.8" y="6.2" class="st3" width="3" height="1"/>
	<rect x="4.6" y="7.1" transform="matrix(0.7071 -0.7071 0.7071 0.7071 -3.5712 6.5494)" class="st3" width="3" height="1"/>
</svg>