<?xml version="1.0" encoding="utf-8"?>
<!DOCTYPE svg PUBLIC "-//W3C//DTD SVG 1.1//EN" "http://www.w3.org/Graphics/SVG/1.1/DTD/svg11.dtd">
<svg version="1.1" xmlns="http://www.w3.org/2000/svg" xmlns:xlink="http://www.w3.org/1999/xlink" height="19" width="17" xml:space="preserve">
	
	<!-- Copyright 2011–2015 KittMedia Productions -->
	<!-- Licensed under GNU Lesser General Public License, version 2.1 (LGPL-2.1) -->
	
	<style type="text/css">
		.st0{fill:url(#SVGID_1_);}
		.st1{fill:#CDA70C;}
		.st2{fill:#FFFFFF;}
		.st3{fill:#655B20;}
		.st4{fill:none;stroke:#655B20;stroke-miterlimit:10;}
		.st5{fill:#4C4926;}
		.st6{fill:#F84116;}
		.st7{fill:none;stroke:#655919;stroke-miterlimit:10;}
		.st8{fill:#655919;}
	</style>
	
	<radialGradient id="SVGID_1_" cx="6.3327" cy="8.756" r="9.105" gradientUnits="userSpaceOnUse">
		<stop offset="0" style="stop-color:#FFFF98"/>
		<stop offset="1" style="stop-color:#FFD314"/>
	</radialGradient>
	
	<path class="st0" d="M8.5,18.5c-4.4,0-8-3.6-8-8s3.6-8,8-8s8,3.6,8,8S12.9,18.5,8.5,18.5z"/>
	<path class="st1" d="M8.5,3c4.1,0,7.5,3.4,7.5,7.5S12.6,18,8.5,18S1,14.6,1,10.5S4.4,3,8.5,3 M8.5,2C3.8,2,0,5.8,0,10.5C0,15.2,3.8,19,8.5,19s8.5-3.8,8.5-8.5C17,5.8,13.2,2,8.5,2L8.5,2z"/>
	<circle class="st2" cx="5.5" cy="6.5" r="3"/>
	<path class="st3" d="M5.5,4C6.9,4,8,5.1,8,6.5S6.9,9,5.5,9S3,7.9,3,6.5S4.1,4,5.5,4 M5.5,3C3.6,3,2,4.6,2,6.5S3.6,10,5.5,10S9,8.4,9,6.5S7.4,3,5.5,3L5.5,3z"/>
	<path class="st3" d="M6.2,7.5L6.2,7.5c-0.4,0-0.8-0.3-0.8-0.8l0,0C5.5,6.3,5.8,6,6.2,6l0,0C6.7,6,7,6.3,7,6.8l0,0C7,7.2,6.7,7.5,6.2,7.5z"/>
	<circle class="st2" cx="11.5" cy="6.5" r="3"/>
	<path class="st3" d="M11.5,4C12.9,4,14,5.1,14,6.5S12.9,9,11.5,9S9,7.9,9,6.5S10.1,4,11.5,4 M11.5,3C9.6,3,8,4.6,8,6.5S9.6,10,11.5,10S15,8.4,15,6.5S13.4,3,11.5,3L11.5,3z"/>
	<path class="st3" d="M11.2,7.5L11.2,7.5c0.4,0,0.8-0.3,0.8-0.8l0,0C12,6.3,11.7,6,11.2,6l0,0c-0.4,0-0.8,0.3-0.8,0.8l0,0C10.5,7.2,10.8,7.5,11.2,7.5z"/>
	<path class="st4" d="M2.5,1.5c0-0.6,1.3-1,3-1"/>
	<path class="st4" d="M14.5,1.5c0-0.6-1.3-1-3-1"/>
	<polygon class="st5" points="14.5,11.5 2.5,11.5 2.3,13.4 5.5,16.2 11.4,16.2 14.6,13.5 "/>
	<rect x="7" y="15" class="st6" width="3" height="1"/>
	<path class="st7" d="M2,12c0,2.5,2.7,4.5,6,4.5"/>
	<path class="st7" d="M15,12c0,2.5-2.7,4.5-6,4.5"/>
	<rect x="1.5" y="11" class="st8" width="14" height="1"/>
	<rect x="8" y="16" class="st8" width="1" height="1"/>
</svg>