<?xml version="1.0" encoding="iso-8859-1"?>
<!DOCTYPE svg PUBLIC "-//W3C//DTD SVG 1.1//EN" "http://www.w3.org/Graphics/SVG/1.1/DTD/svg11.dtd">
<svg version="1.1" xmlns="http://www.w3.org/2000/svg" xmlns:xlink="http://www.w3.org/1999/xlink" height="17" width="17" xml:space="preserve">
	
	<!-- Copyright 2011–2015 KittMedia Productions -->
	<!-- Licensed under GNU Lesser General Public License, version 2.1 (LGPL-2.1) -->
	
	<radialGradient id="SVGID_1_" cx="6.3327" cy="6.756" r="9.105" gradientUnits="userSpaceOnUse">
		<stop offset="0" style="stop-color:#FFFF98"/>
		<stop offset="1" style="stop-color:#FFD314"/>
	</radialGradient>
	
	<path style="fill:url(#SVGID_1_);" d="M8.5,16.5c-4.411,0-8-3.589-8-8s3.589-8,8-8s8,3.589,8,8S12.911,16.5,8.5,16.5z"/>
	<path style="fill:#CDA70C;" d="M8.5,1C12.636,1,16,4.364,16,8.5S12.636,16,8.5,16S1,12.636,1,8.5S4.364,1,8.5,1 M8.5,0C3.806,0,0,3.806,0,8.5C0,13.194,3.806,17,8.5,17S17,13.194,17,8.5C17,3.806,13.194,0,8.5,0L8.5,0z"/>
	<polygon style="fill:#FFFFFF;" points="6.339,5.217 8.839,5.217 10.853,3.033 11.871,3.033 14.794,5.906 14.794,7.682 11.965,10.643 10.818,10.643 8.9,8.703 7.652,9.873 4.011,9.873 1.668,7.516 4.027,5.217 "/>
	<rect x="7" y="13" style="fill:#655B20;" width="3" height="2"/>
	<rect x="0.779" y="5.984" transform="matrix(0.7071 -0.7071 0.7071 0.7071 -3.7711 3.8645)" style="fill:#655B20;" width="4" height="1"/>
	<rect x="7.975" y="3.625" transform="matrix(0.7071 -0.7071 0.7071 0.7071 -0.0682 8.0852)" style="fill:#655B20;" width="3.502" height="1"/>
	<rect x="0.779" y="8.106" transform="matrix(0.7071 0.7071 -0.7071 0.7071 6.8992 0.5553)" style="fill:#655B20;" width="4" height="1"/>
	<rect x="3.839" y="4.717" style="fill:#655B20;" width="5" height="1"/>
	<rect x="3.839" y="9.373" style="fill:#655B20;" width="4" height="1"/>
	<rect x="10.611" y="2.533" style="fill:#655B20;" width="1.5" height="1"/>
	<rect x="11.099" y="3.978" transform="matrix(0.7071 0.7071 -0.7071 0.7071 7.0761 -8.1279)" style="fill:#655B20;" width="4.5" height="1"/>
	<rect x="7.975" y="9.051" transform="matrix(0.7071 0.7071 -0.7071 0.7071 9.6021 -4.0796)" style="fill:#655B20;" width="3.502" height="1"/>
	<rect x="10.612" y="10.143" style="fill:#655B20;" width="1.495" height="1"/>
	<rect x="11.094" y="8.697" transform="matrix(0.7071 -0.7071 0.7071 0.7071 -2.594 12.1316)" style="fill:#655B20;" width="4.506" height="1"/>
	<rect x="14.294" y="5.715" style="fill:#655B20;" width="1" height="2.243"/>
	<rect x="7.516" y="8.74" transform="matrix(0.7071 0.7071 -0.7071 0.7071 9.058 -2.8887)" style="fill:#655B20;" width="1" height="1.5"/>
	<rect x="6.011" y="6.5" style="fill:#655B20;" width="1.5" height="1.5"/>
	<rect x="10.511" y="6.5" style="fill:#655B20;" width="1.5" height="1.5"/>
</svg>